<svg version="1.1" viewBox="0.0 0.0 323.1496062992126 91.84251968503936" fill="none" stroke="none" stroke-linecap="square" stroke-miterlimit="10" xmlns:xlink="http://www.w3.org/1999/xlink" xmlns="http://www.w3.org/2000/svg"><clipPath id="p.0"><path d="m0 0l323.1496 0l0 91.84252l-323.1496 0l0 -91.84252z" clip-rule="nonzero"/></clipPath><g clip-path="url(#p.0)"><path fill="#000000" fill-opacity="0.0" d="m0 0l323.1496 0l0 91.84252l-323.1496 0z" fill-rule="evenodd"/><path fill="#000000" fill-opacity="0.0" d="m242.69327 62.7021l77.480316 0l0 25.700787l-77.480316 0z" fill-rule="evenodd"/><path fill="#000000" d="m256.67416 81.79897l0 1.375l1.34375 0q0.484375 0 0.6875 0.1875q0.203125 0.171875 0.203125 0.484375q0 0.28125 -0.203125 0.46875q-0.203125 0.1875 -0.6875 0.1875l-2.890625 0q-0.484375 0 -0.6875 -0.1875q-0.203125 -0.1875 -0.203125 -0.484375q0 -0.296875 0.203125 -0.46875q0.203125 -0.1875 0.6875 -0.1875l0.203125 0l0 -5.21875l-0.203125 0q-0.484375 0 -0.6875 -0.1875q-0.203125 -0.1875 -0.203125 -0.484375q0 -0.296875 0.203125 -0.484375q0.203125 -0.1875 0.6875 -0.1875l3.0625 0q1.359375 0 2.140625 0.75q0.796875 0.734375 0.796875 1.796875q0 0.578125 -0.265625 1.09375q-0.203125 0.390625 -0.671875 0.78125q-0.46875 0.375 -0.96875 0.578125q-0.484375 0.1875 -1.296875 0.1875l-1.25 0zm0 -1.34375l1.234375 0q0.875 0 1.375 -0.390625q0.515625 -0.390625 0.515625 -0.9375q0 -0.46875 -0.421875 -0.8125q-0.40625 -0.359375 -1.171875 -0.359375l-1.53125 0l0 2.5zm12.232544 1.203125q0 0.765625 -0.4375 1.484375q-0.421875 0.71875 -1.265625 1.15625q-0.84375 0.421875 -1.75 0.421875q-0.921875 0 -1.75 -0.421875q-0.828125 -0.421875 -1.265625 -1.140625q-0.4375 -0.71875 -0.4375 -1.515625q0 -0.796875 0.4375 -1.5625q0.4375 -0.78125 1.265625 -1.21875q0.84375 -0.4375 1.75 -0.4375q0.90625 0 1.75 0.453125q0.84375 0.4375 1.265625 1.203125q0.4375 0.765625 0.4375 1.578125zm-1.34375 0q0 -0.640625 -0.453125 -1.171875q-0.640625 -0.734375 -1.65625 -0.734375q-0.90625 0 -1.515625 0.578125q-0.609375 0.578125 -0.609375 1.34375q0 0.625 0.609375 1.171875q0.625 0.53125 1.515625 0.53125q0.890625 0 1.5 -0.53125q0.609375 -0.546875 0.609375 -1.1875zm6.5450745 -5.59375l0 7.109375l1.59375 0q0.484375 0 0.6875 0.1875q0.203125 0.171875 0.203125 0.484375q0 0.28125 -0.203125 0.46875q-0.203125 0.1875 -0.6875 0.1875l-4.53125 0q-0.484375 0 -0.6875 -0.1875q-0.203125 -0.1875 -0.203125 -0.484375q0 -0.296875 0.203125 -0.46875q0.203125 -0.1875 0.6875 -0.1875l1.59375 0l0 -5.78125l-1.0625 0q-0.484375 0 -0.703125 -0.1875q-0.203125 -0.1875 -0.203125 -0.484375q0 -0.28125 0.203125 -0.46875q0.21875 -0.1875 0.703125 -0.1875l2.40625 0zm6.576294 8.390625l-2.3125 -4.53125q-0.3125 -0.03125 -0.484375 -0.21875q-0.171875 -0.1875 -0.171875 -0.4375q0 -0.296875 0.203125 -0.484375q0.203125 -0.1875 0.6875 -0.1875l1.21875 0q0.484375 0 0.6875 0.1875q0.203125 0.1875 0.203125 0.484375q0 0.28125 -0.203125 0.46875q-0.203125 0.1875 -0.65625 0.1875l1.578125 3.0625l1.5625 -3.0625q-0.421875 0 -0.640625 -0.1875q-0.203125 -0.1875 -0.203125 -0.484375q0 -0.28125 0.203125 -0.46875q0.21875 -0.1875 0.6875 -0.1875l1.265625 0q0.46875 0 0.671875 0.1875q0.203125 0.1875 0.203125 0.484375q0 0.265625 -0.171875 0.453125q-0.171875 0.1875 -0.515625 0.203125l-3.0625 6.03125q0.5 0 0.65625 0.09375q0.3125 0.203125 0.3125 0.578125q0 0.296875 -0.203125 0.46875q-0.203125 0.1875 -0.6875 0.1875l-2.90625 0q-0.484375 0 -0.6875 -0.1875q-0.203125 -0.171875 -0.203125 -0.46875q0 -0.296875 0.203125 -0.484375q0.203125 -0.1875 0.6875 -0.1875l1.328125 0l0.75 -1.5zm10.216949 -5.46875l0 -0.390625l1.5625 0q0.484375 0 0.6875 0.1875q0.203125 0.1875 0.203125 0.484375q0 0.28125 -0.203125 0.46875q-0.203125 0.1875 -0.6875 0.1875l-0.234375 0l0 4.859375q0 0.703125 -0.296875 1.21875q-0.296875 0.53125 -0.90625 0.90625q-0.609375 0.375 -1.375 0.375l-1.515625 0q-0.484375 0 -0.6875 -0.1875q-0.203125 -0.171875 -0.203125 -0.46875q0 -0.296875 0.203125 -0.484375q0.203125 -0.1875 0.6875 -0.1875l1.46875 0q0.625 0 0.953125 -0.34375q0.34375 -0.328125 0.34375 -0.828125l0 -0.65625q-0.4375 0.296875 -0.90625 0.4375q-0.453125 0.140625 -0.9375 0.140625q-1.359375 0 -2.28125 -0.90625q-0.921875 -0.90625 -0.921875 -2.25q0 -1.328125 0.921875 -2.234375q0.921875 -0.921875 2.28125 -0.921875q0.5 0 0.953125 0.15625q0.46875 0.140625 0.890625 0.4375zm-0.015625 2.5625q0 -0.734375 -0.546875 -1.265625q-0.53125 -0.546875 -1.296875 -0.546875q-0.765625 0 -1.3125 0.546875q-0.53125 0.53125 -0.53125 1.265625q0 0.734375 0.53125 1.28125q0.546875 0.53125 1.3125 0.53125q0.765625 0 1.296875 -0.53125q0.546875 -0.546875 0.546875 -1.28125zm10.013794 0.109375q0 0.765625 -0.4375 1.484375q-0.421875 0.71875 -1.265625 1.15625q-0.84375 0.421875 -1.75 0.421875q-0.921875 0 -1.75 -0.421875q-0.828125 -0.421875 -1.265625 -1.140625q-0.4375 -0.71875 -0.4375 -1.515625q0 -0.796875 0.4375 -1.5625q0.4375 -0.78125 1.265625 -1.21875q0.84375 -0.4375 1.75 -0.4375q0.90625 0 1.75 0.453125q0.84375 0.4375 1.265625 1.203125q0.4375 0.765625 0.4375 1.578125zm-1.34375 0q0 -0.640625 -0.453125 -1.171875q-0.640625 -0.734375 -1.65625 -0.734375q-0.90625 0 -1.515625 0.578125q-0.609375 0.578125 -0.609375 1.34375q0 0.625 0.609375 1.171875q0.625 0.53125 1.515625 0.53125q0.890625 0 1.5 -0.53125q0.609375 -0.546875 0.609375 -1.1875zm4.5294495 -3.0625l0 0.453125q0.359375 -0.3125 0.796875 -0.46875q0.4375 -0.15625 0.953125 -0.15625q1.1875 0 1.875 0.734375q0.546875 0.578125 0.546875 1.53125l0 2.484375q0.421875 0 0.625 0.1875q0.203125 0.171875 0.203125 0.484375q0 0.28125 -0.203125 0.46875q-0.203125 0.1875 -0.6875 0.1875l-1.203125 0q-0.484375 0 -0.6875 -0.1875q-0.203125 -0.1875 -0.203125 -0.484375q0 -0.296875 0.1875 -0.46875q0.203125 -0.1875 0.640625 -0.1875l0 -2.53125q0 -0.421875 -0.234375 -0.625q-0.3125 -0.265625 -0.921875 -0.265625q-0.46875 0 -0.8125 0.1875q-0.34375 0.171875 -0.875 0.75l0 2.484375q0.5 0 0.65625 0.09375q0.3125 0.1875 0.3125 0.578125q0 0.28125 -0.203125 0.46875q-0.203125 0.1875 -0.6875 0.1875l-1.515625 0q-0.484375 0 -0.6875 -0.1875q-0.203125 -0.1875 -0.203125 -0.484375q0 -0.359375 0.3125 -0.5625q0.15625 -0.09375 0.671875 -0.09375l0 -3.25q-0.421875 0 -0.625 -0.1875q-0.203125 -0.1875 -0.203125 -0.484375q0 -0.28125 0.203125 -0.46875q0.203125 -0.1875 0.6875 -0.1875l1.28125 0z" fill-rule="nonzero"/><path fill="#cfe2f3" d="m249.82407 31.385826l0 0c0 -15.664013 12.204651 -28.362204 27.259827 -28.362204l0 0c7.229767 0 14.163422 2.9881525 19.275635 8.307098c5.112213 5.318944 7.9842224 12.532983 7.9842224 20.055107l0 0c0 15.664013 -12.204651 28.362206 -27.259857 28.362206l0 0c-15.055176 0 -27.259827 -12.698193 -27.259827 -28.362206z" fill-rule="evenodd"/><path stroke="#4e8aeb" stroke-width="3.0" stroke-linejoin="round" stroke-linecap="butt" d="m249.82407 31.385826l0 0c0 -15.664013 12.204651 -28.362204 27.259827 -28.362204l0 0c7.229767 0 14.163422 2.9881525 19.275635 8.307098c5.112213 5.318944 7.9842224 12.532983 7.9842224 20.055107l0 0c0 15.664013 -12.204651 28.362206 -27.259857 28.362206l0 0c-15.055176 0 -27.259827 -12.698193 -27.259827 -28.362206z" fill-rule="evenodd"/><path fill="#cfe2f3" d="m291.49225 40.8063c-0.2703247 1.3958893 -0.73095703 2.7559052 -1.5747986 4.0498695c-0.84381104 1.2939644 -1.9509888 2.6828537 -3.4881897 3.7139091c-1.5371704 1.0310593 -3.597992 2.0227509 -5.734894 2.4724426c-2.1369324 0.4496956 -4.9492493 0.5441818 -7.086609 0.22572327c-2.1373596 -0.31846237 -4.264679 -1.1977272 -5.737549 -2.136486c-1.4728699 -0.93875504 -2.3311462 -2.3468933 -3.0997314 -3.4960594c-0.7685852 -1.1491699 -1.1474304 -2.1574821 -1.5118103 -3.3989525c-0.36437988 -1.2414703 -1.0494385 -3.0936127 -0.67453 -4.0498695c0.37487793 -0.95625305 1.9304199 -1.2996483 2.9238586 -1.687664c0.9934387 -0.38801193 2.2869873 -1.0586166 3.0367737 -0.640419c0.74975586 0.41819763 0.9181824 2.129486 1.4619141 3.1496048c0.5437622 1.0201225 0.9973755 2.1098022 1.8005371 2.9711304c0.8031616 0.8613281 1.9169006 1.7869644 3.0183716 2.1968498c1.1015015 0.4098854 2.4667664 0.40813828 3.5905457 0.26246643c1.1238098 -0.14566803 2.3644104 -0.5236206 3.1522522 -1.1364822c0.7878113 -0.61286163 1.3560791 -1.5870514 1.5747986 -2.54068c0.21871948 -0.95363235 0.21038818 -2.3521461 -0.2624817 -3.1811028c-0.47286987 -0.8289604 -1.4790039 -1.317585 -2.5747986 -1.7926521c-1.0957947 -0.47506714 -2.612854 -0.61854935 -4.0 -1.0577431c-1.387146 -0.43919373 -2.978119 -0.9908142 -4.3228455 -1.5774269c-1.344696 -0.5866165 -2.612854 -1.1102371 -3.7453918 -1.9422588c-1.1325378 -0.8320198 -2.3101501 -1.8482056 -3.0498657 -3.0498676c-0.7397156 -1.2016621 -1.226593 -2.7038498 -1.3884583 -4.1601048c-0.16186523 -1.4562569 0.024047852 -3.1671047 0.41732788 -4.577429c0.3932495 -1.4103241 0.94836426 -2.7978992 1.9422607 -3.8845139c0.99386597 -1.0866146 2.5922852 -1.9978132 4.020996 -2.635171c1.4286804 -0.6373577 3.0612488 -0.98818874 4.551178 -1.1889763c1.4899292 -0.20078754 3.057312 -0.163167 4.3884583 -0.015748024c1.3311462 0.14741898 2.5223083 0.51443577 3.5984192 0.90026283c1.0761108 0.3858261 1.9658813 0.83202076 2.8582764 1.4146976c0.8923645 0.58267784 1.7536926 1.2458448 2.4960632 2.0813656c0.7423401 0.8355198 1.4816284 1.9453182 1.9579773 2.9317589c0.4763794 0.98643875 1.1627502 2.1889763 0.90026855 2.9868755c-0.26245117 0.79790115 -1.5375977 1.3048992 -2.4750671 1.8005257c-0.93743896 0.49562454 -2.276886 1.4658794 -3.1495972 1.1732273c-0.8727112 -0.29265022 -1.3740234 -2.0214348 -2.086609 -2.9291325c-0.71261597 -0.9076996 -1.3556519 -1.9098873 -2.1889954 -2.5170612c-0.833313 -0.6071739 -1.7799377 -0.96500397 -2.8110046 -1.1259842c-1.0310669 -0.16098022 -2.4190674 -0.16666603 -3.3753357 0.16010475c-0.9562378 0.3267727 -1.9125061 1.0691166 -2.3622131 1.8005257c-0.4496765 0.73140717 -0.5069885 1.8451443 -0.3359375 2.5879269c0.17102051 0.7427807 0.42520142 1.3250217 1.3621826 1.8687649c0.9370117 0.54374504 2.5722046 0.8390217 4.259857 1.3937016c1.6876526 0.5546799 4.241028 1.265091 5.86615 1.9343834c1.6250916 0.66929054 2.7624512 1.2099743 3.884491 2.0813637c1.1220703 0.8713913 2.1776123 2.107174 2.8477783 3.146984c0.670166 1.0398064 0.9855652 1.8556404 1.1732178 3.0918617c0.1876831 1.2362213 0.22311401 2.929573 -0.04724121 4.3254585z" fill-rule="evenodd"/><path stroke="#4e8aeb" stroke-width="3.0" stroke-linejoin="round" stroke-linecap="butt" d="m291.49225 40.8063c-0.2703247 1.3958893 -0.73095703 2.7559052 -1.5747986 4.0498695c-0.84381104 1.2939644 -1.9509888 2.6828537 -3.4881897 3.7139091c-1.5371704 1.0310593 -3.597992 2.0227509 -5.734894 2.4724426c-2.1369324 0.4496956 -4.9492493 0.5441818 -7.086609 0.22572327c-2.1373596 -0.31846237 -4.264679 -1.1977272 -5.737549 -2.136486c-1.4728699 -0.93875504 -2.3311462 -2.3468933 -3.0997314 -3.4960594c-0.7685852 -1.1491699 -1.1474304 -2.1574821 -1.5118103 -3.3989525c-0.36437988 -1.2414703 -1.0494385 -3.0936127 -0.67453 -4.0498695c0.37487793 -0.95625305 1.9304199 -1.2996483 2.9238586 -1.687664c0.9934387 -0.38801193 2.2869873 -1.0586166 3.0367737 -0.640419c0.74975586 0.41819763 0.9181824 2.129486 1.4619141 3.1496048c0.5437622 1.0201225 0.9973755 2.1098022 1.8005371 2.9711304c0.8031616 0.8613281 1.9169006 1.7869644 3.0183716 2.1968498c1.1015015 0.4098854 2.4667664 0.40813828 3.5905457 0.26246643c1.1238098 -0.14566803 2.3644104 -0.5236206 3.1522522 -1.1364822c0.7878113 -0.61286163 1.3560791 -1.5870514 1.5747986 -2.54068c0.21871948 -0.95363235 0.21038818 -2.3521461 -0.2624817 -3.1811028c-0.47286987 -0.8289604 -1.4790039 -1.317585 -2.5747986 -1.7926521c-1.0957947 -0.47506714 -2.612854 -0.61854935 -4.0 -1.0577431c-1.387146 -0.43919373 -2.978119 -0.9908142 -4.3228455 -1.5774269c-1.344696 -0.5866165 -2.612854 -1.1102371 -3.7453918 -1.9422588c-1.1325378 -0.8320198 -2.3101501 -1.8482056 -3.0498657 -3.0498676c-0.7397156 -1.2016621 -1.226593 -2.7038498 -1.3884583 -4.1601048c-0.16186523 -1.4562569 0.024047852 -3.1671047 0.41732788 -4.577429c0.3932495 -1.4103241 0.94836426 -2.7978992 1.9422607 -3.8845139c0.99386597 -1.0866146 2.5922852 -1.9978132 4.020996 -2.635171c1.4286804 -0.6373577 3.0612488 -0.98818874 4.551178 -1.1889763c1.4899292 -0.20078754 3.057312 -0.163167 4.3884583 -0.015748024c1.3311462 0.14741898 2.5223083 0.51443577 3.5984192 0.90026283c1.0761108 0.3858261 1.9658813 0.83202076 2.8582764 1.4146976c0.8923645 0.58267784 1.7536926 1.2458448 2.4960632 2.0813656c0.7423401 0.8355198 1.4816284 1.9453182 1.9579773 2.9317589c0.4763794 0.98643875 1.1627502 2.1889763 0.90026855 2.9868755c-0.26245117 0.79790115 -1.5375977 1.3048992 -2.4750671 1.8005257c-0.93743896 0.49562454 -2.276886 1.4658794 -3.1495972 1.1732273c-0.8727112 -0.29265022 -1.3740234 -2.0214348 -2.086609 -2.9291325c-0.71261597 -0.9076996 -1.3556519 -1.9098873 -2.1889954 -2.5170612c-0.833313 -0.6071739 -1.7799377 -0.96500397 -2.8110046 -1.1259842c-1.0310669 -0.16098022 -2.4190674 -0.16666603 -3.3753357 0.16010475c-0.9562378 0.3267727 -1.9125061 1.0691166 -2.3622131 1.8005257c-0.4496765 0.73140717 -0.5069885 1.8451443 -0.3359375 2.5879269c0.17102051 0.7427807 0.42520142 1.3250217 1.3621826 1.8687649c0.9370117 0.54374504 2.5722046 0.8390217 4.259857 1.3937016c1.6876526 0.5546799 4.241028 1.265091 5.86615 1.9343834c1.6250916 0.66929054 2.7624512 1.2099743 3.884491 2.0813637c1.1220703 0.8713913 2.1776123 2.107174 2.8477783 3.146984c0.670166 1.0398064 0.9855652 1.8556404 1.1732178 3.0918617c0.1876831 1.2362213 0.22311401 2.929573 -0.04724121 4.3254585z" fill-rule="evenodd"/><path fill="#d96248" d="m312.32117 63.63743c-0.21176147 -0.089229584 -0.5791626 -1.1040077 -1.0043335 -1.5255623c-0.42514038 -0.42155075 -0.7340088 -0.7229347 -1.5466309 -1.0037575c-0.81259155 -0.28082275 -1.8123779 0.102581024 -3.3290405 -0.68118286c-1.5166321 -0.7837639 -4.343567 -2.9601974 -5.770813 -4.021393c-1.4272156 -1.0611954 -1.7532349 -1.3834877 -2.7925415 -2.3457756c-1.0392761 -0.9622879 -2.3829346 -2.2943459 -3.4432068 -3.4279556c-1.0602417 -1.133606 -1.9984741 -2.2662277 -2.918274 -3.3736954c-0.9198303 -1.1074677 -1.8343201 -2.282196 -2.6006165 -3.2711182c-0.76626587 -0.9889221 -2.0430603 -2.5779228 -1.9970703 -2.6624184c0.045959473 -0.084495544 1.1171875 1.1735954 2.2729797 2.1554527c1.1557922 0.9818573 3.3282166 2.7091866 4.661804 3.735695c1.3336182 1.0265083 2.5256042 1.8999901 3.3398132 2.4233475c0.814209 0.5233574 1.4321289 0.7319069 1.5453796 0.71678925c0.11328125 -0.015117645 -0.19921875 -0.039138794 -0.8657532 -0.80749893c-0.6665344 -0.76836395 -2.2031555 -2.6255417 -3.1333923 -3.8026695c-0.9302368 -1.1771278 -1.7406311 -2.2842445 -2.4479675 -3.2600975c-0.7073364 -0.97584915 -2.0856018 -2.7719193 -1.796051 -2.5950203c0.28955078 0.17690277 2.3781128 2.5597687 3.5333862 3.6564293c1.1552429 1.0966606 2.3901062 2.0849457 3.3981018 2.9235306c1.0079956 0.8385849 1.7876587 1.4530754 2.6498413 2.1079788c0.8621826 0.6548996 1.7796326 1.295742 2.5232544 1.8214302c0.7435913 0.5256882 0.9316101 0.6139984 1.9383545 1.332695c1.0067444 0.7186966 3.128357 2.248848 4.1021423 2.9794846c0.9738159 0.7306328 1.2436523 0.8270683 1.7406311 1.4043274c0.49700928 0.57725906 0.9064331 1.3190575 1.2413635 2.0592308c0.33493042 0.74017334 0.6072998 1.6365471 0.76815796 2.3818092c0.16082764 0.74525833 0.20846558 1.5764236 0.1968689 2.0897484c-0.011566162 0.51332474 -0.054595947 1.079422 -0.26638794 0.9901962z" fill-rule="evenodd"/><path stroke="#d96248" stroke-width="1.0" stroke-linejoin="round" stroke-linecap="butt" d="m312.32117 63.63743c-0.21176147 -0.089229584 -0.5791626 -1.1040077 -1.0043335 -1.5255623c-0.42514038 -0.42155075 -0.7340088 -0.7229347 -1.5466309 -1.0037575c-0.81259155 -0.28082275 -1.8123779 0.102581024 -3.3290405 -0.68118286c-1.5166321 -0.7837639 -4.343567 -2.9601974 -5.770813 -4.021393c-1.4272156 -1.0611954 -1.7532349 -1.3834877 -2.7925415 -2.3457756c-1.0392761 -0.9622879 -2.3829346 -2.2943459 -3.4432068 -3.4279556c-1.0602417 -1.133606 -1.9984741 -2.2662277 -2.918274 -3.3736954c-0.9198303 -1.1074677 -1.8343201 -2.282196 -2.6006165 -3.2711182c-0.76626587 -0.9889221 -2.0430603 -2.5779228 -1.9970703 -2.6624184c0.045959473 -0.084495544 1.1171875 1.1735954 2.2729797 2.1554527c1.1557922 0.9818573 3.3282166 2.7091866 4.661804 3.735695c1.3336182 1.0265083 2.5256042 1.8999901 3.3398132 2.4233475c0.814209 0.5233574 1.4321289 0.7319069 1.5453796 0.71678925c0.11328125 -0.015117645 -0.19921875 -0.039138794 -0.8657532 -0.80749893c-0.6665344 -0.76836395 -2.2031555 -2.6255417 -3.1333923 -3.8026695c-0.9302368 -1.1771278 -1.7406311 -2.2842445 -2.4479675 -3.2600975c-0.7073364 -0.97584915 -2.0856018 -2.7719193 -1.796051 -2.5950203c0.28955078 0.17690277 2.3781128 2.5597687 3.5333862 3.6564293c1.1552429 1.0966606 2.3901062 2.0849457 3.3981018 2.9235306c1.0079956 0.8385849 1.7876587 1.4530754 2.6498413 2.1079788c0.8621826 0.6548996 1.7796326 1.295742 2.5232544 1.8214302c0.7435913 0.5256882 0.9316101 0.6139984 1.9383545 1.332695c1.0067444 0.7186966 3.128357 2.248848 4.1021423 2.9794846c0.9738159 0.7306328 1.2436523 0.8270683 1.7406311 1.4043274c0.49700928 0.57725906 0.9064331 1.3190575 1.2413635 2.0592308c0.33493042 0.74017334 0.6072998 1.6365471 0.76815796 2.3818092c0.16082764 0.74525833 0.20846558 1.5764236 0.1968689 2.0897484c-0.011566162 0.51332474 -0.054595947 1.079422 -0.26638794 0.9901962z" fill-rule="evenodd"/><path fill="#d96248" d="m284.25092 54.29817c-0.06838989 0.16122055 1.066803 1.6122475 1.6413574 2.3131409c0.57455444 0.7008934 1.1629639 1.3034439 1.8059998 1.8922195c0.6430054 0.58877563 1.3817749 1.1567116 2.0520935 1.6404343c0.6703186 0.4837227 1.2483826 0.8739052 1.9697876 1.2619019c0.721405 0.38799667 1.6339722 0.77373123 2.3586426 1.0660706c0.7246399 0.29233932 1.2741699 0.5152321 1.9892273 0.6879654c0.7150574 0.1727333 1.5413818 0.304348 2.301117 0.34843063c0.7597351 0.044086456 1.5881348 -0.029953003 2.2572937 -0.083927155c0.6691284 -0.05397415 1.2848511 -0.15895844 1.7575684 -0.23991776c0.4727478 -0.080963135 0.70825195 -0.124622345 1.0787964 -0.24585342c0.37057495 -0.12123108 0.7622986 -0.28916168 1.1445618 -0.48153305c0.3822937 -0.19237518 0.8070984 -0.5044937 1.1491394 -0.6727066c0.3420105 -0.16820908 0.5609741 -0.23136902 0.9029846 -0.3365631c0.3420105 -0.10519409 0.8457031 -0.17824173 1.1491089 -0.29460144c0.30340576 -0.116355896 0.9436035 -0.17817307 0.6713562 -0.40353775c-0.2722473 -0.22536469 -2.2613525 -0.46217346 -2.30484 -0.9486542c-0.043518066 -0.4864769 1.5184937 -1.4655075 2.0438232 -1.9702148c0.5253296 -0.5047035 0.7937927 -0.75380707 1.1081543 -1.0580139c0.3143921 -0.30420685 0.5711975 -0.22550583 0.7780762 -0.767231c0.20690918 -0.54172516 0.38449097 -1.6554108 0.46328735 -2.4831161c0.07879639 -0.8277054 0.10638428 -1.604969 0.009521484 -2.4831161c-0.09686279 -0.8781471 -0.29196167 -1.8302612 -0.59069824 -2.7857666c-0.29870605 -0.9555092 -0.73703 -2.0203056 -1.2016296 -2.9472694c-0.4645996 -0.9269676 -1.0014648 -1.8036308 -1.5859375 -2.614521c-0.58447266 -0.8108902 -1.331604 -1.6337204 -1.92099 -2.2508278c-0.589386 -0.6171036 -1.0382385 -0.9785347 -1.6152954 -1.4518013c-0.57702637 -0.47327042 -1.6622314 -1.3386993 -1.8469238 -1.3877983c-0.18469238 -0.049102783 0.45147705 0.59555817 0.73876953 1.0931969c0.28726196 0.4976387 0.6672058 1.1793175 0.9848938 1.892643c0.317688 0.7133293 0.6741028 1.5436478 0.9212036 2.3873177c0.24707031 0.8436737 0.4595642 1.8167 0.5613098 2.6747131c0.101745605 0.85801315 0.1116333 1.6557617 0.049224854 2.4733658c-0.06237793 0.81760406 -0.22000122 1.7577057 -0.42358398 2.4322472c-0.20358276 0.6745453 -0.41488647 0.9771271 -0.7979126 1.6150017c-0.38305664 0.6378746 -0.9150696 1.5281029 -1.5003052 2.2122536c-0.5852356 0.6841507 -1.3895874 1.4224167 -2.0111694 1.892643c-0.6215515 0.4702301 -1.0923767 0.6879654 -1.7182922 0.9287338c-0.6259155 0.24076462 -1.2154846 0.3973198 -2.037201 0.5158653c-0.8217163 0.11854553 -1.9183655 0.23991776 -2.8930664 0.19541168c-0.9747009 -0.044509888 -2.126831 -0.2855568 -2.9551086 -0.46245956c-0.8282471 -0.17689896 -1.2756958 -0.29756546 -2.0144653 -0.59894943c-0.73876953 -0.30138016 -1.6732178 -0.7834778 -2.4181824 -1.2093391c-0.7449951 -0.42586517 -1.9833069 -1.5070534 -2.0516968 -1.3458366z" fill-rule="evenodd"/><path stroke="#d96248" stroke-width="1.0" stroke-linejoin="round" stroke-linecap="butt" d="m284.25092 54.29817c-0.06838989 0.16122055 1.066803 1.6122475 1.6413574 2.3131409c0.57455444 0.7008934 1.1629639 1.3034439 1.8059998 1.8922195c0.6430054 0.58877563 1.3817749 1.1567116 2.0520935 1.6404343c0.6703186 0.4837227 1.2483826 0.8739052 1.9697876 1.2619019c0.721405 0.38799667 1.6339722 0.77373123 2.3586426 1.0660706c0.7246399 0.29233932 1.2741699 0.5152321 1.9892273 0.6879654c0.7150574 0.1727333 1.5413818 0.304348 2.301117 0.34843063c0.7597351 0.044086456 1.5881348 -0.029953003 2.2572937 -0.083927155c0.6691284 -0.05397415 1.2848511 -0.15895844 1.7575684 -0.23991776c0.4727478 -0.080963135 0.70825195 -0.124622345 1.0787964 -0.24585342c0.37057495 -0.12123108 0.7622986 -0.28916168 1.1445618 -0.48153305c0.3822937 -0.19237518 0.8070984 -0.5044937 1.1491394 -0.6727066c0.3420105 -0.16820908 0.5609741 -0.23136902 0.9029846 -0.3365631c0.3420105 -0.10519409 0.8457031 -0.17824173 1.1491089 -0.29460144c0.30340576 -0.116355896 0.9436035 -0.17817307 0.6713562 -0.40353775c-0.2722473 -0.22536469 -2.2613525 -0.46217346 -2.30484 -0.9486542c-0.043518066 -0.4864769 1.5184937 -1.4655075 2.0438232 -1.9702148c0.5253296 -0.5047035 0.7937927 -0.75380707 1.1081543 -1.0580139c0.3143921 -0.30420685 0.5711975 -0.22550583 0.7780762 -0.767231c0.20690918 -0.54172516 0.38449097 -1.6554108 0.46328735 -2.4831161c0.07879639 -0.8277054 0.10638428 -1.604969 0.009521484 -2.4831161c-0.09686279 -0.8781471 -0.29196167 -1.8302612 -0.59069824 -2.7857666c-0.29870605 -0.9555092 -0.73703 -2.0203056 -1.2016296 -2.9472694c-0.4645996 -0.9269676 -1.0014648 -1.8036308 -1.5859375 -2.614521c-0.58447266 -0.8108902 -1.331604 -1.6337204 -1.92099 -2.2508278c-0.589386 -0.6171036 -1.0382385 -0.9785347 -1.6152954 -1.4518013c-0.57702637 -0.47327042 -1.6622314 -1.3386993 -1.8469238 -1.3877983c-0.18469238 -0.049102783 0.45147705 0.59555817 0.73876953 1.0931969c0.28726196 0.4976387 0.6672058 1.1793175 0.9848938 1.892643c0.317688 0.7133293 0.6741028 1.5436478 0.9212036 2.3873177c0.24707031 0.8436737 0.4595642 1.8167 0.5613098 2.6747131c0.101745605 0.85801315 0.1116333 1.6557617 0.049224854 2.4733658c-0.06237793 0.81760406 -0.22000122 1.7577057 -0.42358398 2.4322472c-0.20358276 0.6745453 -0.41488647 0.9771271 -0.7979126 1.6150017c-0.38305664 0.6378746 -0.9150696 1.5281029 -1.5003052 2.2122536c-0.5852356 0.6841507 -1.3895874 1.4224167 -2.0111694 1.892643c-0.6215515 0.4702301 -1.0923767 0.6879654 -1.7182922 0.9287338c-0.6259155 0.24076462 -1.2154846 0.3973198 -2.037201 0.5158653c-0.8217163 0.11854553 -1.9183655 0.23991776 -2.8930664 0.19541168c-0.9747009 -0.044509888 -2.126831 -0.2855568 -2.9551086 -0.46245956c-0.8282471 -0.17689896 -1.2756958 -0.29756546 -2.0144653 -0.59894943c-0.73876953 -0.30138016 -1.6732178 -0.7834778 -2.4181824 -1.2093391c-0.7449951 -0.42586517 -1.9833069 -1.5070534 -2.0516968 -1.3458366z" fill-rule="evenodd"/><path fill="#000000" fill-opacity="0.0" d="m127.35954 31.370403l-62.677162 0" fill-rule="evenodd"/><path stroke="#000000" stroke-width="3.0" stroke-linejoin="round" stroke-linecap="butt" d="m127.35955 31.370401l-45.792343 0" fill-rule="evenodd"/><path stroke="#000000" stroke-width="3.0" stroke-linecap="butt" d="m81.56721 31.370401l-7.1348267 -4.995861l-7.1348343 4.995861l7.1348343 4.995863z" fill-rule="evenodd"/><path fill="#000000" fill-opacity="0.0" d="m211.86348 31.370403l37.95276 0" fill-rule="evenodd"/><path stroke="#000000" stroke-width="3.0" stroke-linejoin="round" stroke-linecap="butt" d="m211.86348 31.370403l37.95276 0" fill-rule="evenodd"/><path fill="#000000" fill-opacity="0.0" d="m127.35954 13.590875l84.50394 0l0 35.559055l-84.50394 0z" fill-rule="evenodd"/><path stroke="#000000" stroke-width="3.0" stroke-linejoin="round" stroke-linecap="butt" d="m127.35954 13.590875l84.50394 0l0 35.559055l-84.50394 0z" fill-rule="evenodd"/><path fill="#000000" d="m143.24377 33.250248l-3.234375 0l-0.328125 0.8125l0.328125 0q0.484375 0 0.6875 0.1875q0.203125 0.171875 0.203125 0.484375q0 0.28125 -0.203125 0.46875q-0.203125 0.1875 -0.6875 0.1875l-1.796875 0q-0.484375 0 -0.6875 -0.1875q-0.203125 -0.1875 -0.203125 -0.484375q0 -0.296875 0.21875 -0.484375q0.203125 -0.1875 0.703125 -0.171875l2.09375 -5.218748l-0.875 0q-0.484375 0 -0.6875 -0.1875q-0.203125 -0.1875 -0.203125 -0.484375q0 -0.296875 0.203125 -0.484375q0.203125 -0.1875 0.6875 -0.1875l2.890625 0l2.65625 6.562498q0.46875 0 0.609375 0.09375q0.296875 0.21875 0.296875 0.578125q0 0.28125 -0.203125 0.46875q-0.1875 0.1875 -0.671875 0.1875l-1.796875 0q-0.484375 0 -0.6875 -0.1875q-0.203125 -0.1875 -0.203125 -0.484375q0 -0.296875 0.203125 -0.46875q0.203125 -0.1875 0.6875 -0.1875l0.328125 0l-0.328125 -0.8125zm-0.546875 -1.3437481l-1.078125 -2.640625l-1.078125 2.640625l2.15625 0zm6.638809 -2.421875l0 0.828125q0.84375 -0.609375 1.328125 -0.796875q0.484375 -0.203125 0.90625 -0.203125q0.65625 0 1.265625 0.46875q0.421875 0.328125 0.421875 0.671875q0 0.28125 -0.203125 0.484375q-0.203125 0.203125 -0.484375 0.203125q-0.25 0 -0.53125 -0.25q-0.265625 -0.25 -0.46875 -0.25q-0.28125 0 -0.84375 0.359375q-0.546875 0.34375 -1.390625 1.0468731l0 2.015625l1.90625 0q0.484375 0 0.6875 0.1875q0.203125 0.171875 0.203125 0.484375q0 0.28125 -0.203125 0.46875q-0.203125 0.1875 -0.6875 0.1875l-4.03125 0q-0.484375 0 -0.6875 -0.1875q-0.203125 -0.1875 -0.203125 -0.484375q0 -0.296875 0.203125 -0.46875q0.203125 -0.1875 0.6875 -0.1875l0.796875 0l0 -3.249998l-0.484375 0q-0.484375 0 -0.6875 -0.1875q-0.203125 -0.1875 -0.203125 -0.484375q0 -0.28125 0.203125 -0.46875q0.203125 -0.1875 0.6875 -0.1875l1.8125 0zm7.998184 0l0 0.828125q0.84375 -0.609375 1.328125 -0.796875q0.484375 -0.203125 0.90625 -0.203125q0.65625 0 1.265625 0.46875q0.421875 0.328125 0.421875 0.671875q0 0.28125 -0.203125 0.484375q-0.203125 0.203125 -0.484375 0.203125q-0.25 0 -0.53125 -0.25q-0.265625 -0.25 -0.46875 -0.25q-0.28125 0 -0.84375 0.359375q-0.546875 0.34375 -1.390625 1.0468731l0 2.015625l1.90625 0q0.484375 0 0.6875 0.1875q0.203125 0.171875 0.203125 0.484375q0 0.28125 -0.203125 0.46875q-0.203125 0.1875 -0.6875 0.1875l-4.03125 0q-0.484375 0 -0.6875 -0.1875q-0.203125 -0.1875 -0.203125 -0.484375q0 -0.296875 0.203125 -0.46875q0.203125 -0.1875 0.6875 -0.1875l0.796875 0l0 -3.249998l-0.484375 0q-0.484375 0 -0.6875 -0.1875q-0.203125 -0.1875 -0.203125 -0.484375q0 -0.28125 0.203125 -0.46875q0.203125 -0.1875 0.6875 -0.1875l1.8125 0zm9.482559 5.906248l0 -0.3125q-0.5 0.265625 -1.109375 0.390625q-0.609375 0.140625 -1.09375 0.140625q-1.078125 0 -1.75 -0.5625q-0.671875 -0.578125 -0.671875 -1.265625q0 -0.84375 0.859375 -1.5625q0.859375 -0.7187481 2.359375 -0.7187481q0.609375 0 1.40625 0.140625l0 -0.328125q0 -0.296875 -0.265625 -0.484375q-0.25 -0.1875 -0.96875 -0.1875q-0.59375 0 -1.546875 0.234375q-0.34375 0.078125 -0.546875 0.078125q-0.265625 0 -0.453125 -0.1875q-0.171875 -0.1875 -0.171875 -0.484375q0 -0.171875 0.0625 -0.296875q0.0625 -0.125 0.171875 -0.203125q0.125 -0.078125 0.5 -0.171875q0.484375 -0.140625 1.0 -0.21875q0.515625 -0.078125 0.9375 -0.078125q1.234375 0 1.921875 0.53125q0.6875 0.53125 0.6875 1.46875l0 2.749998l0.234375 0q0.484375 0 0.6875 0.1875q0.203125 0.171875 0.203125 0.484375q0 0.28125 -0.203125 0.46875q-0.203125 0.1875 -0.6875 0.1875l-1.5625 0zm0 -2.390625q-0.796875 -0.15625 -1.484375 -0.15625q-0.8125 0 -1.390625 0.40625q-0.375 0.25 -0.375 0.5q0 0.203125 0.1875 0.3125q0.3125 0.21875 0.890625 0.21875q0.46875 0 1.078125 -0.1875q0.609375 -0.1875 1.09375 -0.515625l0 -0.578125zm6.045059 2.34375l-2.3125 -4.531248q-0.3125 -0.03125 -0.484375 -0.21875q-0.171875 -0.1875 -0.171875 -0.4375q0 -0.296875 0.203125 -0.484375q0.203125 -0.1875 0.6875 -0.1875l1.21875 0q0.484375 0 0.6875 0.1875q0.203125 0.1875 0.203125 0.484375q0 0.28125 -0.203125 0.46875q-0.203125 0.1875 -0.65625 0.1875l1.578125 3.062498l1.5625 -3.062498q-0.421875 0 -0.640625 -0.1875q-0.203125 -0.1875 -0.203125 -0.484375q0 -0.28125 0.203125 -0.46875q0.21875 -0.1875 0.6875 -0.1875l1.265625 0q0.46875 0 0.671875 0.1875q0.203125 0.1875 0.203125 0.484375q0 0.265625 -0.171875 0.453125q-0.171875 0.1875 -0.515625 0.203125l-3.0625 6.031248q0.5 0 0.65625 0.09375q0.3125 0.203125 0.3125 0.578125q0 0.296875 -0.203125 0.46875q-0.203125 0.1875 -0.6875 0.1875l-2.90625 0q-0.484375 0 -0.6875 -0.1875q-0.203125 -0.171875 -0.203125 -0.46875q0 -0.296875 0.203125 -0.484375q0.203125 -0.1875 0.6875 -0.1875l1.328125 0l0.75 -1.5zm7.357559 -3.749998l4.3125 2.390623q0.328125 0.1875 0.4375 0.328125q0.109375 0.140625 0.109375 0.359375q0 0.28125 -0.203125 0.484375q-0.203125 0.203125 -0.46875 0.203125q-0.171875 0 -0.53125 -0.1875l-6.4375 -3.578123l6.4375 -3.578125q0.359375 -0.1875 0.515625 -0.1875q0.28125 0 0.484375 0.203125q0.203125 0.1875 0.203125 0.46875q0 0.21875 -0.109375 0.375q-0.109375 0.140625 -0.4375 0.3125l-4.3125 2.40625zm8.295059 -1.25l-1.15625 -0.375q-0.40625 -0.125 -0.515625 -0.28125q-0.15625 -0.1875 -0.15625 -0.421875q0 -0.265625 0.1875 -0.46875q0.203125 -0.203125 0.4375 -0.203125q0.15625 0 0.46875 0.109375l1.140625 0.375l0 -1.21875q0 -0.484375 0.1875 -0.6875q0.1875 -0.203125 0.484375 -0.203125q0.296875 0 0.484375 0.203125q0.1875 0.203125 0.1875 0.6875l0 1.21875l1.15625 -0.375q0.3125 -0.109375 0.453125 -0.109375q0.25 0 0.4375 0.203125q0.1875 0.1875 0.1875 0.46875q0 0.234375 -0.140625 0.40625q-0.125 0.15625 -0.53125 0.296875l-1.15625 0.375l0.71875 0.984375q0.265625 0.359375 0.265625 0.5625q0 0.2812481 -0.203125 0.4843731q-0.1875 0.1875 -0.46875 0.1875q-0.203125 0 -0.34375 -0.078125q-0.125 -0.09375 -0.328125 -0.375l-0.71875 -0.9843731l-0.703125 0.9843731q-0.203125 0.28125 -0.34375 0.375q-0.140625 0.078125 -0.328125 0.078125q-0.28125 0 -0.484375 -0.1875q-0.1875 -0.203125 -0.1875 -0.4843731q0 -0.203125 0.25 -0.5625l0.71875 -0.984375zm10.498184 1.25l-4.3125 -2.40625q-0.328125 -0.171875 -0.4375 -0.3125q-0.109375 -0.15625 -0.109375 -0.375q0 -0.28125 0.203125 -0.46875q0.203125 -0.203125 0.46875 -0.203125q0.171875 0 0.53125 0.1875l6.4375 3.578125l-6.4375 3.578123q-0.359375 0.1875 -0.53125 0.1875q-0.265625 0 -0.46875 -0.1875q-0.203125 -0.203125 -0.203125 -0.5q0 -0.21875 0.109375 -0.359375q0.109375 -0.140625 0.4375 -0.328125l4.3125 -2.390623z" fill-rule="nonzero"/><path fill="#000000" fill-opacity="0.0" d="m85.07553 12.100807l36.53543 0l0 18.96063l-36.53543 0z" fill-rule="evenodd"/><path fill="#000000" d="m89.903656 18.154556l0 1.984375q0.296875 -0.171875 0.59375 -0.25q0.296875 -0.09375 0.609375 -0.09375q0.484375 0 0.859375 0.171875q0.375 0.15625 0.625 0.515625q0.25 0.359375 0.25 0.890625l0 1.75q0.359375 0 0.46875 0.078125q0.21875 0.140625 0.21875 0.390625q0 0.203125 -0.140625 0.34375q-0.140625 0.125 -0.484375 0.125l-1.0625 0q-0.328125 0 -0.484375 -0.125q-0.140625 -0.140625 -0.140625 -0.34375q0 -0.25 0.21875 -0.390625q0.109375 -0.078125 0.46875 -0.078125l0 -1.6875q0 -0.359375 -0.171875 -0.5q-0.203125 -0.203125 -0.625 -0.203125q-0.3125 0 -0.5625 0.125q-0.234375 0.125 -0.640625 0.515625l0 1.75q0.375 0 0.46875 0.078125q0.21875 0.140625 0.21875 0.390625q0 0.203125 -0.140625 0.34375q-0.140625 0.125 -0.46875 0.125l-1.0625 0q-0.34375 0 -0.484375 -0.125q-0.140625 -0.140625 -0.140625 -0.34375q0 -0.25 0.21875 -0.390625q0.109375 -0.078125 0.46875 -0.078125l0 -4.03125l-0.15625 0q-0.34375 0 -0.484375 -0.125q-0.140625 -0.140625 -0.140625 -0.34375q0 -0.203125 0.140625 -0.328125q0.140625 -0.140625 0.484375 -0.140625l1.078125 0zm8.988419 3.921875q0 0.53125 -0.296875 1.03125q-0.296875 0.5 -0.890625 0.8125q-0.578125 0.296875 -1.21875 0.296875q-0.640625 0 -1.234375 -0.296875q-0.578125 -0.296875 -0.890625 -0.796875q-0.296875 -0.515625 -0.296875 -1.0625q0 -0.5625 0.3125 -1.09375q0.3125 -0.546875 0.890625 -0.859375q0.578125 -0.3125 1.21875 -0.3125q0.625 0 1.21875 0.328125q0.59375 0.3125 0.890625 0.84375q0.296875 0.53125 0.296875 1.109375zm-0.921875 0q0 -0.453125 -0.328125 -0.828125q-0.4375 -0.515625 -1.15625 -0.515625q-0.640625 0 -1.0625 0.40625q-0.421875 0.40625 -0.421875 0.9375q0 0.4375 0.421875 0.828125q0.4375 0.375 1.0625 0.375q0.625 0 1.046875 -0.375q0.4375 -0.390625 0.4375 -0.828125zm4.5665436 -3.921875l0 4.96875l1.125 0q0.328125 0 0.46875 0.140625q0.15625 0.125 0.15625 0.328125q0 0.203125 -0.15625 0.34375q-0.140625 0.125 -0.46875 0.125l-3.171875 0q-0.34375 0 -0.484375 -0.125q-0.140625 -0.140625 -0.140625 -0.34375q0 -0.203125 0.140625 -0.328125q0.140625 -0.140625 0.484375 -0.140625l1.109375 0l0 -4.03125l-0.75 0q-0.328125 0 -0.484375 -0.125q-0.140625 -0.140625 -0.140625 -0.34375q0 -0.203125 0.140625 -0.328125q0.15625 -0.140625 0.484375 -0.140625l1.6875 0zm7.4727936 4.3125l-3.828125 0q0.140625 0.359375 0.515625 0.59375q0.375 0.21875 1.0 0.21875q0.53125 0 1.390625 -0.21875q0.34375 -0.09375 0.484375 -0.09375q0.1875 0 0.3125 0.140625q0.125 0.125 0.125 0.3125q0 0.1875 -0.125 0.3125q-0.1875 0.171875 -0.890625 0.328125q-0.703125 0.15625 -1.359375 0.15625q-1.125 0 -1.796875 -0.625q-0.671875 -0.640625 -0.671875 -1.578125q0 -0.984375 0.71875 -1.59375q0.734375 -0.625 1.6875 -0.625q0.5625 0 1.03125 0.203125q0.484375 0.203125 0.71875 0.4375q0.328125 0.34375 0.546875 0.828125q0.140625 0.34375 0.140625 0.8125l0 0.390625zm-1.03125 -0.9375q-0.21875 -0.390625 -0.5625 -0.59375q-0.34375 -0.203125 -0.828125 -0.203125q-0.46875 0 -0.8125 0.203125q-0.34375 0.203125 -0.5625 0.59375l2.765625 0zm5.3009186 -0.515625q-0.234375 -0.140625 -0.484375 -0.203125q-0.25 -0.078125 -0.515625 -0.078125q-0.546875 0 -0.875 0.1875q-0.140625 0.078125 -0.140625 0.15625q0 0.109375 0.203125 0.203125q0.140625 0.078125 0.640625 0.15625q0.9375 0.125 1.296875 0.25q0.484375 0.171875 0.734375 0.5q0.265625 0.328125 0.265625 0.703125q0 0.5 -0.4375 0.828125q-0.640625 0.5 -1.65625 0.5q-0.390625 0 -0.734375 -0.078125q-0.34375 -0.0625 -0.640625 -0.203125q-0.0625 0.0625 -0.140625 0.09375q-0.078125 0.03125 -0.15625 0.03125q-0.21875 0 -0.359375 -0.140625q-0.125 -0.15625 -0.125 -0.484375l0 -0.3125q0 -0.34375 0.125 -0.484375q0.140625 -0.140625 0.34375 -0.140625q0.171875 0 0.28125 0.09375q0.109375 0.09375 0.171875 0.3125q0.21875 0.1875 0.515625 0.28125q0.3125 0.09375 0.703125 0.09375q0.640625 0 1.0 -0.203125q0.15625 -0.09375 0.15625 -0.203125q0 -0.1875 -0.234375 -0.3125q-0.25 -0.109375 -1.0 -0.1875q-1.125 -0.125 -1.5 -0.46875q-0.375 -0.328125 -0.375 -0.8125q0 -0.5 0.421875 -0.828125q0.578125 -0.46875 1.5 -0.46875q0.328125 0 0.625 0.0625q0.296875 0.0625 0.5625 0.1875q0.09375 -0.0625 0.171875 -0.09375q0.078125 -0.03125 0.140625 -0.03125q0.1875 0 0.3125 0.15625q0.125 0.140625 0.125 0.46875l0 0.234375q0 0.296875 -0.0625 0.40625q-0.15625 0.21875 -0.40625 0.21875q-0.171875 0 -0.296875 -0.109375q-0.125 -0.109375 -0.15625 -0.28125z" fill-rule="nonzero"/><path fill="#000000" fill-opacity="0.0" d="m3.0239809 62.7021l77.480316 0l0 25.700787l-77.480316 0z" fill-rule="evenodd"/><path fill="#000000" d="m20.394587 81.48647l0 1.6875l0.484375 0q0.46875 0 0.671875 0.1875q0.21875 0.171875 0.21875 0.484375q0 0.28125 -0.21875 0.46875q-0.203125 0.1875 -0.671875 0.1875l-2.03125 0q-0.484375 0 -0.6875 -0.1875q-0.203125 -0.1875 -0.203125 -0.484375q0 -0.296875 0.203125 -0.46875q0.21875 -0.1875 0.6875 -0.1875l0.203125 0l0 -5.21875l-0.203125 0q-0.484375 0 -0.6875 -0.1875q-0.203125 -0.1875 -0.203125 -0.484375q0 -0.296875 0.203125 -0.484375q0.203125 -0.1875 0.6875 -0.1875l3.015625 0q1.421875 0 2.1875 0.703125q0.78125 0.703125 0.78125 1.703125q0 0.625 -0.359375 1.140625q-0.359375 0.5 -1.09375 0.90625q0.421875 0.359375 0.90625 0.9375q0.296875 0.375 0.796875 1.171875q0.515625 0 0.671875 0.09375q0.296875 0.203125 0.296875 0.578125q0 0.28125 -0.203125 0.46875q-0.203125 0.1875 -0.6875 0.1875l-0.765625 0q-1.609375 -2.5 -2.6875 -3.015625l-1.3125 0zm0 -1.328125l1.03125 0q0.59375 0 1.046875 -0.171875q0.609375 -0.234375 0.8125 -0.5q0.21875 -0.265625 0.21875 -0.515625q0 -0.375 -0.40625 -0.6875q-0.40625 -0.328125 -1.171875 -0.328125l-1.53125 0l0 2.203125zm12.716932 2.0625l-5.468748 0q0.203125 0.53125 0.734375 0.84375q0.53125 0.3125 1.4375 0.3125q0.75 0 1.96875 -0.3125q0.5156231 -0.125 0.7031231 -0.125q0.265625 0 0.453125 0.1875q0.1875 0.1875 0.1875 0.46875q0 0.265625 -0.203125 0.4375q-0.265625 0.25 -1.2812481 0.46875q-1.0 0.21875 -1.921875 0.21875q-1.609375 0 -2.578125 -0.90625q-0.953125 -0.90625 -0.953125 -2.234375q0 -1.40625 1.03125 -2.28125q1.046875 -0.875 2.40625 -0.875q0.8125 0 1.484375 0.28125q0.6875 0.28125 1.0156231 0.609375q0.46875 0.484375 0.78125 1.203125q0.203125 0.484375 0.203125 1.140625l0 0.5625zm-1.4687481 -1.328125q-0.3125 -0.578125 -0.8125 -0.859375q-0.484375 -0.28125 -1.171875 -0.28125q-0.671875 0 -1.171875 0.28125q-0.5 0.28125 -0.8125 0.859375l3.96875 0zm7.5919323 -1.90625l0 -0.390625l1.5625 0q0.484375 0 0.6875 0.1875q0.203125 0.1875 0.203125 0.484375q0 0.28125 -0.203125 0.46875q-0.203125 0.1875 -0.6875 0.1875l-0.234375 0l0 4.859375q0 0.703125 -0.296875 1.21875q-0.296875 0.53125 -0.90625 0.90625q-0.609375 0.375 -1.375 0.375l-1.515625 0q-0.484375 0 -0.6875 -0.1875q-0.203125 -0.171875 -0.203125 -0.46875q0 -0.296875 0.203125 -0.484375q0.203125 -0.1875 0.6875 -0.1875l1.46875 0q0.625 0 0.953125 -0.34375q0.34375 -0.328125 0.34375 -0.828125l0 -0.65625q-0.4375 0.296875 -0.90625 0.4375q-0.453125 0.140625 -0.9375 0.140625q-1.359375 0 -2.28125 -0.90625q-0.921875 -0.90625 -0.921875 -2.25q0 -1.328125 0.921875 -2.234375q0.921875 -0.921875 2.28125 -0.921875q0.5 0 0.953125 0.15625q0.46875 0.140625 0.890625 0.4375zm-0.015625 2.5625q0 -0.734375 -0.546875 -1.265625q-0.53125 -0.546875 -1.296875 -0.546875q-0.765625 0 -1.3125 0.546875q-0.53125 0.53125 -0.53125 1.265625q0 0.734375 0.53125 1.28125q0.546875 0.53125 1.3125 0.53125q0.765625 0 1.296875 -0.53125q0.546875 -0.546875 0.546875 -1.28125zm7.029434 -5.484375l0 1.40625l-1.59375 0l0 -1.40625l1.59375 0zm0.171875 2.53125l0 4.578125l1.609375 0q0.46875 0 0.671875 0.1875q0.21875 0.171875 0.21875 0.484375q0 0.28125 -0.21875 0.46875q-0.203125 0.1875 -0.671875 0.1875l-4.546875 0q-0.46875 0 -0.6875 -0.1875q-0.203125 -0.1875 -0.203125 -0.484375q0 -0.296875 0.203125 -0.46875q0.21875 -0.1875 0.6875 -0.1875l1.609375 0l0 -3.25l-1.078125 0q-0.46875 0 -0.6875 -0.1875q-0.203125 -0.1875 -0.203125 -0.484375q0 -0.28125 0.203125 -0.46875q0.203125 -0.1875 0.6875 -0.1875l2.40625 0zm10.810684 3.0625q0 0.765625 -0.4375 1.484375q-0.421875 0.71875 -1.265625 1.15625q-0.84375 0.421875 -1.75 0.421875q-0.921875 0 -1.75 -0.421875q-0.828125 -0.421875 -1.265625 -1.140625q-0.4375 -0.71875 -0.4375 -1.515625q0 -0.796875 0.4375 -1.5625q0.4375 -0.78125 1.265625 -1.21875q0.84375 -0.4375 1.75 -0.4375q0.90625 0 1.75 0.453125q0.84375 0.4375 1.265625 1.203125q0.4375 0.765625 0.4375 1.578125zm-1.34375 0q0 -0.640625 -0.453125 -1.171875q-0.640625 -0.734375 -1.65625 -0.734375q-0.90625 0 -1.515625 0.578125q-0.609375 0.578125 -0.609375 1.34375q0 0.625 0.609375 1.171875q0.625 0.53125 1.515625 0.53125q0.890625 0 1.5 -0.53125q0.609375 -0.546875 0.609375 -1.1875zm4.529434 -3.0625l0 0.453125q0.359375 -0.3125 0.796875 -0.46875q0.4375 -0.15625 0.953125 -0.15625q1.1875 0 1.875 0.734375q0.546875 0.578125 0.546875 1.53125l0 2.484375q0.421875 0 0.625 0.1875q0.203125 0.171875 0.203125 0.484375q0 0.28125 -0.203125 0.46875q-0.203125 0.1875 -0.6875 0.1875l-1.203125 0q-0.484375 0 -0.6875 -0.1875q-0.203125 -0.1875 -0.203125 -0.484375q0 -0.296875 0.1875 -0.46875q0.203125 -0.1875 0.640625 -0.1875l0 -2.53125q0 -0.421875 -0.234375 -0.625q-0.3125 -0.265625 -0.921875 -0.265625q-0.46875 0 -0.8125 0.1875q-0.34375 0.171875 -0.875 0.75l0 2.484375q0.5 0 0.65625 0.09375q0.3125 0.1875 0.3125 0.578125q0 0.28125 -0.203125 0.46875q-0.203125 0.1875 -0.6875 0.1875l-1.515625 0q-0.484375 0 -0.6875 -0.1875q-0.203125 -0.1875 -0.203125 -0.484375q0 -0.359375 0.3125 -0.5625q0.15625 -0.09375 0.671875 -0.09375l0 -3.25q-0.421875 0 -0.625 -0.1875q-0.203125 -0.1875 -0.203125 -0.484375q0 -0.28125 0.203125 -0.46875q0.203125 -0.1875 0.6875 -0.1875l1.28125 0z" fill-rule="nonzero"/><path fill="#cfe2f3" d="m10.154773 31.385826l0 0c0 -15.664013 12.204648 -28.362204 27.259842 -28.362204l0 0c7.229759 0 14.163406 2.9881525 19.27562 8.307098c5.112213 5.318944 7.984226 12.532983 7.984226 20.055107l0 0c0 15.664013 -12.204651 28.362206 -27.259846 28.362206l0 0c-15.055195 0 -27.259842 -12.698193 -27.259842 -28.362206z" fill-rule="evenodd"/><path stroke="#4e8aeb" stroke-width="3.0" stroke-linejoin="round" stroke-linecap="butt" d="m10.154773 31.385826l0 0c0 -15.664013 12.204648 -28.362204 27.259842 -28.362204l0 0c7.229759 0 14.163406 2.9881525 19.27562 8.307098c5.112213 5.318944 7.984226 12.532983 7.984226 20.055107l0 0c0 15.664013 -12.204651 28.362206 -27.259846 28.362206l0 0c-15.055195 0 -27.259842 -12.698193 -27.259842 -28.362206z" fill-rule="evenodd"/><path fill="#cfe2f3" d="m51.82297 40.8063c-0.27034378 1.3958893 -0.7309723 2.7559052 -1.5748062 4.0498695c-0.8438301 1.2939644 -1.951004 2.6828537 -3.488186 3.7139091c-1.5371857 1.0310593 -3.5979881 2.0227509 -5.734909 2.4724426c-2.136921 0.4496956 -4.949257 0.5441818 -7.0866165 0.22572327c-2.1373558 -0.31846237 -4.2646523 -1.1977272 -5.7375317 -2.136486c-1.4728775 -0.93875504 -2.3311462 -2.3468933 -3.0997372 -3.4960594c-0.7685909 -1.1491699 -1.147419 -2.1574821 -1.5118103 -3.3989525c-0.36439323 -1.2414703 -1.0494328 -3.0936127 -0.6745415 -4.0498695c0.37489128 -0.95625305 1.9304466 -1.2996483 2.9238853 -1.687664c0.9934368 -0.38801193 2.2869625 -1.0586166 3.036745 -0.640419c0.74978065 0.41819763 0.91819763 2.129486 1.4619427 3.1496048c0.54374313 1.0201225 0.9973736 2.1098022 1.8005257 2.9711304c0.80314636 0.8613281 1.9168854 1.7869644 3.0183716 2.1968498c1.1014862 0.4098854 2.466755 0.40813828 3.5905495 0.26246643c1.1237984 -0.14566803 2.3643913 -0.5236206 3.1522331 -1.1364822c0.787838 -0.61286163 1.3560791 -1.5870514 1.5748024 -2.54068c0.2187233 -0.95363235 0.21041107 -2.3521461 -0.26246643 -3.1811028c-0.4728775 -0.8289604 -1.4790039 -1.317585 -2.5748024 -1.7926521c-1.0958023 -0.47506714 -2.6128616 -0.61854935 -4.0 -1.0577431c-1.3871422 -0.43919373 -2.9781303 -0.9908142 -4.322838 -1.5774269c-1.3447056 -0.5866165 -2.6128597 -1.1102371 -3.7454052 -1.9422588c-1.1325455 -0.8320198 -2.3101482 -1.8482056 -3.0498695 -3.0498676c-0.7397194 -1.2016621 -1.2265968 -2.7038498 -1.3884506 -4.1601048c-0.1618557 -1.4562569 0.024059296 -3.1671047 0.41732216 -4.577429c0.39326286 -1.4103241 0.9483814 -2.7978992 1.9422569 -3.8845139c0.9938774 -1.0866146 2.5923023 -1.9978132 4.020998 -2.635171c1.4286957 -0.6373577 3.061243 -0.98818874 4.55118 -1.1889763c1.4899406 -0.20078754 3.0573082 -0.163167 4.3884544 -0.015748024c1.3311462 0.14741898 2.5223083 0.51443577 3.598423 0.90026283c1.0761147 0.3858261 1.9658813 0.83202076 2.8582687 1.4146976c0.8923874 0.58267784 1.7537193 1.2458448 2.4960632 2.0813656c0.7423439 0.8355198 1.4816284 1.9453182 1.958004 2.9317589c0.4763794 0.98643875 1.1627312 2.1889763 0.90026474 2.9868755c-0.26247025 0.79790115 -1.5376205 1.3048992 -2.4750671 1.8005257c-0.9374466 0.49562454 -2.2769012 1.4658794 -3.1496048 1.1732273c-0.87270355 -0.29265022 -1.3740158 -2.0214348 -2.0866165 -2.9291325c-0.7125969 -0.9076996 -1.3556442 -1.9098873 -2.1889763 -2.5170612c-0.83333206 -0.6071739 -1.7799644 -0.96500397 -2.8110237 -1.1259842c-1.0310593 -0.16098022 -2.4190712 -0.16666603 -3.375328 0.16010475c-0.95625305 0.3267727 -1.9125099 1.0691166 -2.3622055 1.8005257c-0.44969177 0.73140717 -0.50699615 1.8451443 -0.33595657 2.5879269c0.17103958 0.7427807 0.4251976 1.3250217 1.3622055 1.8687649c0.9370079 0.54374504 2.572178 0.8390217 4.259842 1.3937016c1.687664 0.5546799 4.2410316 1.265091 5.8661423 1.9343834c1.6251068 0.66929054 2.7624664 1.2099743 3.8845139 2.0813637c1.1220474 0.8713913 2.1776009 2.107174 2.8477707 3.146984c0.670166 1.0398064 0.9855614 1.8556404 1.1732254 3.0918617c0.18766403 1.2362213 0.22309875 2.929573 -0.04724121 4.3254585z" fill-rule="evenodd"/><path stroke="#4e8aeb" stroke-width="3.0" stroke-linejoin="round" stroke-linecap="butt" d="m51.82297 40.8063c-0.27034378 1.3958893 -0.7309723 2.7559052 -1.5748062 4.0498695c-0.8438301 1.2939644 -1.951004 2.6828537 -3.488186 3.7139091c-1.5371857 1.0310593 -3.5979881 2.0227509 -5.734909 2.4724426c-2.136921 0.4496956 -4.949257 0.5441818 -7.0866165 0.22572327c-2.1373558 -0.31846237 -4.2646523 -1.1977272 -5.7375317 -2.136486c-1.4728775 -0.93875504 -2.3311462 -2.3468933 -3.0997372 -3.4960594c-0.7685909 -1.1491699 -1.147419 -2.1574821 -1.5118103 -3.3989525c-0.36439323 -1.2414703 -1.0494328 -3.0936127 -0.6745415 -4.0498695c0.37489128 -0.95625305 1.9304466 -1.2996483 2.9238853 -1.687664c0.9934368 -0.38801193 2.2869625 -1.0586166 3.036745 -0.640419c0.74978065 0.41819763 0.91819763 2.129486 1.4619427 3.1496048c0.54374313 1.0201225 0.9973736 2.1098022 1.8005257 2.9711304c0.80314636 0.8613281 1.9168854 1.7869644 3.0183716 2.1968498c1.1014862 0.4098854 2.466755 0.40813828 3.5905495 0.26246643c1.1237984 -0.14566803 2.3643913 -0.5236206 3.1522331 -1.1364822c0.787838 -0.61286163 1.3560791 -1.5870514 1.5748024 -2.54068c0.2187233 -0.95363235 0.21041107 -2.3521461 -0.26246643 -3.1811028c-0.4728775 -0.8289604 -1.4790039 -1.317585 -2.5748024 -1.7926521c-1.0958023 -0.47506714 -2.6128616 -0.61854935 -4.0 -1.0577431c-1.3871422 -0.43919373 -2.9781303 -0.9908142 -4.322838 -1.5774269c-1.3447056 -0.5866165 -2.6128597 -1.1102371 -3.7454052 -1.9422588c-1.1325455 -0.8320198 -2.3101482 -1.8482056 -3.0498695 -3.0498676c-0.7397194 -1.2016621 -1.2265968 -2.7038498 -1.3884506 -4.1601048c-0.1618557 -1.4562569 0.024059296 -3.1671047 0.41732216 -4.577429c0.39326286 -1.4103241 0.9483814 -2.7978992 1.9422569 -3.8845139c0.9938774 -1.0866146 2.5923023 -1.9978132 4.020998 -2.635171c1.4286957 -0.6373577 3.061243 -0.98818874 4.55118 -1.1889763c1.4899406 -0.20078754 3.0573082 -0.163167 4.3884544 -0.015748024c1.3311462 0.14741898 2.5223083 0.51443577 3.598423 0.90026283c1.0761147 0.3858261 1.9658813 0.83202076 2.8582687 1.4146976c0.8923874 0.58267784 1.7537193 1.2458448 2.4960632 2.0813656c0.7423439 0.8355198 1.4816284 1.9453182 1.958004 2.9317589c0.4763794 0.98643875 1.1627312 2.1889763 0.90026474 2.9868755c-0.26247025 0.79790115 -1.5376205 1.3048992 -2.4750671 1.8005257c-0.9374466 0.49562454 -2.2769012 1.4658794 -3.1496048 1.1732273c-0.87270355 -0.29265022 -1.3740158 -2.0214348 -2.0866165 -2.9291325c-0.7125969 -0.9076996 -1.3556442 -1.9098873 -2.1889763 -2.5170612c-0.83333206 -0.6071739 -1.7799644 -0.96500397 -2.8110237 -1.1259842c-1.0310593 -0.16098022 -2.4190712 -0.16666603 -3.375328 0.16010475c-0.95625305 0.3267727 -1.9125099 1.0691166 -2.3622055 1.8005257c-0.44969177 0.73140717 -0.50699615 1.8451443 -0.33595657 2.5879269c0.17103958 0.7427807 0.4251976 1.3250217 1.3622055 1.8687649c0.9370079 0.54374504 2.572178 0.8390217 4.259842 1.3937016c1.687664 0.5546799 4.2410316 1.265091 5.8661423 1.9343834c1.6251068 0.66929054 2.7624664 1.2099743 3.8845139 2.0813637c1.1220474 0.8713913 2.1776009 2.107174 2.8477707 3.146984c0.670166 1.0398064 0.9855614 1.8556404 1.1732254 3.0918617c0.18766403 1.2362213 0.22309875 2.929573 -0.04724121 4.3254585z" fill-rule="evenodd"/><path fill="#d96248" d="m72.651886 63.63743c-0.21178436 -0.089229584 -0.5791702 -1.1040077 -1.0043335 -1.5255623c-0.42516327 -0.42155075 -0.73402405 -0.7229347 -1.5466309 -1.0037575c-0.81261444 -0.28082275 -1.8124008 0.102581024 -3.3290405 -0.68118286c-1.5166473 -0.7837639 -4.343586 -2.9601974 -5.770809 -4.021393c-1.427227 -1.0611954 -1.7532501 -1.3834877 -2.7925415 -2.3457756c-1.0392914 -0.9622879 -2.3829575 -2.2943459 -3.4432068 -3.4279556c-1.0602493 -1.133606 -1.9984741 -2.2662277 -2.9182892 -3.3736954c-0.91981506 -1.1074677 -1.8343239 -2.282196 -2.600605 -3.2711182c-0.76628494 -0.9889221 -2.0430794 -2.5779228 -1.997097 -2.6624184c0.045986176 -0.084495544 1.1171951 1.1735954 2.2729988 2.1554527c1.1558037 0.9818573 3.3282127 2.7091866 4.6618156 3.735695c1.3336029 1.0265083 2.5256004 1.8999901 3.339798 2.4233475c0.81419754 0.5233574 1.4321175 0.7319069 1.5453873 0.71678925c0.11327362 -0.015117645 -0.19923782 -0.039138794 -0.8657646 -0.80749893c-0.6665268 -0.76836395 -2.2031593 -2.6255417 -3.1333847 -3.8026695c-0.9302254 -1.1771278 -1.7406311 -2.2842445 -2.4479713 -3.2600975c-0.70734024 -0.97584915 -2.0856133 -2.7719193 -1.7960625 -2.5950203c0.2895546 0.17690277 2.3781357 2.5597687 3.5333862 3.6564293c1.1552505 1.0966606 2.390129 2.0849457 3.3981209 2.9235306c1.0079918 0.8385849 1.7876472 1.4530754 2.6498299 2.1079788c0.8621826 0.6548996 1.7796516 1.295742 2.5232544 1.8214302c0.74360275 0.5256882 0.9316063 0.6139984 1.9383545 1.332695c1.006752 0.7186966 3.128357 2.248848 4.10215 2.9794846c0.97380066 0.7306328 1.2436371 0.8270683 1.7406311 1.4043274c0.49700165 0.57725906 0.90644073 1.3190575 1.2413635 2.0592308c0.33491516 0.74017334 0.6072998 1.6365471 0.7681427 2.3818092c0.1608429 0.74525833 0.20848083 1.5764236 0.19689941 2.0897484c-0.011581421 0.51332474 -0.054603577 1.079422 -0.26639557 0.9901962z" fill-rule="evenodd"/><path stroke="#d96248" stroke-width="1.0" stroke-linejoin="round" stroke-linecap="butt" d="m72.651886 63.63743c-0.21178436 -0.089229584 -0.5791702 -1.1040077 -1.0043335 -1.5255623c-0.42516327 -0.42155075 -0.73402405 -0.7229347 -1.5466309 -1.0037575c-0.81261444 -0.28082275 -1.8124008 0.102581024 -3.3290405 -0.68118286c-1.5166473 -0.7837639 -4.343586 -2.9601974 -5.770809 -4.021393c-1.427227 -1.0611954 -1.7532501 -1.3834877 -2.7925415 -2.3457756c-1.0392914 -0.9622879 -2.3829575 -2.2943459 -3.4432068 -3.4279556c-1.0602493 -1.133606 -1.9984741 -2.2662277 -2.9182892 -3.3736954c-0.91981506 -1.1074677 -1.8343239 -2.282196 -2.600605 -3.2711182c-0.76628494 -0.9889221 -2.0430794 -2.5779228 -1.997097 -2.6624184c0.045986176 -0.084495544 1.1171951 1.1735954 2.2729988 2.1554527c1.1558037 0.9818573 3.3282127 2.7091866 4.6618156 3.735695c1.3336029 1.0265083 2.5256004 1.8999901 3.339798 2.4233475c0.81419754 0.5233574 1.4321175 0.7319069 1.5453873 0.71678925c0.11327362 -0.015117645 -0.19923782 -0.039138794 -0.8657646 -0.80749893c-0.6665268 -0.76836395 -2.2031593 -2.6255417 -3.1333847 -3.8026695c-0.9302254 -1.1771278 -1.7406311 -2.2842445 -2.4479713 -3.2600975c-0.70734024 -0.97584915 -2.0856133 -2.7719193 -1.7960625 -2.5950203c0.2895546 0.17690277 2.3781357 2.5597687 3.5333862 3.6564293c1.1552505 1.0966606 2.390129 2.0849457 3.3981209 2.9235306c1.0079918 0.8385849 1.7876472 1.4530754 2.6498299 2.1079788c0.8621826 0.6548996 1.7796516 1.295742 2.5232544 1.8214302c0.74360275 0.5256882 0.9316063 0.6139984 1.9383545 1.332695c1.006752 0.7186966 3.128357 2.248848 4.10215 2.9794846c0.97380066 0.7306328 1.2436371 0.8270683 1.7406311 1.4043274c0.49700165 0.57725906 0.90644073 1.3190575 1.2413635 2.0592308c0.33491516 0.74017334 0.6072998 1.6365471 0.7681427 2.3818092c0.1608429 0.74525833 0.20848083 1.5764236 0.19689941 2.0897484c-0.011581421 0.51332474 -0.054603577 1.079422 -0.26639557 0.9901962z" fill-rule="evenodd"/><path fill="#d96248" d="m44.581623 54.29817c-0.06838989 0.16122055 1.0667992 1.6122475 1.6413574 2.3131409c0.57455444 0.7008934 1.1629715 1.3034439 1.8059883 1.8922195c0.6430168 0.58877563 1.3817902 1.1567116 2.0521088 1.6404343c0.6703148 0.4837227 1.2483902 0.8739052 1.9697914 1.2619019c0.721405 0.38799667 1.6339798 0.77373123 2.3586235 1.0660706c0.7246437 0.29233932 1.2741737 0.5152321 1.9892349 0.6879654c0.7150612 0.1727333 1.5413895 0.304348 2.3011246 0.34843063c0.7597351 0.044086456 1.5881348 -0.029953003 2.2572784 -0.083927155c0.6691475 -0.05397415 1.2848625 -0.15895844 1.7575912 -0.23991776c0.47273254 -0.080963135 0.7082367 -0.124622345 1.0787964 -0.24585342c0.3705597 -0.12123108 0.7622833 -0.28916168 1.1445618 -0.48153305c0.38228607 -0.19237518 0.8070984 -0.5044937 1.1491165 -0.6727066c0.34201813 -0.16820908 0.5609741 -0.23136902 0.90299225 -0.3365631c0.34201813 -0.10519409 0.84571075 -0.17824173 1.1491165 -0.29460144c0.3034134 -0.116355896 0.9436035 -0.17817307 0.6713562 -0.40353775c-0.27225494 -0.22536469 -2.2613525 -0.46217346 -2.3048553 -0.9486542c-0.04349518 -0.4864769 1.5185089 -1.4655075 2.0438385 -1.9702148c0.5253372 -0.5047035 0.7937927 -0.75380707 1.1081619 -1.0580139c0.31437683 -0.30420685 0.57118225 -0.22550583 0.7780762 -0.767231c0.20689392 -0.54172516 0.38448334 -1.6554108 0.46328735 -2.4831161c0.07879639 -0.8277054 0.10637665 -1.604969 0.009513855 -2.4831161c-0.09686279 -0.8781471 -0.2919693 -1.8302612 -0.5906906 -2.7857666c-0.2987213 -0.9555092 -0.7370529 -2.0203056 -1.2016525 -2.9472694c-0.46459198 -0.9269676 -1.001442 -1.8036308 -1.5859222 -2.614521c-0.5844879 -0.8108902 -1.331604 -1.6337204 -1.9209824 -2.2508278c-0.58937836 -0.6171036 -1.0382614 -0.9785347 -1.6152992 -1.4518013c-0.5770378 -0.47327042 -1.6622467 -1.3386993 -1.8469391 -1.3877983c-0.18469238 -0.049102783 0.45149612 0.59555817 0.73877716 1.0931969c0.28727722 0.4976387 0.66721344 1.1793175 0.9848938 1.892643c0.31768417 0.7133293 0.6741066 1.5436478 0.9211998 2.3873177c0.24708557 0.8436737 0.45955658 1.8167 0.56131744 2.6747131c0.101760864 0.85801315 0.11161804 1.6557617 0.049224854 2.4733658c-0.06239319 0.81760406 -0.21999359 1.7577057 -0.42357635 2.4322472c-0.20358276 0.6745453 -0.41488647 0.9771271 -0.79792786 1.6150017c-0.38303757 0.6378746 -0.91505814 1.5281029 -1.5003014 2.2122536c-0.5852432 0.6841507 -1.3895836 1.4224167 -2.011158 1.892643c-0.6215782 0.4702301 -1.0923767 0.6879654 -1.718296 0.9287338c-0.62591934 0.24076462 -1.2155075 0.3973198 -2.03722 0.5158653c-0.8217087 0.11854553 -1.9183617 0.23991776 -2.893055 0.19541168c-0.9746933 -0.044509888 -2.1268425 -0.2855568 -2.955101 -0.46245956c-0.8282623 -0.17689896 -1.275692 -0.29756546 -2.0144691 -0.59894943c-0.73877716 -0.30138016 -1.6732063 -0.7834778 -2.4181862 -1.2093391c-0.7449837 -0.42586517 -1.9833069 -1.5070534 -2.0516968 -1.3458366z" fill-rule="evenodd"/><path stroke="#d96248" stroke-width="1.0" stroke-linejoin="round" stroke-linecap="butt" d="m44.581623 54.29817c-0.06838989 0.16122055 1.0667992 1.6122475 1.6413574 2.3131409c0.57455444 0.7008934 1.1629715 1.3034439 1.8059883 1.8922195c0.6430168 0.58877563 1.3817902 1.1567116 2.0521088 1.6404343c0.6703148 0.4837227 1.2483902 0.8739052 1.9697914 1.2619019c0.721405 0.38799667 1.6339798 0.77373123 2.3586235 1.0660706c0.7246437 0.29233932 1.2741737 0.5152321 1.9892349 0.6879654c0.7150612 0.1727333 1.5413895 0.304348 2.3011246 0.34843063c0.7597351 0.044086456 1.5881348 -0.029953003 2.2572784 -0.083927155c0.6691475 -0.05397415 1.2848625 -0.15895844 1.7575912 -0.23991776c0.47273254 -0.080963135 0.7082367 -0.124622345 1.0787964 -0.24585342c0.3705597 -0.12123108 0.7622833 -0.28916168 1.1445618 -0.48153305c0.38228607 -0.19237518 0.8070984 -0.5044937 1.1491165 -0.6727066c0.34201813 -0.16820908 0.5609741 -0.23136902 0.90299225 -0.3365631c0.34201813 -0.10519409 0.84571075 -0.17824173 1.1491165 -0.29460144c0.3034134 -0.116355896 0.9436035 -0.17817307 0.6713562 -0.40353775c-0.27225494 -0.22536469 -2.2613525 -0.46217346 -2.3048553 -0.9486542c-0.04349518 -0.4864769 1.5185089 -1.4655075 2.0438385 -1.9702148c0.5253372 -0.5047035 0.7937927 -0.75380707 1.1081619 -1.0580139c0.31437683 -0.30420685 0.57118225 -0.22550583 0.7780762 -0.767231c0.20689392 -0.54172516 0.38448334 -1.6554108 0.46328735 -2.4831161c0.07879639 -0.8277054 0.10637665 -1.604969 0.009513855 -2.4831161c-0.09686279 -0.8781471 -0.2919693 -1.8302612 -0.5906906 -2.7857666c-0.2987213 -0.9555092 -0.7370529 -2.0203056 -1.2016525 -2.9472694c-0.46459198 -0.9269676 -1.001442 -1.8036308 -1.5859222 -2.614521c-0.5844879 -0.8108902 -1.331604 -1.6337204 -1.9209824 -2.2508278c-0.58937836 -0.6171036 -1.0382614 -0.9785347 -1.6152992 -1.4518013c-0.5770378 -0.47327042 -1.6622467 -1.3386993 -1.8469391 -1.3877983c-0.18469238 -0.049102783 0.45149612 0.59555817 0.73877716 1.0931969c0.28727722 0.4976387 0.66721344 1.1793175 0.9848938 1.892643c0.31768417 0.7133293 0.6741066 1.5436478 0.9211998 2.3873177c0.24708557 0.8436737 0.45955658 1.8167 0.56131744 2.6747131c0.101760864 0.85801315 0.11161804 1.6557617 0.049224854 2.4733658c-0.06239319 0.81760406 -0.21999359 1.7577057 -0.42357635 2.4322472c-0.20358276 0.6745453 -0.41488647 0.9771271 -0.79792786 1.6150017c-0.38303757 0.6378746 -0.91505814 1.5281029 -1.5003014 2.2122536c-0.5852432 0.6841507 -1.3895836 1.4224167 -2.011158 1.892643c-0.6215782 0.4702301 -1.0923767 0.6879654 -1.718296 0.9287338c-0.62591934 0.24076462 -1.2155075 0.3973198 -2.03722 0.5158653c-0.8217087 0.11854553 -1.9183617 0.23991776 -2.893055 0.19541168c-0.9746933 -0.044509888 -2.1268425 -0.2855568 -2.955101 -0.46245956c-0.8282623 -0.17689896 -1.275692 -0.29756546 -2.0144691 -0.59894943c-0.73877716 -0.30138016 -1.6732063 -0.7834778 -2.4181862 -1.2093391c-0.7449837 -0.42586517 -1.9833069 -1.5070534 -2.0516968 -1.3458366z" fill-rule="evenodd"/></g></svg>