<svg version="1.1" viewBox="0.0 0.0 323.1496062992126 91.84251968503936" fill="none" stroke="none" stroke-linecap="square" stroke-miterlimit="10" xmlns:xlink="http://www.w3.org/1999/xlink" xmlns="http://www.w3.org/2000/svg"><clipPath id="p.0"><path d="m0 0l323.1496 0l0 91.84252l-323.1496 0l0 -91.84252z" clip-rule="nonzero"/></clipPath><g clip-path="url(#p.0)"><path fill="#000000" fill-opacity="0.0" d="m0 0l323.1496 0l0 91.84252l-323.1496 0z" fill-rule="evenodd"/><path fill="#000000" fill-opacity="0.0" d="m77.90476 31.387808l162.86615 0" fill-rule="evenodd"/><path stroke="#000000" stroke-width="3.0" stroke-linejoin="round" stroke-linecap="butt" d="m94.78959 31.387808l145.9813 0" fill-rule="evenodd"/><path fill="#000000" stroke="#000000" stroke-width="3.0" stroke-linecap="butt" d="m94.78959 31.387808l-7.1348343 -4.995861l-7.1348267 4.995861l7.1348267 4.995863z" fill-rule="evenodd"/><path fill="#cfe2f3" d="m23.385075 31.387808l0 0c0 -15.664012 12.204647 -28.362204 27.259842 -28.362204l0 0c7.229759 0 14.16341 2.9881523 19.275623 8.307097c5.1122055 5.318944 7.9842224 12.532983 7.9842224 20.055107l0 0c0 15.664015 -12.204651 28.362207 -27.259846 28.362207l0 0c-15.055195 0 -27.259842 -12.698193 -27.259842 -28.362207z" fill-rule="evenodd"/><path stroke="#4e8aeb" stroke-width="3.0" stroke-linejoin="round" stroke-linecap="butt" d="m23.385075 31.387808l0 0c0 -15.664012 12.204647 -28.362204 27.259842 -28.362204l0 0c7.229759 0 14.16341 2.9881523 19.275623 8.307097c5.1122055 5.318944 7.9842224 12.532983 7.9842224 20.055107l0 0c0 15.664015 -12.204651 28.362207 -27.259846 28.362207l0 0c-15.055195 0 -27.259842 -12.698193 -27.259842 -28.362207z" fill-rule="evenodd"/><path fill="#cfe2f3" d="m67.50552 40.165928l0 0c-3.8216896 8.244152 -12.474274 12.675976 -20.972729 10.742157c-8.498451 -1.933815 -14.653782 -9.735172 -14.91971 -18.90946c-0.26592827 -9.174288 5.4260426 -17.358437 13.796587 -19.837301c8.370544 -2.4788647 17.263622 1.3860502 21.555645 9.368044l-8.601131 5.1553555c-1.9510765 -4.07251 -6.150486 -6.1087646 -10.141628 -4.9175854c-3.991146 1.1911812 -6.7253723 5.2968216 -6.603195 9.915178c0.122177124 4.618355 3.068657 8.535984 7.1157837 9.461121c4.0471306 0.92513275 8.13155 -1.385292 9.86393 -5.5797157z" fill-rule="evenodd"/><path stroke="#4e8aeb" stroke-width="3.0" stroke-linejoin="round" stroke-linecap="butt" d="m67.50552 40.165928l0 0c-3.8216896 8.244152 -12.474274 12.675976 -20.972729 10.742157c-8.498451 -1.933815 -14.653782 -9.735172 -14.91971 -18.90946c-0.26592827 -9.174288 5.4260426 -17.358437 13.796587 -19.837301c8.370544 -2.4788647 17.263622 1.3860502 21.555645 9.368044l-8.601131 5.1553555c-1.9510765 -4.07251 -6.150486 -6.1087646 -10.141628 -4.9175854c-3.991146 1.1911812 -6.7253723 5.2968216 -6.603195 9.915178c0.122177124 4.618355 3.068657 8.535984 7.1157837 9.461121c4.0471306 0.92513275 8.13155 -1.385292 9.86393 -5.5797157z" fill-rule="evenodd"/><path fill="#000000" fill-opacity="0.0" d="m3.023622 63.11811l95.244095 0l0 25.70079l-95.244095 0z" fill-rule="evenodd"/><path fill="#000000" d="m29.276117 81.90248l0 1.6875l0.484375 0q0.46875 0 0.671875 0.1875q0.21875 0.171875 0.21875 0.484375q0 0.28125 -0.21875 0.46875q-0.203125 0.1875 -0.671875 0.1875l-2.03125 0q-0.484375 0 -0.6875 -0.1875q-0.203125 -0.1875 -0.203125 -0.484375q0 -0.296875 0.203125 -0.46875q0.21875 -0.1875 0.6875 -0.1875l0.203125 0l0 -5.21875l-0.203125 0q-0.484375 0 -0.6875 -0.1875q-0.203125 -0.1875 -0.203125 -0.484375q0 -0.296875 0.203125 -0.484375q0.203125 -0.1875 0.6875 -0.1875l3.015625 0q1.4218731 0 2.187498 0.703125q0.78125 0.703125 0.78125 1.703125q0 0.625 -0.359375 1.140625q-0.359375 0.5 -1.09375 0.90625q0.421875 0.359375 0.90625 0.9375q0.296875 0.375 0.796875 1.171875q0.515625 0 0.671875 0.09375q0.296875 0.203125 0.296875 0.578125q0 0.28125 -0.203125 0.46875q-0.203125 0.1875 -0.6875 0.1875l-0.765625 0q-1.6093731 -2.5 -2.687498 -3.015625l-1.3125 0zm0 -1.328125l1.03125 0q0.59375 0 1.046875 -0.171875q0.609375 -0.234375 0.8124981 -0.5q0.21875 -0.265625 0.21875 -0.515625q0 -0.375 -0.4062481 -0.6875q-0.40625 -0.328125 -1.171875 -0.328125l-1.53125 0l0 2.203125zm12.716932 2.0625l-5.46875 0q0.203125 0.53125 0.734375 0.84375q0.53125 0.3125 1.4375 0.3125q0.75 0 1.96875 -0.3125q0.515625 -0.125 0.703125 -0.125q0.265625 0 0.453125 0.1875q0.1875 0.1875 0.1875 0.46875q0 0.265625 -0.203125 0.4375q-0.265625 0.25 -1.28125 0.46875q-1.0 0.21875 -1.921875 0.21875q-1.609375 0 -2.578125 -0.90625q-0.953125 -0.90625 -0.953125 -2.234375q0 -1.40625 1.03125 -2.28125q1.046875 -0.875 2.40625 -0.875q0.8125 0 1.484375 0.28125q0.6875 0.28125 1.015625 0.609375q0.46875 0.484375 0.78125 1.203125q0.203125 0.484375 0.203125 1.140625l0 0.5625zm-1.46875 -1.328125q-0.3125 -0.578125 -0.8125 -0.859375q-0.484375 -0.28125 -1.171875 -0.28125q-0.671875 0 -1.171875 0.28125q-0.5 0.28125 -0.8125 0.859375l3.96875 0zm7.591934 -1.90625l0 -0.390625l1.5625 0q0.484375 0 0.6875 0.1875q0.203125 0.1875 0.203125 0.484375q0 0.28125 -0.203125 0.46875q-0.203125 0.1875 -0.6875 0.1875l-0.234375 0l0 4.859375q0 0.703125 -0.296875 1.21875q-0.296875 0.53125 -0.90625 0.90625q-0.609375 0.375 -1.375 0.375l-1.515625 0q-0.484375 0 -0.6875 -0.1875q-0.203125 -0.171875 -0.203125 -0.46875q0 -0.296875 0.203125 -0.484375q0.203125 -0.1875 0.6875 -0.1875l1.46875 0q0.625 0 0.953125 -0.34375q0.34375 -0.328125 0.34375 -0.828125l0 -0.65625q-0.4375 0.296875 -0.90625 0.4375q-0.453125 0.140625 -0.9375 0.140625q-1.359375 0 -2.28125 -0.90625q-0.921875 -0.90625 -0.921875 -2.25q0 -1.328125 0.921875 -2.234375q0.921875 -0.921875 2.28125 -0.921875q0.5 0 0.953125 0.15625q0.46875 0.140625 0.890625 0.4375zm-0.015625 2.5625q0 -0.734375 -0.546875 -1.265625q-0.53125 -0.546875 -1.296875 -0.546875q-0.765625 0 -1.3125 0.546875q-0.53125 0.53125 -0.53125 1.265625q0 0.734375 0.53125 1.28125q0.546875 0.53125 1.3125 0.53125q0.765625 0 1.296875 -0.53125q0.546875 -0.546875 0.546875 -1.28125zm7.029434 -5.484375l0 1.40625l-1.59375 0l0 -1.40625l1.59375 0zm0.171875 2.53125l0 4.578125l1.609375 0q0.46875 0 0.671875 0.1875q0.21875 0.171875 0.21875 0.484375q0 0.28125 -0.21875 0.46875q-0.203125 0.1875 -0.671875 0.1875l-4.546875 0q-0.46875 0 -0.6875 -0.1875q-0.203125 -0.1875 -0.203125 -0.484375q0 -0.296875 0.203125 -0.46875q0.21875 -0.1875 0.6875 -0.1875l1.609375 0l0 -3.25l-1.078125 0q-0.46875 0 -0.6875 -0.1875q-0.203125 -0.1875 -0.203125 -0.484375q0 -0.28125 0.203125 -0.46875q0.203125 -0.1875 0.6875 -0.1875l2.40625 0zm10.810684 3.0625q0 0.765625 -0.4375 1.484375q-0.421875 0.71875 -1.265625 1.15625q-0.84375 0.421875 -1.75 0.421875q-0.921875 0 -1.75 -0.421875q-0.828125 -0.421875 -1.265625 -1.140625q-0.4375 -0.71875 -0.4375 -1.515625q0 -0.796875 0.4375 -1.5625q0.4375 -0.78125 1.265625 -1.21875q0.84375 -0.4375 1.75 -0.4375q0.90625 0 1.75 0.453125q0.84375 0.4375 1.265625 1.203125q0.4375 0.765625 0.4375 1.578125zm-1.34375 0q0 -0.640625 -0.453125 -1.171875q-0.640625 -0.734375 -1.65625 -0.734375q-0.90625 0 -1.515625 0.578125q-0.609375 0.578125 -0.609375 1.34375q0 0.625 0.609375 1.171875q0.625 0.53125 1.515625 0.53125q0.890625 0 1.5 -0.53125q0.609375 -0.546875 0.609375 -1.1875zm4.529434 -3.0625l0 0.453125q0.359375 -0.3125 0.796875 -0.46875q0.4375 -0.15625 0.953125 -0.15625q1.1875 0 1.875 0.734375q0.546875 0.578125 0.546875 1.53125l0 2.484375q0.421875 0 0.625 0.1875q0.203125 0.171875 0.203125 0.484375q0 0.28125 -0.203125 0.46875q-0.203125 0.1875 -0.6875 0.1875l-1.203125 0q-0.484375 0 -0.6875 -0.1875q-0.203125 -0.1875 -0.203125 -0.484375q0 -0.296875 0.1875 -0.46875q0.203125 -0.1875 0.640625 -0.1875l0 -2.53125q0 -0.421875 -0.234375 -0.625q-0.3125 -0.265625 -0.921875 -0.265625q-0.46875 0 -0.8125 0.1875q-0.34375 0.171875 -0.875 0.75l0 2.484375q0.5 0 0.65625 0.09375q0.3125 0.1875 0.3125 0.578125q0 0.28125 -0.203125 0.46875q-0.203125 0.1875 -0.6875 0.1875l-1.515625 0q-0.484375 0 -0.6875 -0.1875q-0.203125 -0.1875 -0.203125 -0.484375q0 -0.359375 0.3125 -0.5625q0.15625 -0.09375 0.671875 -0.09375l0 -3.25q-0.421875 0 -0.625 -0.1875q-0.203125 -0.1875 -0.203125 -0.484375q0 -0.28125 0.203125 -0.46875q0.203125 -0.1875 0.6875 -0.1875l1.28125 0z" fill-rule="nonzero"/><path fill="#ebe3fd" d="m60.84308 38.90487l0 23.653542l21.937012 0l-10.753281 -11.611546l10.753281 -12.041996z" fill-rule="evenodd"/><path stroke="#8b6bda" stroke-width="3.0" stroke-linejoin="round" stroke-linecap="butt" d="m60.84308 38.90487l0 23.653542l21.937012 0l-10.753281 -11.611546l10.753281 -12.041996z" fill-rule="evenodd"/><path fill="#000000" fill-opacity="0.0" d="m240.7559 13.607631l79.37007 0l0 35.559055l-79.37007 0z" fill-rule="evenodd"/><path stroke="#000000" stroke-width="3.0" stroke-linejoin="round" stroke-linecap="butt" d="m240.7559 13.607631l79.37007 0l0 35.559055l-79.37007 0z" fill-rule="evenodd"/><path fill="#000000" d="m253.72855 34.079506l0 -5.218752l-0.21875 0q-0.484375 0 -0.6875 -0.1875q-0.203125 -0.1875 -0.203125 -0.484375q0 -0.296875 0.203125 -0.484375q0.203125 -0.1875 0.6875 -0.1875l3.34375 0q1.203125 0 1.921875 0.671875q0.734375 0.65625 0.734375 1.578125q0 0.4375 -0.171875 0.828125q-0.15625 0.375 -0.5 0.703125q0.625 0.375 0.9375 0.8750019q0.3125 0.5 0.3125 1.140625q0 0.515625 -0.21875 0.953125q-0.171875 0.328125 -0.421875 0.515625q-0.328125 0.28125 -0.8125 0.453125q-0.484375 0.171875 -1.203125 0.171875l-3.921875 0q-0.484375 0 -0.6875 -0.1875q-0.203125 -0.1875 -0.203125 -0.484375q0 -0.296875 0.203125 -0.46875q0.21875 -0.1875 0.6875 -0.1875l0.21875 0zm1.328125 -3.281252l1.46875 0q0.78125 0 1.296875 -0.40625q0.359375 -0.265625 0.359375 -0.65625q0 -0.359375 -0.34375 -0.609375q-0.328125 -0.265625 -1.046875 -0.265625l-1.734375 0l0 1.9375zm0 3.281252l2.296875 0q0.828125 0 1.15625 -0.25q0.25 -0.171875 0.25 -0.515625q0 -0.40625 -0.5 -0.796875q-0.5 -0.390625 -1.4375 -0.390625l-1.765625 0l0 1.953125zm12.857574 -1.515625q0 0.765625 -0.4375 1.484375q-0.421875 0.71875 -1.265625 1.15625q-0.84375 0.421875 -1.75 0.421875q-0.921875 0 -1.75 -0.421875q-0.828125 -0.421875 -1.265625 -1.140625q-0.4375 -0.71875 -0.4375 -1.515625q0 -0.7968769 0.4375 -1.5625019q0.4375 -0.78125 1.265625 -1.21875q0.84375 -0.4375 1.75 -0.4375q0.90625 0 1.75 0.453125q0.84375 0.4375 1.265625 1.203125q0.4375 0.765625 0.4375 1.5781269zm-1.34375 0q0 -0.6406269 -0.453125 -1.1718769q-0.640625 -0.734375 -1.65625 -0.734375q-0.90625 0 -1.515625 0.578125q-0.609375 0.578125 -0.609375 1.3437519q0 0.625 0.609375 1.171875q0.625 0.53125 1.515625 0.53125q0.890625 0 1.5 -0.53125q0.609375 -0.546875 0.609375 -1.1875zm9.341919 0q0 0.765625 -0.4375 1.484375q-0.421875 0.71875 -1.265625 1.15625q-0.84375 0.421875 -1.75 0.421875q-0.921875 0 -1.75 -0.421875q-0.828125 -0.421875 -1.265625 -1.140625q-0.4375 -0.71875 -0.4375 -1.515625q0 -0.7968769 0.4375 -1.5625019q0.4375 -0.78125 1.265625 -1.21875q0.84375 -0.4375 1.75 -0.4375q0.90625 0 1.75 0.453125q0.84375 0.4375 1.265625 1.203125q0.4375 0.765625 0.4375 1.5781269zm-1.34375 0q0 -0.6406269 -0.453125 -1.1718769q-0.640625 -0.734375 -1.65625 -0.734375q-0.90625 0 -1.515625 0.578125q-0.609375 0.578125 -0.609375 1.3437519q0 0.625 0.609375 1.171875q0.625 0.53125 1.515625 0.53125q0.890625 0 1.5 -0.53125q0.609375 -0.546875 0.609375 -1.1875zm6.5450745 -5.593752l0 7.109377l1.59375 0q0.484375 0 0.6875 0.1875q0.203125 0.171875 0.203125 0.484375q0 0.28125 -0.203125 0.46875q-0.203125 0.1875 -0.6875 0.1875l-4.53125 0q-0.484375 0 -0.6875 -0.1875q-0.203125 -0.1875 -0.203125 -0.484375q0 -0.296875 0.203125 -0.46875q0.203125 -0.1875 0.6875 -0.1875l1.59375 0l0 -5.781252l-1.0625 0q-0.484375 0 -0.703125 -0.1875q-0.203125 -0.1875 -0.203125 -0.484375q0 -0.28125 0.203125 -0.46875q0.21875 -0.1875 0.703125 -0.1875l2.40625 0zm10.670044 6.156252l-5.46875 0q0.203125 0.53125 0.734375 0.84375q0.53125 0.3125 1.4375 0.3125q0.75 0 1.96875 -0.3125q0.515625 -0.125 0.703125 -0.125q0.265625 0 0.453125 0.1875q0.1875 0.1875 0.1875 0.46875q0 0.265625 -0.203125 0.4375q-0.265625 0.25 -1.28125 0.46875q-1.0 0.21875 -1.921875 0.21875q-1.609375 0 -2.578125 -0.90625q-0.953125 -0.90625 -0.953125 -2.234375q0 -1.4062519 1.03125 -2.281252q1.046875 -0.875 2.40625 -0.875q0.8125 0 1.484375 0.28125q0.6875 0.28125 1.015625 0.609375q0.46875 0.484375 0.78125 1.203125q0.203125 0.484375 0.203125 1.1406269l0 0.5625zm-1.46875 -1.3281269q-0.3125 -0.578125 -0.8125 -0.859375q-0.484375 -0.28125 -1.171875 -0.28125q-0.671875 0 -1.171875 0.28125q-0.5 0.28125 -0.8125 0.859375l3.96875 0zm7.3263245 3.609377l0 -0.3125q-0.5 0.265625 -1.109375 0.390625q-0.609375 0.140625 -1.09375 0.140625q-1.078125 0 -1.75 -0.5625q-0.671875 -0.578125 -0.671875 -1.265625q0 -0.84375 0.859375 -1.5625q0.859375 -0.7187519 2.359375 -0.7187519q0.609375 0 1.40625 0.140625l0 -0.328125q0 -0.296875 -0.265625 -0.484375q-0.25 -0.1875 -0.96875 -0.1875q-0.59375 0 -1.546875 0.234375q-0.34375 0.078125 -0.546875 0.078125q-0.265625 0 -0.453125 -0.1875q-0.171875 -0.1875 -0.171875 -0.484375q0 -0.171875 0.0625 -0.296875q0.0625 -0.125 0.171875 -0.203125q0.125 -0.078125 0.5 -0.171875q0.484375 -0.140625 1.0 -0.21875q0.515625 -0.078125 0.9375 -0.078125q1.234375 0 1.921875 0.53125q0.6875 0.53125 0.6875 1.46875l0 2.750002l0.234375 0q0.484375 0 0.6875 0.1875q0.203125 0.171875 0.203125 0.484375q0 0.28125 -0.203125 0.46875q-0.203125 0.1875 -0.6875 0.1875l-1.5625 0zm0 -2.390625q-0.796875 -0.15625 -1.484375 -0.15625q-0.8125 0 -1.390625 0.40625q-0.375 0.25 -0.375 0.5q0 0.203125 0.1875 0.3125q0.3125 0.21875 0.890625 0.21875q0.46875 0 1.078125 -0.1875q0.609375 -0.1875 1.09375 -0.515625l0 -0.578125zm5.451294 -3.515627l0 0.453125q0.359375 -0.3125 0.796875 -0.46875q0.4375 -0.15625 0.953125 -0.15625q1.1875 0 1.875 0.734375q0.546875 0.578125 0.546875 1.53125l0 2.484377q0.421875 0 0.625 0.1875q0.203125 0.171875 0.203125 0.484375q0 0.28125 -0.203125 0.46875q-0.203125 0.1875 -0.6875 0.1875l-1.203125 0q-0.484375 0 -0.6875 -0.1875q-0.203125 -0.1875 -0.203125 -0.484375q0 -0.296875 0.1875 -0.46875q0.203125 -0.1875 0.640625 -0.1875l0 -2.531252q0 -0.421875 -0.234375 -0.625q-0.3125 -0.265625 -0.921875 -0.265625q-0.46875 0 -0.8125 0.1875q-0.34375 0.171875 -0.875 0.75l0 2.484377q0.5 0 0.65625 0.09375q0.3125 0.1875 0.3125 0.578125q0 0.28125 -0.203125 0.46875q-0.203125 0.1875 -0.6875 0.1875l-1.515625 0q-0.484375 0 -0.6875 -0.1875q-0.203125 -0.1875 -0.203125 -0.484375q0 -0.359375 0.3125 -0.5625q0.15625 -0.09375 0.671875 -0.09375l0 -3.250002q-0.421875 0 -0.625 -0.1875q-0.203125 -0.1875 -0.203125 -0.484375q0 -0.28125 0.203125 -0.46875q0.203125 -0.1875 0.6875 -0.1875l1.28125 0z" fill-rule="nonzero"/><path fill="#000000" fill-opacity="0.0" d="m95.42992 12.426509l43.18109 0l0 18.960629l-43.18109 0z" fill-rule="evenodd"/><path fill="#000000" d="m102.07054 24.386509l0 -0.21875q-0.359375 0.1875 -0.78125 0.28125q-0.421875 0.09375 -0.765625 0.09375q-0.75 0 -1.21875 -0.390625q-0.46875 -0.40625 -0.46875 -0.890625q0 -0.59375 0.59375 -1.09375q0.609375 -0.5 1.65625 -0.5q0.421875 0 0.984375 0.09375l0 -0.21875q0 -0.21875 -0.1875 -0.34375q-0.171875 -0.140625 -0.671875 -0.140625q-0.421875 0 -1.078125 0.171875q-0.25 0.046875 -0.390625 0.046875q-0.1875 0 -0.3125 -0.125q-0.125 -0.140625 -0.125 -0.34375q0 -0.125 0.046875 -0.203125q0.046875 -0.09375 0.125 -0.140625q0.078125 -0.046875 0.34375 -0.125q0.34375 -0.09375 0.703125 -0.15625q0.359375 -0.0625 0.640625 -0.0625q0.875 0 1.359375 0.390625q0.484375 0.375 0.484375 1.015625l0 1.921875l0.15625 0q0.328125 0 0.46875 0.140625q0.15625 0.125 0.15625 0.328125q0 0.203125 -0.15625 0.34375q-0.140625 0.125 -0.46875 0.125l-1.09375 0zm0 -1.671875q-0.5625 -0.109375 -1.03125 -0.109375q-0.578125 0 -0.984375 0.28125q-0.25 0.171875 -0.25 0.359375q0 0.125 0.125 0.21875q0.21875 0.140625 0.625 0.140625q0.328125 0 0.75 -0.125q0.4375 -0.140625 0.765625 -0.359375l0 -0.40625zm6.2071686 -2.296875q0.171875 -0.15625 0.34375 -0.15625q0.203125 0 0.328125 0.140625q0.140625 0.140625 0.140625 0.484375l0 0.59375q0 0.34375 -0.140625 0.484375q-0.125 0.140625 -0.328125 0.140625q-0.1875 0 -0.328125 -0.109375q-0.09375 -0.09375 -0.15625 -0.34375q-0.046875 -0.25 -0.25 -0.375q-0.375 -0.21875 -0.953125 -0.21875q-0.65625 0 -1.0625 0.390625q-0.390625 0.390625 -0.390625 0.984375q0 0.546875 0.375 0.859375q0.390625 0.3125 1.28125 0.3125q0.578125 0 0.953125 -0.109375q0.21875 -0.078125 0.40625 -0.25q0.203125 -0.1875 0.359375 -0.1875q0.1875 0 0.328125 0.15625q0.140625 0.140625 0.140625 0.328125q0 0.3125 -0.421875 0.578125q-0.625 0.421875 -1.84375 0.421875q-1.09375 0 -1.6875 -0.453125q-0.828125 -0.609375 -0.828125 -1.65625q0 -1.0 0.65625 -1.65625q0.671875 -0.65625 1.75 -0.65625q0.390625 0 0.71875 0.078125q0.328125 0.078125 0.609375 0.21875zm3.9102936 0.765625l0 1.875q0 0.296875 0.125 0.390625q0.203125 0.15625 0.6875 0.15625q0.71875 0 1.328125 -0.3125q0.21875 -0.109375 0.359375 -0.109375q0.1875 0 0.3125 0.140625q0.140625 0.125 0.140625 0.328125q0 0.171875 -0.15625 0.3125q-0.21875 0.21875 -0.875 0.40625q-0.65625 0.171875 -1.109375 0.171875q-0.875 0 -1.3125 -0.375q-0.421875 -0.375 -0.421875 -0.921875l0 -2.0625l-0.34375 0q-0.328125 0 -0.484375 -0.125q-0.140625 -0.140625 -0.140625 -0.34375q0 -0.203125 0.140625 -0.328125q0.15625 -0.140625 0.484375 -0.140625l0.34375 0l0 -0.84375q0 -0.328125 0.125 -0.46875q0.125 -0.15625 0.34375 -0.15625q0.203125 0 0.328125 0.15625q0.125 0.140625 0.125 0.46875l0 0.84375l1.734375 0q0.328125 0 0.46875 0.140625q0.15625 0.125 0.15625 0.328125q0 0.203125 -0.15625 0.34375q-0.140625 0.125 -0.46875 0.125l-1.734375 0zm6.1759186 -2.703125l0 0.984375l-1.125 0l0 -0.984375l1.125 0zm0.125 1.765625l0 3.203125l1.109375 0q0.34375 0 0.484375 0.140625q0.140625 0.125 0.140625 0.328125q0 0.203125 -0.140625 0.34375q-0.140625 0.125 -0.484375 0.125l-3.171875 0q-0.328125 0 -0.484375 -0.125q-0.140625 -0.140625 -0.140625 -0.34375q0 -0.203125 0.140625 -0.328125q0.15625 -0.140625 0.484375 -0.140625l1.125 0l0 -2.265625l-0.75 0q-0.328125 0 -0.484375 -0.125q-0.140625 -0.140625 -0.140625 -0.34375q0 -0.203125 0.140625 -0.328125q0.140625 -0.140625 0.484375 -0.140625l1.6875 0zm5.1446686 3.0l1.0 -2.0625q-0.375 0 -0.484375 -0.0625q-0.21875 -0.140625 -0.21875 -0.40625q0 -0.203125 0.140625 -0.328125q0.140625 -0.140625 0.484375 -0.140625l1.28125 0q0.328125 0 0.46875 0.140625q0.15625 0.125 0.15625 0.328125q0 0.203125 -0.15625 0.34375q-0.140625 0.125 -0.46875 0.125l-0.15625 0l-1.5625 3.203125l-0.984375 0l-1.5625 -3.203125l-0.125 0q-0.34375 0 -0.484375 -0.125q-0.140625 -0.140625 -0.140625 -0.34375q0 -0.203125 0.140625 -0.328125q0.140625 -0.140625 0.484375 -0.140625l1.25 0q0.328125 0 0.46875 0.140625q0.15625 0.125 0.15625 0.328125q0 0.265625 -0.21875 0.40625q-0.109375 0.0625 -0.484375 0.0625l1.015625 2.0625zm7.9259186 -0.453125l-3.828125 0q0.140625 0.359375 0.515625 0.59375q0.375 0.21875 1.0 0.21875q0.53125 0 1.390625 -0.21875q0.34375 -0.09375 0.484375 -0.09375q0.1875 0 0.3125 0.140625q0.125 0.125 0.125 0.3125q0 0.1875 -0.125 0.3125q-0.1875 0.171875 -0.890625 0.328125q-0.703125 0.15625 -1.359375 0.15625q-1.125 0 -1.796875 -0.625q-0.671875 -0.640625 -0.671875 -1.578125q0 -0.984375 0.71875 -1.59375q0.734375 -0.625 1.6875 -0.625q0.5625 0 1.03125 0.203125q0.484375 0.203125 0.71875 0.4375q0.328125 0.34375 0.546875 0.828125q0.140625 0.34375 0.140625 0.8125l0 0.390625zm-1.03125 -0.9375q-0.21875 -0.390625 -0.5625 -0.59375q-0.34375 -0.203125 -0.828125 -0.203125q-0.46875 0 -0.8125 0.203125q-0.34375 0.203125 -0.5625 0.59375l2.765625 0z" fill-rule="nonzero"/></g></svg>