<svg version="1.1" viewBox="0.0 0.0 323.1496062992126 104.69291338582677" fill="none" stroke="none" stroke-linecap="square" stroke-miterlimit="10" xmlns:xlink="http://www.w3.org/1999/xlink" xmlns="http://www.w3.org/2000/svg"><clipPath id="p.0"><path d="m0 0l323.1496 0l0 104.69292l-323.1496 0l0 -104.69292z" clip-rule="nonzero"/></clipPath><g clip-path="url(#p.0)"><path fill="#000000" fill-opacity="0.0" d="m0 0l323.1496 0l0 104.69292l-323.1496 0z" fill-rule="evenodd"/><path fill="#000000" fill-opacity="0.0" d="m232.44095 31.370403l-157.73228 0" fill-rule="evenodd"/><path stroke="#ffffff" stroke-width="3.0" stroke-linejoin="round" stroke-linecap="butt" d="m232.44095 31.370401l-140.84746 0" fill-rule="evenodd"/><path fill="#ffffff" stroke="#ffffff" stroke-width="3.0" stroke-linecap="butt" d="m91.59349 31.370401l-7.1348267 -4.995861l-7.1348343 4.995861l7.1348343 4.995863z" fill-rule="evenodd"/><path fill="#000000" fill-opacity="0.0" d="m232.44095 13.590875l84.50394 0l0 35.559055l-84.50394 0z" fill-rule="evenodd"/><path stroke="#ffffff" stroke-width="3.0" stroke-linejoin="round" stroke-linecap="butt" d="m232.44095 13.590875l84.50394 0l0 35.559055l-84.50394 0z" fill-rule="evenodd"/><path fill="#ffffff" d="m265.7434 28.844l0 3.781248q0 1.234375 -0.890625 2.09375q-0.890625 0.859375 -2.140625 0.859375q-0.609375 0 -1.15625 -0.203125q-0.546875 -0.21875 -0.984375 -0.640625q-0.421875 -0.4375 -0.671875 -0.890625q-0.234375 -0.453125 -0.234375 -1.21875l0 -3.781248q-0.421875 0 -0.625 -0.1875q-0.203125 -0.203125 -0.203125 -0.484375q0 -0.296875 0.203125 -0.484375q0.203125 -0.1875 0.6875 -0.1875l1.75 0q0.484375 0 0.6875 0.1875q0.203125 0.1875 0.203125 0.484375q0 0.296875 -0.203125 0.484375q-0.203125 0.1875 -0.6875 0.1875l-0.484375 0l0 3.890623q0 0.59375 0.5 1.0625q0.5 0.453125 1.203125 0.453125q0.46875 0 0.875 -0.21875q0.421875 -0.21875 0.671875 -0.640625q0.171875 -0.265625 0.171875 -0.65625l0 -3.890623l-0.484375 0q-0.484375 0 -0.6875 -0.1875q-0.203125 -0.1875 -0.203125 -0.484375q0 -0.296875 0.203125 -0.484375q0.203125 -0.1875 0.6875 -0.1875l1.75 0q0.484375 0 0.6875 0.1875q0.203125 0.1875 0.203125 0.484375q0 0.28125 -0.203125 0.484375q-0.203125 0.1875 -0.625 0.1875zm7.9981995 0l0 3.781248q0 1.234375 -0.890625 2.09375q-0.890625 0.859375 -2.140625 0.859375q-0.609375 0 -1.15625 -0.203125q-0.546875 -0.21875 -0.984375 -0.640625q-0.421875 -0.4375 -0.671875 -0.890625q-0.234375 -0.453125 -0.234375 -1.21875l0 -3.781248q-0.421875 0 -0.625 -0.1875q-0.203125 -0.203125 -0.203125 -0.484375q0 -0.296875 0.203125 -0.484375q0.203125 -0.1875 0.6875 -0.1875l1.75 0q0.484375 0 0.6875 0.1875q0.203125 0.1875 0.203125 0.484375q0 0.296875 -0.203125 0.484375q-0.203125 0.1875 -0.6875 0.1875l-0.484375 0l0 3.890623q0 0.59375 0.5 1.0625q0.5 0.453125 1.203125 0.453125q0.46875 0 0.875 -0.21875q0.421875 -0.21875 0.671875 -0.640625q0.171875 -0.265625 0.171875 -0.65625l0 -3.890623l-0.484375 0q-0.484375 0 -0.6875 -0.1875q-0.203125 -0.1875 -0.203125 -0.484375q0 -0.296875 0.203125 -0.484375q0.203125 -0.1875 0.6875 -0.1875l1.75 0q0.484375 0 0.6875 0.1875q0.203125 0.1875 0.203125 0.484375q0 0.28125 -0.203125 0.484375q-0.203125 0.1875 -0.625 0.1875zm5.623169 0l0 5.218748l1.34375 0q0.484375 0 0.6875 0.1875q0.203125 0.171875 0.203125 0.484375q0 0.28125 -0.203125 0.46875q-0.203125 0.1875 -0.6875 0.1875l-4.03125 0q-0.484375 0 -0.6875 -0.1875q-0.203125 -0.1875 -0.203125 -0.484375q0 -0.296875 0.203125 -0.46875q0.203125 -0.1875 0.6875 -0.1875l1.34375 0l0 -5.218748l-1.34375 0q-0.484375 0 -0.6875 -0.1875q-0.203125 -0.1875 -0.203125 -0.484375q0 -0.296875 0.203125 -0.484375q0.203125 -0.1875 0.6875 -0.1875l4.03125 0q0.484375 0 0.6875 0.1875q0.203125 0.1875 0.203125 0.484375q0 0.296875 -0.203125 0.484375q-0.203125 0.1875 -0.6875 0.1875l-1.34375 0zm4.3419495 5.218748l0 -5.218748q-0.421875 -0.015625 -0.625 -0.203125q-0.203125 -0.1875 -0.203125 -0.46875q0 -0.296875 0.203125 -0.484375q0.203125 -0.1875 0.6875 -0.1875l2.796875 0q0.640625 0 1.265625 0.25q0.625 0.234375 1.0 0.609375q0.296875 0.28125 0.59375 0.765625q0.3125 0.484375 0.46875 0.96875q0.15625 0.484375 0.15625 1.171875l0 0.640625q0 0.8437481 -0.296875 1.4999981q-0.28125 0.65625 -0.75 1.078125q-0.453125 0.40625 -0.859375 0.59375q-0.65625 0.3125 -1.6875 0.3125l-2.6875 0q-0.484375 0 -0.6875 -0.1875q-0.203125 -0.1875 -0.203125 -0.484375q0 -0.296875 0.203125 -0.484375q0.203125 -0.1875 0.625 -0.171875zm1.328125 0l1.421875 0q0.796875 0 1.203125 -0.234375q0.53125 -0.296875 0.796875 -0.75q0.265625 -0.46875 0.265625 -1.2031231l0 -0.640625q0 -0.625 -0.25 -1.109375q-0.375 -0.734375 -0.84375 -1.0q-0.46875 -0.28125 -1.1875 -0.28125l-1.40625 0l0 5.218748z" fill-rule="nonzero"/><path fill="#000000" fill-opacity="0.0" d="m3.023622 62.70341l96.97638 0l0 41.858265l-96.97638 0z" fill-rule="evenodd"/><path fill="#ffffff" d="m25.424417 79.19091l0 3.984375l0.484375 0q0.484375 0 0.6875 0.1875q0.203125 0.171875 0.203125 0.484375q0 0.28125 -0.203125 0.46875q-0.203125 0.1875 -0.6875 0.1875l-1.75 0q-0.484375 0 -0.6875 -0.1875q-0.203125 -0.1875 -0.203125 -0.484375q0 -0.296875 0.203125 -0.46875q0.203125 -0.1875 0.625 -0.1875l0 -5.21875q-0.34375 -0.046875 -0.53125 -0.21875q-0.171875 -0.1875 -0.171875 -0.453125q0 -0.296875 0.203125 -0.484375q0.203125 -0.1875 0.6875 -0.1875l1.453125 0l1.828125 4.015625l1.78125 -4.015625l1.46875 0q0.484375 0 0.6875 0.1875q0.203125 0.1875 0.203125 0.484375q0 0.265625 -0.1875 0.453125q-0.171875 0.171875 -0.515625 0.21875l0 5.21875q0.421875 0 0.625 0.1875q0.203125 0.1875 0.203125 0.484375q0 0.28125 -0.203125 0.46875q-0.203125 0.1875 -0.6875 0.1875l-1.765625 0q-0.46875 0 -0.671875 -0.1875q-0.203125 -0.1875 -0.203125 -0.484375q0 -0.296875 0.203125 -0.46875q0.203125 -0.1875 0.671875 -0.1875l0.5 0l0 -3.984375l-1.53125 3.4375l-1.15625 0l-1.5625 -3.4375zm13.435682 3.03125l-5.46875 0q0.203125 0.53125 0.734375 0.84375q0.53125 0.3125 1.4375 0.3125q0.75 0 1.96875 -0.3125q0.515625 -0.125 0.703125 -0.125q0.265625 0 0.453125 0.1875q0.1875 0.1875 0.1875 0.46875q0 0.265625 -0.203125 0.4375q-0.265625 0.25 -1.28125 0.46875q-1.0 0.21875 -1.921875 0.21875q-1.609375 0 -2.578125 -0.90625q-0.9531231 -0.90625 -0.9531231 -2.234375q0 -1.40625 1.0312481 -2.28125q1.046875 -0.875 2.40625 -0.875q0.8125 0 1.484375 0.28125q0.6875 0.28125 1.015625 0.609375q0.46875 0.484375 0.78125 1.203125q0.203125 0.484375 0.203125 1.140625l0 0.5625zm-1.46875 -1.328125q-0.3125 -0.578125 -0.8125 -0.859375q-0.484375 -0.28125 -1.171875 -0.28125q-0.671875 0 -1.171875 0.28125q-0.5 0.28125 -0.8125 0.859375l3.96875 0zm7.560684 -0.734375q-0.328125 -0.203125 -0.6875 -0.296875q-0.34375 -0.109375 -0.734375 -0.109375q-0.78125 0 -1.234375 0.25q-0.203125 0.109375 -0.203125 0.25q0 0.140625 0.265625 0.28125q0.21875 0.109375 0.9375 0.203125q1.328125 0.1875 1.84375 0.375q0.6875 0.234375 1.046875 0.71875q0.375 0.46875 0.375 1.0q0 0.703125 -0.625 1.1875q-0.90625 0.703125 -2.34375 0.703125q-0.578125 0 -1.078125 -0.109375q-0.484375 -0.09375 -0.890625 -0.296875q-0.109375 0.09375 -0.21875 0.140625q-0.109375 0.046875 -0.21875 0.046875q-0.3125 0 -0.5 -0.203125q-0.1875 -0.21875 -0.1875 -0.6875l0 -0.453125q0 -0.484375 0.1875 -0.6875q0.1875 -0.203125 0.484375 -0.203125q0.234375 0 0.390625 0.140625q0.171875 0.125 0.265625 0.453125q0.296875 0.25 0.71875 0.390625q0.4375 0.125 1.0 0.125q0.921875 0 1.421875 -0.28125q0.25 -0.140625 0.25 -0.296875q0 -0.265625 -0.34375 -0.4375q-0.34375 -0.15625 -1.421875 -0.28125q-1.609375 -0.171875 -2.15625 -0.65625q-0.53125 -0.46875 -0.53125 -1.171875q0 -0.703125 0.59375 -1.1875q0.828125 -0.640625 2.15625 -0.640625q0.453125 0 0.875 0.09375q0.4375 0.078125 0.828125 0.25q0.125 -0.078125 0.234375 -0.125q0.109375 -0.046875 0.1875 -0.046875q0.28125 0 0.453125 0.203125q0.1875 0.203125 0.1875 0.6875l0 0.328125q0 0.4375 -0.09375 0.59375q-0.21875 0.296875 -0.578125 0.296875q-0.234375 0 -0.421875 -0.140625q-0.171875 -0.15625 -0.234375 -0.40625zm7.998184 0q-0.328125 -0.203125 -0.6875 -0.296875q-0.34375 -0.109375 -0.734375 -0.109375q-0.78125 0 -1.234375 0.25q-0.203125 0.109375 -0.203125 0.25q0 0.140625 0.265625 0.28125q0.21875 0.109375 0.9375 0.203125q1.328125 0.1875 1.84375 0.375q0.6875 0.234375 1.046875 0.71875q0.375 0.46875 0.375 1.0q0 0.703125 -0.625 1.1875q-0.90625 0.703125 -2.34375 0.703125q-0.578125 0 -1.078125 -0.109375q-0.484375 -0.09375 -0.890625 -0.296875q-0.109375 0.09375 -0.21875 0.140625q-0.109375 0.046875 -0.21875 0.046875q-0.3125 0 -0.5 -0.203125q-0.1875 -0.21875 -0.1875 -0.6875l0 -0.453125q0 -0.484375 0.1875 -0.6875q0.1875 -0.203125 0.484375 -0.203125q0.234375 0 0.390625 0.140625q0.171875 0.125 0.265625 0.453125q0.296875 0.25 0.71875 0.390625q0.4375 0.125 1.0 0.125q0.921875 0 1.421875 -0.28125q0.25 -0.140625 0.25 -0.296875q0 -0.265625 -0.34375 -0.4375q-0.34375 -0.15625 -1.421875 -0.28125q-1.609375 -0.171875 -2.15625 -0.65625q-0.53125 -0.46875 -0.53125 -1.171875q0 -0.703125 0.59375 -1.1875q0.828125 -0.640625 2.15625 -0.640625q0.453125 0 0.875 0.09375q0.4375 0.078125 0.828125 0.25q0.125 -0.078125 0.234375 -0.125q0.109375 -0.046875 0.1875 -0.046875q0.28125 0 0.453125 0.203125q0.1875 0.203125 0.1875 0.6875l0 0.328125q0 0.4375 -0.09375 0.59375q-0.21875 0.296875 -0.578125 0.296875q-0.234375 0 -0.421875 -0.140625q-0.171875 -0.15625 -0.234375 -0.40625zm7.763809 4.34375l0 -0.3125q-0.5 0.265625 -1.109375 0.390625q-0.609375 0.140625 -1.09375 0.140625q-1.078125 0 -1.75 -0.5625q-0.671875 -0.578125 -0.671875 -1.265625q0 -0.84375 0.859375 -1.5625q0.859375 -0.71875 2.359375 -0.71875q0.609375 0 1.40625 0.140625l0 -0.328125q0 -0.296875 -0.265625 -0.484375q-0.25 -0.1875 -0.96875 -0.1875q-0.59375 0 -1.546875 0.234375q-0.34375 0.078125 -0.546875 0.078125q-0.265625 0 -0.453125 -0.1875q-0.171875 -0.1875 -0.171875 -0.484375q0 -0.171875 0.0625 -0.296875q0.0625 -0.125 0.171875 -0.203125q0.125 -0.078125 0.5 -0.171875q0.484375 -0.140625 1.0 -0.21875q0.515625 -0.078125 0.9375 -0.078125q1.234375 0 1.921875 0.53125q0.6875 0.53125 0.6875 1.46875l0 2.75l0.234375 0q0.484375 0 0.6875 0.1875q0.203125 0.171875 0.203125 0.484375q0 0.28125 -0.203125 0.46875q-0.203125 0.1875 -0.6875 0.1875l-1.5625 0zm0 -2.390625q-0.796875 -0.15625 -1.484375 -0.15625q-0.8125 0 -1.390625 0.40625q-0.375 0.25 -0.375 0.5q0 0.203125 0.1875 0.3125q0.3125 0.21875 0.890625 0.21875q0.46875 0 1.078125 -0.1875q0.609375 -0.1875 1.09375 -0.515625l0 -0.578125zm8.263809 -3.125l0 -0.390625l1.5625 0q0.484375 0 0.6875 0.1875q0.203125 0.1875 0.203125 0.484375q0 0.28125 -0.203125 0.46875q-0.203125 0.1875 -0.6875 0.1875l-0.234375 0l0 4.859375q0 0.703125 -0.296875 1.21875q-0.296875 0.53125 -0.90625 0.90625q-0.609375 0.375 -1.375 0.375l-1.515625 0q-0.484375 0 -0.6875 -0.1875q-0.203125 -0.171875 -0.203125 -0.46875q0 -0.296875 0.203125 -0.484375q0.203125 -0.1875 0.6875 -0.1875l1.46875 0q0.625 0 0.953125 -0.34375q0.34375 -0.328125 0.34375 -0.828125l0 -0.65625q-0.4375 0.296875 -0.90625 0.4375q-0.453125 0.140625 -0.9375 0.140625q-1.359375 0 -2.28125 -0.90625q-0.921875 -0.90625 -0.921875 -2.25q0 -1.328125 0.921875 -2.234375q0.921875 -0.921875 2.28125 -0.921875q0.5 0 0.953125 0.15625q0.46875 0.140625 0.890625 0.4375zm-0.015625 2.5625q0 -0.734375 -0.546875 -1.265625q-0.53125 -0.546875 -1.296875 -0.546875q-0.765625 0 -1.3125 0.546875q-0.53125 0.53125 -0.53125 1.265625q0 0.734375 0.53125 1.28125q0.546875 0.53125 1.3125 0.53125q0.765625 0 1.296875 -0.53125q0.546875 -0.546875 0.546875 -1.28125zm9.888809 0.671875l-5.46875 0q0.203125 0.53125 0.734375 0.84375q0.53125 0.3125 1.4375 0.3125q0.75 0 1.96875 -0.3125q0.515625 -0.125 0.703125 -0.125q0.265625 0 0.453125 0.1875q0.1875 0.1875 0.1875 0.46875q0 0.265625 -0.203125 0.4375q-0.265625 0.25 -1.28125 0.46875q-1.0 0.21875 -1.921875 0.21875q-1.609375 0 -2.578125 -0.90625q-0.953125 -0.90625 -0.953125 -2.234375q0 -1.40625 1.03125 -2.28125q1.046875 -0.875 2.40625 -0.875q0.8125 0 1.484375 0.28125q0.6875 0.28125 1.015625 0.609375q0.46875 0.484375 0.78125 1.203125q0.203125 0.484375 0.203125 1.140625l0 0.5625zm-1.46875 -1.328125q-0.3125 -0.578125 -0.8125 -0.859375q-0.484375 -0.28125 -1.171875 -0.28125q-0.671875 0 -1.171875 0.28125q-0.5 0.28125 -0.8125 0.859375l3.96875 0z" fill-rule="nonzero"/><path fill="#ffffff" d="m23.519075 98.550285l1.921875 -4.59375l-0.296875 0q-0.484375 0 -0.6875 -0.1875q-0.203125 -0.1875 -0.203125 -0.484375q0 -0.296875 0.203125 -0.484375q0.203125 -0.1875 0.6875 -0.1875l1.78125 0q0.484375 0 0.6875 0.1875q0.203125 0.1875 0.203125 0.484375q0 0.359375 -0.3125 0.5625q-0.140625 0.109375 -0.609375 0.109375l-2.734375 6.546875l-1.28125 0l-2.734375 -6.546875q-0.46875 0 -0.625 -0.109375q-0.3125 -0.203125 -0.3125 -0.5625q0 -0.296875 0.21875 -0.484375q0.203125 -0.1875 0.671875 -0.1875l1.8125 0q0.46875 0 0.671875 0.1875q0.21875 0.1875 0.21875 0.484375q0 0.296875 -0.203125 0.484375q-0.203125 0.1875 -0.6875 0.1875l-0.3125 0l1.921875 4.59375zm8.482557 -6.484375l0 1.40625l-1.5937481 0l0 -1.40625l1.5937481 0zm0.171875 2.53125l0 4.578125l1.609375 0q0.46875 0 0.671875 0.1875q0.21875 0.171875 0.21875 0.484375q0 0.28125 -0.21875 0.46875q-0.203125 0.1875 -0.671875 0.1875l-4.546873 0q-0.46875 0 -0.6875 -0.1875q-0.203125 -0.1875 -0.203125 -0.484375q0 -0.296875 0.203125 -0.46875q0.21875 -0.1875 0.6875 -0.1875l1.609375 0l0 -3.25l-1.078125 0q-0.46875 0 -0.6875 -0.1875q-0.203125 -0.1875 -0.203125 -0.484375q0 -0.28125 0.203125 -0.46875q0.203125 -0.1875 0.6875 -0.1875l2.406248 0zm10.685684 3.625l-5.46875 0q0.203125 0.53125 0.734375 0.84375q0.53125 0.3125 1.4375 0.3125q0.75 0 1.96875 -0.3125q0.515625 -0.125 0.703125 -0.125q0.265625 0 0.453125 0.1875q0.1875 0.1875 0.1875 0.46875q0 0.265625 -0.203125 0.4375q-0.265625 0.25 -1.28125 0.46875q-1.0 0.21875 -1.921875 0.21875q-1.609375 0 -2.578125 -0.90625q-0.953125 -0.90625 -0.953125 -2.234375q0 -1.40625 1.03125 -2.28125q1.046875 -0.875 2.40625 -0.875q0.8125 0 1.484375 0.28125q0.6875 0.28125 1.015625 0.609375q0.46875 0.484375 0.78125 1.203125q0.203125 0.484375 0.203125 1.140625l0 0.5625zm-1.46875 -1.328125q-0.3125 -0.578125 -0.8125 -0.859375q-0.484375 -0.28125 -1.171875 -0.28125q-0.671875 0 -1.171875 0.28125q-0.5 0.28125 -0.8125 0.859375l3.96875 0zm6.138809 1.15625l-0.9375 2.453125l-1.25 0l-1.125 -4.578125q-0.359375 -0.015625 -0.546875 -0.203125q-0.1875 -0.1875 -0.1875 -0.46875q0 -0.28125 0.203125 -0.46875q0.21875 -0.1875 0.6875 -0.1875l1.25 0q0.484375 0 0.6875 0.1875q0.203125 0.1875 0.203125 0.484375q0 0.296875 -0.234375 0.5q-0.171875 0.15625 -0.6875 0.15625l0.5 2.125l0.828125 -2.171875l1.1875 0l0.828125 2.171875l0.53125 -2.125q-0.5 0 -0.65625 -0.09375q-0.3125 -0.203125 -0.3125 -0.578125q0 -0.28125 0.203125 -0.46875q0.203125 -0.1875 0.6875 -0.1875l1.25 0q0.484375 0 0.6875 0.1875q0.21875 0.1875 0.21875 0.484375q0 0.265625 -0.1875 0.453125q-0.171875 0.1875 -0.53125 0.203125l-1.09375 4.578125l-1.234375 0l-0.96875 -2.453125zm4.998184 1.125l0 -5.21875q-0.421875 -0.015625 -0.625 -0.203125q-0.203125 -0.1875 -0.203125 -0.46875q0 -0.296875 0.203125 -0.484375q0.203125 -0.1875 0.6875 -0.1875l2.796875 0q0.640625 0 1.265625 0.25q0.625 0.234375 1.0 0.609375q0.296875 0.28125 0.59375 0.765625q0.3125 0.484375 0.46875 0.96875q0.15625 0.484375 0.15625 1.171875l0 0.640625q0 0.84375 -0.296875 1.5q-0.28125 0.65625 -0.75 1.078125q-0.453125 0.40625 -0.859375 0.59375q-0.65625 0.3125 -1.6875 0.3125l-2.6875 0q-0.484375 0 -0.6875 -0.1875q-0.203125 -0.1875 -0.203125 -0.484375q0 -0.296875 0.203125 -0.484375q0.203125 -0.1875 0.625 -0.171875zm1.328125 0l1.421875 0q0.796875 0 1.203125 -0.234375q0.53125 -0.296875 0.796875 -0.75q0.265625 -0.46875 0.265625 -1.203125l0 -0.640625q0 -0.625 -0.25 -1.109375q-0.375 -0.734375 -0.84375 -1.0q-0.46875 -0.28125 -1.1875 -0.28125l-1.40625 0l0 5.21875zm10.857559 1.328125l0 -0.3125q-0.5 0.265625 -1.109375 0.390625q-0.609375 0.140625 -1.09375 0.140625q-1.078125 0 -1.75 -0.5625q-0.671875 -0.578125 -0.671875 -1.265625q0 -0.84375 0.859375 -1.5625q0.859375 -0.71875 2.359375 -0.71875q0.609375 0 1.40625 0.140625l0 -0.328125q0 -0.296875 -0.265625 -0.484375q-0.25 -0.1875 -0.96875 -0.1875q-0.59375 0 -1.546875 0.234375q-0.34375 0.078125 -0.546875 0.078125q-0.265625 0 -0.453125 -0.1875q-0.171875 -0.1875 -0.171875 -0.484375q0 -0.171875 0.0625 -0.296875q0.0625 -0.125 0.171875 -0.203125q0.125 -0.078125 0.5 -0.171875q0.484375 -0.140625 1.0 -0.21875q0.515625 -0.078125 0.9375 -0.078125q1.234375 0 1.921875 0.53125q0.6875 0.53125 0.6875 1.46875l0 2.75l0.234375 0q0.484375 0 0.6875 0.1875q0.203125 0.171875 0.203125 0.484375q0 0.28125 -0.203125 0.46875q-0.203125 0.1875 -0.6875 0.1875l-1.5625 0zm0 -2.390625q-0.796875 -0.15625 -1.484375 -0.15625q-0.8125 0 -1.390625 0.40625q-0.375 0.25 -0.375 0.5q0 0.203125 0.1875 0.3125q0.3125 0.21875 0.890625 0.21875q0.46875 0 1.078125 -0.1875q0.609375 -0.1875 1.09375 -0.515625l0 -0.578125zm6.466934 -2.1875l0 2.671875q0 0.4375 0.171875 0.578125q0.28125 0.203125 0.984375 0.203125q1.015625 0 1.875 -0.4375q0.34375 -0.15625 0.53125 -0.15625q0.25 0 0.4375 0.203125q0.203125 0.1875 0.203125 0.46875q0 0.25 -0.203125 0.4375q-0.328125 0.3125 -1.265625 0.578125q-0.9375 0.25 -1.578125 0.25q-1.25 0 -1.875 -0.53125q-0.609375 -0.546875 -0.609375 -1.328125l0 -2.9375l-0.484375 0q-0.484375 0 -0.6875 -0.1875q-0.203125 -0.1875 -0.203125 -0.484375q0 -0.28125 0.203125 -0.46875q0.203125 -0.1875 0.6875 -0.1875l0.484375 0l0 -1.203125q0 -0.484375 0.171875 -0.6875q0.1875 -0.203125 0.484375 -0.203125q0.296875 0 0.484375 0.203125q0.1875 0.203125 0.1875 0.6875l0 1.203125l2.46875 0q0.484375 0 0.6875 0.1875q0.203125 0.1875 0.203125 0.484375q0 0.28125 -0.203125 0.46875q-0.203125 0.1875 -0.6875 0.1875l-2.46875 0zm9.529434 4.578125l0 -0.3125q-0.5 0.265625 -1.109375 0.390625q-0.609375 0.140625 -1.09375 0.140625q-1.078125 0 -1.75 -0.5625q-0.671875 -0.578125 -0.671875 -1.265625q0 -0.84375 0.859375 -1.5625q0.859375 -0.71875 2.359375 -0.71875q0.609375 0 1.40625 0.140625l0 -0.328125q0 -0.296875 -0.265625 -0.484375q-0.25 -0.1875 -0.96875 -0.1875q-0.59375 0 -1.546875 0.234375q-0.34375 0.078125 -0.546875 0.078125q-0.265625 0 -0.453125 -0.1875q-0.171875 -0.1875 -0.171875 -0.484375q0 -0.171875 0.0625 -0.296875q0.0625 -0.125 0.171875 -0.203125q0.125 -0.078125 0.5 -0.171875q0.484375 -0.140625 1.0 -0.21875q0.515625 -0.078125 0.9375 -0.078125q1.234375 0 1.921875 0.53125q0.6875 0.53125 0.6875 1.46875l0 2.75l0.234375 0q0.484375 0 0.6875 0.1875q0.203125 0.171875 0.203125 0.484375q0 0.28125 -0.203125 0.46875q-0.203125 0.1875 -0.6875 0.1875l-1.5625 0zm0 -2.390625q-0.796875 -0.15625 -1.484375 -0.15625q-0.8125 0 -1.390625 0.40625q-0.375 0.25 -0.375 0.5q0 0.203125 0.1875 0.3125q0.3125 0.21875 0.890625 0.21875q0.46875 0 1.078125 -0.1875q0.609375 -0.1875 1.09375 -0.515625l0 -0.578125z" fill-rule="nonzero"/><path fill="#cfe2f3" d="m20.200024 31.385826l0 0c0 -15.664013 12.204647 -28.362204 27.259842 -28.362204l0 0c7.229759 0 14.163406 2.9881525 19.275623 8.307098c5.1122055 5.318944 7.9842224 12.532983 7.9842224 20.055107l0 0c0 15.664013 -12.204651 28.362206 -27.259846 28.362206l0 0c-15.055195 0 -27.259842 -12.698193 -27.259842 -28.362206z" fill-rule="evenodd"/><path stroke="#4e8aeb" stroke-width="3.0" stroke-linejoin="round" stroke-linecap="butt" d="m20.200024 31.385826l0 0c0 -15.664013 12.204647 -28.362204 27.259842 -28.362204l0 0c7.229759 0 14.163406 2.9881525 19.275623 8.307098c5.1122055 5.318944 7.9842224 12.532983 7.9842224 20.055107l0 0c0 15.664013 -12.204651 28.362206 -27.259846 28.362206l0 0c-15.055195 0 -27.259842 -12.698193 -27.259842 -28.362206z" fill-rule="evenodd"/><path fill="#cfe2f3" d="m61.86822 40.8063c-0.27033997 1.3958893 -0.7309723 2.7559052 -1.5748024 4.0498695c-0.8438339 1.2939644 -1.9510078 2.6828537 -3.4881897 3.7139091c-1.5371819 1.0310593 -3.5979881 2.0227509 -5.734909 2.4724426c-2.136921 0.4496956 -4.949257 0.5441818 -7.0866127 0.22572327c-2.1373596 -0.31846237 -4.264656 -1.1977272 -5.7375336 -2.136486c-1.4728775 -0.93875504 -2.3311462 -2.3468933 -3.099739 -3.4960594c-0.768589 -1.1491699 -1.147419 -2.1574821 -1.5118103 -3.3989525c-0.36439133 -1.2414703 -1.0494308 -3.0936127 -0.6745415 -4.0498695c0.3748932 -0.95625305 1.9304466 -1.2996483 2.9238853 -1.687664c0.9934387 -0.38801193 2.2869644 -1.0586166 3.036747 -0.640419c0.74977875 0.41819763 0.91819763 2.129486 1.4619408 3.1496048c0.54374313 1.0201225 0.9973755 2.1098022 1.8005257 2.9711304c0.8031502 0.8613281 1.9168854 1.7869644 3.0183716 2.1968498c1.1014862 0.4098854 2.466755 0.40813828 3.5905533 0.26246643c1.1237946 -0.14566803 2.3643913 -0.5236206 3.1522293 -1.1364822c0.787838 -0.61286163 1.3560791 -1.5870514 1.5748024 -2.54068c0.2187233 -0.95363235 0.21041107 -2.3521461 -0.26246643 -3.1811028c-0.4728775 -0.8289604 -1.4790039 -1.317585 -2.5748024 -1.7926521c-1.0958023 -0.47506714 -2.6128616 -0.61854935 -4.0 -1.0577431c-1.3871384 -0.43919373 -2.9781265 -0.9908142 -4.322834 -1.5774269c-1.3447075 -0.5866165 -2.6128616 -1.1102371 -3.745407 -1.9422588c-1.1325455 -0.8320198 -2.3101501 -1.8482056 -3.0498695 -3.0498676c-0.7397194 -1.2016621 -1.2265968 -2.7038498 -1.3884506 -4.1601048c-0.16185379 -1.4562569 0.024059296 -3.1671047 0.41732025 -4.577429c0.39326477 -1.4103241 0.94838333 -2.7978992 1.9422607 -3.8845139c0.9938736 -1.0866146 2.5923004 -1.9978132 4.020996 -2.635171c1.4286957 -0.6373577 3.0612411 -0.98818874 4.551182 -1.1889763c1.4899368 -0.20078754 3.0573044 -0.163167 4.3884506 -0.015748024c1.3311462 0.14741898 2.5223083 0.51443577 3.598423 0.90026283c1.0761185 0.3858261 1.9658813 0.83202076 2.8582687 1.4146976c0.8923874 0.58267784 1.7537193 1.2458448 2.4960632 2.0813656c0.7423439 0.8355198 1.4816284 1.9453182 1.958004 2.9317589c0.4763794 0.98643875 1.1627312 2.1889763 0.90026474 2.9868755c-0.26246643 0.79790115 -1.5376205 1.3048992 -2.4750671 1.8005257c-0.9374428 0.49562454 -2.2769012 1.4658794 -3.1496048 1.1732273c-0.87270355 -0.29265022 -1.3740158 -2.0214348 -2.0866165 -2.9291325c-0.7125969 -0.9076996 -1.3556404 -1.9098873 -2.1889763 -2.5170612c-0.83333206 -0.6071739 -1.7799644 -0.96500397 -2.8110237 -1.1259842c-1.0310555 -0.16098022 -2.4190712 -0.16666603 -3.375328 0.16010475c-0.95625305 0.3267727 -1.9125099 1.0691166 -2.3622017 1.8005257c-0.4496956 0.73140717 -0.50699997 1.8451443 -0.3359604 2.5879269c0.1710434 0.7427807 0.4251976 1.3250217 1.3622055 1.8687649c0.9370079 0.54374504 2.572178 0.8390217 4.259842 1.3937016c1.687664 0.5546799 4.2410316 1.265091 5.8661423 1.9343834c1.6251106 0.66929054 2.7624664 1.2099743 3.8845139 2.0813637c1.1220474 0.8713913 2.1776047 2.107174 2.8477707 3.146984c0.670166 1.0398064 0.9855652 1.8556404 1.1732292 3.0918617c0.18766403 1.2362213 0.22309494 2.929573 -0.047245026 4.3254585z" fill-rule="evenodd"/><path stroke="#4e8aeb" stroke-width="3.0" stroke-linejoin="round" stroke-linecap="butt" d="m61.86822 40.8063c-0.27033997 1.3958893 -0.7309723 2.7559052 -1.5748024 4.0498695c-0.8438339 1.2939644 -1.9510078 2.6828537 -3.4881897 3.7139091c-1.5371819 1.0310593 -3.5979881 2.0227509 -5.734909 2.4724426c-2.136921 0.4496956 -4.949257 0.5441818 -7.0866127 0.22572327c-2.1373596 -0.31846237 -4.264656 -1.1977272 -5.7375336 -2.136486c-1.4728775 -0.93875504 -2.3311462 -2.3468933 -3.099739 -3.4960594c-0.768589 -1.1491699 -1.147419 -2.1574821 -1.5118103 -3.3989525c-0.36439133 -1.2414703 -1.0494308 -3.0936127 -0.6745415 -4.0498695c0.3748932 -0.95625305 1.9304466 -1.2996483 2.9238853 -1.687664c0.9934387 -0.38801193 2.2869644 -1.0586166 3.036747 -0.640419c0.74977875 0.41819763 0.91819763 2.129486 1.4619408 3.1496048c0.54374313 1.0201225 0.9973755 2.1098022 1.8005257 2.9711304c0.8031502 0.8613281 1.9168854 1.7869644 3.0183716 2.1968498c1.1014862 0.4098854 2.466755 0.40813828 3.5905533 0.26246643c1.1237946 -0.14566803 2.3643913 -0.5236206 3.1522293 -1.1364822c0.787838 -0.61286163 1.3560791 -1.5870514 1.5748024 -2.54068c0.2187233 -0.95363235 0.21041107 -2.3521461 -0.26246643 -3.1811028c-0.4728775 -0.8289604 -1.4790039 -1.317585 -2.5748024 -1.7926521c-1.0958023 -0.47506714 -2.6128616 -0.61854935 -4.0 -1.0577431c-1.3871384 -0.43919373 -2.9781265 -0.9908142 -4.322834 -1.5774269c-1.3447075 -0.5866165 -2.6128616 -1.1102371 -3.745407 -1.9422588c-1.1325455 -0.8320198 -2.3101501 -1.8482056 -3.0498695 -3.0498676c-0.7397194 -1.2016621 -1.2265968 -2.7038498 -1.3884506 -4.1601048c-0.16185379 -1.4562569 0.024059296 -3.1671047 0.41732025 -4.577429c0.39326477 -1.4103241 0.94838333 -2.7978992 1.9422607 -3.8845139c0.9938736 -1.0866146 2.5923004 -1.9978132 4.020996 -2.635171c1.4286957 -0.6373577 3.0612411 -0.98818874 4.551182 -1.1889763c1.4899368 -0.20078754 3.0573044 -0.163167 4.3884506 -0.015748024c1.3311462 0.14741898 2.5223083 0.51443577 3.598423 0.90026283c1.0761185 0.3858261 1.9658813 0.83202076 2.8582687 1.4146976c0.8923874 0.58267784 1.7537193 1.2458448 2.4960632 2.0813656c0.7423439 0.8355198 1.4816284 1.9453182 1.958004 2.9317589c0.4763794 0.98643875 1.1627312 2.1889763 0.90026474 2.9868755c-0.26246643 0.79790115 -1.5376205 1.3048992 -2.4750671 1.8005257c-0.9374428 0.49562454 -2.2769012 1.4658794 -3.1496048 1.1732273c-0.87270355 -0.29265022 -1.3740158 -2.0214348 -2.0866165 -2.9291325c-0.7125969 -0.9076996 -1.3556404 -1.9098873 -2.1889763 -2.5170612c-0.83333206 -0.6071739 -1.7799644 -0.96500397 -2.8110237 -1.1259842c-1.0310555 -0.16098022 -2.4190712 -0.16666603 -3.375328 0.16010475c-0.95625305 0.3267727 -1.9125099 1.0691166 -2.3622017 1.8005257c-0.4496956 0.73140717 -0.50699997 1.8451443 -0.3359604 2.5879269c0.1710434 0.7427807 0.4251976 1.3250217 1.3622055 1.8687649c0.9370079 0.54374504 2.572178 0.8390217 4.259842 1.3937016c1.687664 0.5546799 4.2410316 1.265091 5.8661423 1.9343834c1.6251106 0.66929054 2.7624664 1.2099743 3.8845139 2.0813637c1.1220474 0.8713913 2.1776047 2.107174 2.8477707 3.146984c0.670166 1.0398064 0.9855652 1.8556404 1.1732292 3.0918617c0.18766403 1.2362213 0.22309494 2.929573 -0.047245026 4.3254585z" fill-rule="evenodd"/><path fill="#d96248" d="m82.697136 63.63743c-0.21178436 -0.089229584 -0.5791702 -1.1040077 -1.0043335 -1.5255623c-0.42516327 -0.42155075 -0.7340164 -0.7229347 -1.5466309 -1.0037575c-0.81261444 -0.28082275 -1.8124008 0.102581024 -3.3290405 -0.68118286c-1.5166397 -0.7837639 -4.343582 -2.9601974 -5.770813 -4.021393c-1.4272232 -1.0611954 -1.7532425 -1.3834877 -2.7925339 -2.3457756c-1.0392914 -0.9622879 -2.3829575 -2.2943459 -3.4432068 -3.4279556c-1.0602531 -1.133606 -1.9984779 -2.2662277 -2.918293 -3.3736954c-0.91981506 -1.1074677 -1.8343239 -2.282196 -2.600605 -3.2711182c-0.76628494 -0.9889221 -2.0430794 -2.5779228 -1.997097 -2.6624184c0.045986176 -0.084495544 1.1171951 1.1735954 2.2729988 2.1554527c1.1558037 0.9818573 3.3282127 2.7091866 4.6618195 3.735695c1.3336029 1.0265083 2.5255966 1.8999901 3.3397903 2.4233475c0.81420135 0.5233574 1.4321213 0.7319069 1.5453949 0.71678925c0.11326599 -0.015117645 -0.19924164 -0.039138794 -0.86576843 -0.80749893c-0.6665268 -0.76836395 -2.2031555 -2.6255417 -3.1333847 -3.8026695c-0.9302292 -1.1771278 -1.7406311 -2.2842445 -2.4479713 -3.2600975c-0.7073364 -0.97584915 -2.0856133 -2.7719193 -1.7960587 -2.5950203c0.28955078 0.17690277 2.3781319 2.5597687 3.5333824 3.6564293c1.1552505 1.0966606 2.390129 2.0849457 3.398117 2.9235306c1.0079956 0.8385849 1.7876511 1.4530754 2.6498337 2.1079788c0.8621826 0.6548996 1.7796555 1.295742 2.5232544 1.8214302c0.74359894 0.5256882 0.9316025 0.6139984 1.9383545 1.332695c1.006752 0.7186966 3.128357 2.248848 4.10215 2.9794846c0.97380066 0.7306328 1.2436371 0.8270683 1.7406311 1.4043274c0.49700165 0.57725906 0.90644073 1.3190575 1.2413635 2.0592308c0.33491516 0.74017334 0.6072998 1.6365471 0.7681427 2.3818092c0.1608429 0.74525833 0.20848083 1.5764236 0.19689941 2.0897484c-0.011581421 0.51332474 -0.054603577 1.079422 -0.26639557 0.9901962z" fill-rule="evenodd"/><path stroke="#d96248" stroke-width="1.0" stroke-linejoin="round" stroke-linecap="butt" d="m82.697136 63.63743c-0.21178436 -0.089229584 -0.5791702 -1.1040077 -1.0043335 -1.5255623c-0.42516327 -0.42155075 -0.7340164 -0.7229347 -1.5466309 -1.0037575c-0.81261444 -0.28082275 -1.8124008 0.102581024 -3.3290405 -0.68118286c-1.5166397 -0.7837639 -4.343582 -2.9601974 -5.770813 -4.021393c-1.4272232 -1.0611954 -1.7532425 -1.3834877 -2.7925339 -2.3457756c-1.0392914 -0.9622879 -2.3829575 -2.2943459 -3.4432068 -3.4279556c-1.0602531 -1.133606 -1.9984779 -2.2662277 -2.918293 -3.3736954c-0.91981506 -1.1074677 -1.8343239 -2.282196 -2.600605 -3.2711182c-0.76628494 -0.9889221 -2.0430794 -2.5779228 -1.997097 -2.6624184c0.045986176 -0.084495544 1.1171951 1.1735954 2.2729988 2.1554527c1.1558037 0.9818573 3.3282127 2.7091866 4.6618195 3.735695c1.3336029 1.0265083 2.5255966 1.8999901 3.3397903 2.4233475c0.81420135 0.5233574 1.4321213 0.7319069 1.5453949 0.71678925c0.11326599 -0.015117645 -0.19924164 -0.039138794 -0.86576843 -0.80749893c-0.6665268 -0.76836395 -2.2031555 -2.6255417 -3.1333847 -3.8026695c-0.9302292 -1.1771278 -1.7406311 -2.2842445 -2.4479713 -3.2600975c-0.7073364 -0.97584915 -2.0856133 -2.7719193 -1.7960587 -2.5950203c0.28955078 0.17690277 2.3781319 2.5597687 3.5333824 3.6564293c1.1552505 1.0966606 2.390129 2.0849457 3.398117 2.9235306c1.0079956 0.8385849 1.7876511 1.4530754 2.6498337 2.1079788c0.8621826 0.6548996 1.7796555 1.295742 2.5232544 1.8214302c0.74359894 0.5256882 0.9316025 0.6139984 1.9383545 1.332695c1.006752 0.7186966 3.128357 2.248848 4.10215 2.9794846c0.97380066 0.7306328 1.2436371 0.8270683 1.7406311 1.4043274c0.49700165 0.57725906 0.90644073 1.3190575 1.2413635 2.0592308c0.33491516 0.74017334 0.6072998 1.6365471 0.7681427 2.3818092c0.1608429 0.74525833 0.20848083 1.5764236 0.19689941 2.0897484c-0.011581421 0.51332474 -0.054603577 1.079422 -0.26639557 0.9901962z" fill-rule="evenodd"/><path fill="#d96248" d="m54.626873 54.29817c-0.06838989 0.16122055 1.0667992 1.6122475 1.6413574 2.3131409c0.57455826 0.7008934 1.1629715 1.3034439 1.8059883 1.8922195c0.6430168 0.58877563 1.3817902 1.1567116 2.0521088 1.6404343c0.6703186 0.4837227 1.2483902 0.8739052 1.9697914 1.2619019c0.721405 0.38799667 1.6339798 0.77373123 2.3586235 1.0660706c0.7246399 0.29233932 1.2741776 0.5152321 1.9892349 0.6879654c0.7150574 0.1727333 1.5413895 0.304348 2.3011246 0.34843063c0.7597351 0.044086456 1.5881348 -0.029953003 2.2572784 -0.083927155c0.6691437 -0.05397415 1.2848587 -0.15895844 1.7575912 -0.23991776c0.47273254 -0.080963135 0.7082367 -0.124622345 1.0787964 -0.24585342c0.3705597 -0.12123108 0.7622833 -0.28916168 1.1445618 -0.48153305c0.38228607 -0.19237518 0.8070984 -0.5044937 1.1491165 -0.6727066c0.34201813 -0.16820908 0.5609741 -0.23136902 0.90299225 -0.3365631c0.34202576 -0.10519409 0.84571075 -0.17824173 1.1491165 -0.29460144c0.3034134 -0.116355896 0.9436035 -0.17817307 0.6713562 -0.40353775c-0.27225494 -0.22536469 -2.2613525 -0.46217346 -2.3048477 -0.9486542c-0.043502808 -0.4864769 1.5185013 -1.4655075 2.0438309 -1.9702148c0.5253372 -0.5047035 0.7937927 -0.75380707 1.1081696 -1.0580139c0.3143692 -0.30420685 0.5711746 -0.22550583 0.77806854 -0.767231c0.20689392 -0.54172516 0.38448334 -1.6554108 0.46328735 -2.4831161c0.07879639 -0.8277054 0.10637665 -1.604969 0.009513855 -2.4831161c-0.09686279 -0.8781471 -0.2919693 -1.8302612 -0.5906906 -2.7857666c-0.2987213 -0.9555092 -0.7370529 -2.0203056 -1.2016449 -2.9472694c-0.4645996 -0.9269676 -1.0014496 -1.8036308 -1.5859299 -2.614521c-0.5844879 -0.8108902 -1.331604 -1.6337204 -1.9209824 -2.2508278c-0.58937836 -0.6171036 -1.0382614 -0.9785347 -1.6152954 -1.4518013c-0.5770416 -0.47327042 -1.6622467 -1.3386993 -1.8469391 -1.3877983c-0.18470001 -0.049102783 0.4514923 0.59555817 0.73876953 1.0931969c0.28728485 0.4976387 0.66722107 1.1793175 0.9849014 1.892643c0.31768036 0.7133293 0.6741104 1.5436478 0.921196 2.3873177c0.24708557 0.8436737 0.45955658 1.8167 0.56131744 2.6747131c0.101760864 0.85801315 0.11161804 1.6557617 0.049224854 2.4733658c-0.06239319 0.81760406 -0.21999359 1.7577057 -0.42357635 2.4322472c-0.20358276 0.6745453 -0.41488647 0.9771271 -0.79792786 1.6150017c-0.38304138 0.6378746 -0.91506195 1.5281029 -1.5003052 2.2122536c-0.5852432 0.6841507 -1.3895798 1.4224167 -2.0111542 1.892643c-0.6215744 0.4702301 -1.0923767 0.6879654 -1.7182922 0.9287338c-0.62592316 0.24076462 -1.2155075 0.3973198 -2.0372238 0.5158653c-0.8217087 0.11854553 -1.9183578 0.23991776 -2.8930511 0.19541168c-0.9746971 -0.044509888 -2.1268425 -0.2855568 -2.9551048 -0.46245956c-0.8282623 -0.17689896 -1.275692 -0.29756546 -2.0144691 -0.59894943c-0.73877335 -0.30138016 -1.6732063 -0.7834778 -2.4181862 -1.2093391c-0.74497986 -0.42586517 -1.9833069 -1.5070534 -2.0516968 -1.3458366z" fill-rule="evenodd"/><path stroke="#d96248" stroke-width="1.0" stroke-linejoin="round" stroke-linecap="butt" d="m54.626873 54.29817c-0.06838989 0.16122055 1.0667992 1.6122475 1.6413574 2.3131409c0.57455826 0.7008934 1.1629715 1.3034439 1.8059883 1.8922195c0.6430168 0.58877563 1.3817902 1.1567116 2.0521088 1.6404343c0.6703186 0.4837227 1.2483902 0.8739052 1.9697914 1.2619019c0.721405 0.38799667 1.6339798 0.77373123 2.3586235 1.0660706c0.7246399 0.29233932 1.2741776 0.5152321 1.9892349 0.6879654c0.7150574 0.1727333 1.5413895 0.304348 2.3011246 0.34843063c0.7597351 0.044086456 1.5881348 -0.029953003 2.2572784 -0.083927155c0.6691437 -0.05397415 1.2848587 -0.15895844 1.7575912 -0.23991776c0.47273254 -0.080963135 0.7082367 -0.124622345 1.0787964 -0.24585342c0.3705597 -0.12123108 0.7622833 -0.28916168 1.1445618 -0.48153305c0.38228607 -0.19237518 0.8070984 -0.5044937 1.1491165 -0.6727066c0.34201813 -0.16820908 0.5609741 -0.23136902 0.90299225 -0.3365631c0.34202576 -0.10519409 0.84571075 -0.17824173 1.1491165 -0.29460144c0.3034134 -0.116355896 0.9436035 -0.17817307 0.6713562 -0.40353775c-0.27225494 -0.22536469 -2.2613525 -0.46217346 -2.3048477 -0.9486542c-0.043502808 -0.4864769 1.5185013 -1.4655075 2.0438309 -1.9702148c0.5253372 -0.5047035 0.7937927 -0.75380707 1.1081696 -1.0580139c0.3143692 -0.30420685 0.5711746 -0.22550583 0.77806854 -0.767231c0.20689392 -0.54172516 0.38448334 -1.6554108 0.46328735 -2.4831161c0.07879639 -0.8277054 0.10637665 -1.604969 0.009513855 -2.4831161c-0.09686279 -0.8781471 -0.2919693 -1.8302612 -0.5906906 -2.7857666c-0.2987213 -0.9555092 -0.7370529 -2.0203056 -1.2016449 -2.9472694c-0.4645996 -0.9269676 -1.0014496 -1.8036308 -1.5859299 -2.614521c-0.5844879 -0.8108902 -1.331604 -1.6337204 -1.9209824 -2.2508278c-0.58937836 -0.6171036 -1.0382614 -0.9785347 -1.6152954 -1.4518013c-0.5770416 -0.47327042 -1.6622467 -1.3386993 -1.8469391 -1.3877983c-0.18470001 -0.049102783 0.4514923 0.59555817 0.73876953 1.0931969c0.28728485 0.4976387 0.66722107 1.1793175 0.9849014 1.892643c0.31768036 0.7133293 0.6741104 1.5436478 0.921196 2.3873177c0.24708557 0.8436737 0.45955658 1.8167 0.56131744 2.6747131c0.101760864 0.85801315 0.11161804 1.6557617 0.049224854 2.4733658c-0.06239319 0.81760406 -0.21999359 1.7577057 -0.42357635 2.4322472c-0.20358276 0.6745453 -0.41488647 0.9771271 -0.79792786 1.6150017c-0.38304138 0.6378746 -0.91506195 1.5281029 -1.5003052 2.2122536c-0.5852432 0.6841507 -1.3895798 1.4224167 -2.0111542 1.892643c-0.6215744 0.4702301 -1.0923767 0.6879654 -1.7182922 0.9287338c-0.62592316 0.24076462 -1.2155075 0.3973198 -2.0372238 0.5158653c-0.8217087 0.11854553 -1.9183578 0.23991776 -2.8930511 0.19541168c-0.9746971 -0.044509888 -2.1268425 -0.2855568 -2.9551048 -0.46245956c-0.8282623 -0.17689896 -1.275692 -0.29756546 -2.0144691 -0.59894943c-0.73877335 -0.30138016 -1.6732063 -0.7834778 -2.4181862 -1.2093391c-0.74497986 -0.42586517 -1.9833069 -1.5070534 -2.0516968 -1.3458366z" fill-rule="evenodd"/><path fill="#000000" fill-opacity="0.0" d="m93.07553 12.100807l36.53543 0l0 18.96063l-36.53543 0z" fill-rule="evenodd"/><path fill="#ffffff" d="m99.216156 18.154556l0 0.984375l-1.125 0l0 -0.984375l1.125 0zm0.125 1.765625l0 3.203125l1.109375 0q0.34375 0 0.484375 0.140625q0.140625 0.125 0.140625 0.328125q0 0.203125 -0.140625 0.34375q-0.140625 0.125 -0.484375 0.125l-3.171875 0q-0.328125 0 -0.484375 -0.125q-0.140625 -0.140625 -0.140625 -0.34375q0 -0.203125 0.140625 -0.328125q0.15625 -0.140625 0.484375 -0.140625l1.125 0l0 -2.265625l-0.75 0q-0.328125 0 -0.484375 -0.125q-0.140625 -0.140625 -0.140625 -0.34375q0 -0.203125 0.140625 -0.328125q0.140625 -0.140625 0.484375 -0.140625l1.6875 0zm7.2696686 -1.765625l0 4.96875l0.15625 0q0.34375 0 0.484375 0.140625q0.140625 0.125 0.140625 0.328125q0 0.203125 -0.140625 0.34375q-0.140625 0.125 -0.484375 0.125l-1.078125 0l0 -0.234375q-0.328125 0.1875 -0.671875 0.28125q-0.34375 0.109375 -0.71875 0.109375q-1.0625 0 -1.703125 -0.609375q-0.640625 -0.609375 -0.640625 -1.515625q0 -0.953125 0.671875 -1.625q0.671875 -0.671875 1.640625 -0.671875q0.375 0 0.71875 0.125q0.359375 0.109375 0.703125 0.328125l0 -1.15625l-0.171875 0q-0.328125 0 -0.484375 -0.125q-0.140625 -0.140625 -0.140625 -0.34375q0 -0.203125 0.140625 -0.328125q0.15625 -0.140625 0.484375 -0.140625l1.09375 0zm-0.921875 3.96875q0 -0.578125 -0.40625 -0.984375q-0.40625 -0.40625 -1.0 -0.40625q-0.578125 0 -0.984375 0.40625q-0.40625 0.40625 -0.40625 0.96875q0 0.515625 0.359375 0.84375q0.359375 0.328125 1.03125 0.328125q0.65625 0 1.03125 -0.328125q0.375 -0.328125 0.375 -0.828125z" fill-rule="nonzero"/></g></svg>