<svg version="1.1" viewBox="0.0 0.0 323.1496062992126 123.59055118110236" fill="none" stroke="none" stroke-linecap="square" stroke-miterlimit="10" xmlns:xlink="http://www.w3.org/1999/xlink" xmlns="http://www.w3.org/2000/svg"><clipPath id="p.0"><path d="m0 0l323.1496 0l0 123.59055l-323.1496 0l0 -123.59055z" clip-rule="nonzero"/></clipPath><g clip-path="url(#p.0)"><path fill="#000000" fill-opacity="0.0" d="m0 0l323.1496 0l0 123.59055l-323.1496 0z" fill-rule="evenodd"/><path fill="#000000" fill-opacity="0.0" d="m74.83668 31.385826l165.35434 -0.062992096" fill-rule="evenodd"/><path stroke="#ffffff" stroke-width="3.0" stroke-linejoin="round" stroke-linecap="butt" stroke-dasharray="12.0,9.0" d="m92.83668 31.378971l147.35434 -0.056137085" fill-rule="evenodd"/><path stroke="#ffffff" stroke-width="3.0" stroke-linecap="butt" d="m92.83479 26.423773l-13.612404 4.9603825l13.61618 4.950012z" fill-rule="evenodd"/><path fill="#000000" fill-opacity="0.0" d="m223.02362 62.627296l96.97638 0l0 58.015747l-96.97638 0z" fill-rule="evenodd"/><path fill="#ffffff" d="m237.42624 79.1148l0 3.984375l0.484375 0q0.484375 0 0.6875 0.1875q0.203125 0.171875 0.203125 0.484375q0 0.28125 -0.203125 0.46875q-0.203125 0.1875 -0.6875 0.1875l-1.75 0q-0.484375 0 -0.6875 -0.1875q-0.203125 -0.1875 -0.203125 -0.484375q0 -0.296875 0.203125 -0.46875q0.203125 -0.1875 0.625 -0.1875l0 -5.21875q-0.34375 -0.046875 -0.53125 -0.21875q-0.171875 -0.1875 -0.171875 -0.453125q0 -0.296875 0.203125 -0.484375q0.203125 -0.1875 0.6875 -0.1875l1.453125 0l1.828125 4.015625l1.78125 -4.015625l1.46875 0q0.484375 0 0.6875 0.1875q0.203125 0.1875 0.203125 0.484375q0 0.265625 -0.1875 0.453125q-0.171875 0.171875 -0.515625 0.21875l0 5.21875q0.421875 0 0.625 0.1875q0.203125 0.1875 0.203125 0.484375q0 0.28125 -0.203125 0.46875q-0.203125 0.1875 -0.6875 0.1875l-1.765625 0q-0.46875 0 -0.671875 -0.1875q-0.203125 -0.1875 -0.203125 -0.484375q0 -0.296875 0.203125 -0.46875q0.203125 -0.1875 0.671875 -0.1875l0.5 0l0 -3.984375l-1.53125 3.4375l-1.15625 0l-1.5625 -3.4375zm13.435684 3.03125l-5.46875 0q0.203125 0.53125 0.734375 0.84375q0.53125 0.3125 1.4375 0.3125q0.75 0 1.96875 -0.3125q0.515625 -0.125 0.703125 -0.125q0.265625 0 0.453125 0.1875q0.1875 0.1875 0.1875 0.46875q0 0.265625 -0.203125 0.4375q-0.265625 0.25 -1.28125 0.46875q-1.0 0.21875 -1.921875 0.21875q-1.609375 0 -2.578125 -0.90625q-0.953125 -0.90625 -0.953125 -2.234375q0 -1.40625 1.03125 -2.28125q1.046875 -0.875 2.40625 -0.875q0.8125 0 1.484375 0.28125q0.6875 0.28125 1.015625 0.609375q0.46875 0.484375 0.78125 1.203125q0.203125 0.484375 0.203125 1.140625l0 0.5625zm-1.46875 -1.328125q-0.3125 -0.578125 -0.8125 -0.859375q-0.484375 -0.28125 -1.171875 -0.28125q-0.671875 0 -1.171875 0.28125q-0.5 0.28125 -0.8125 0.859375l3.96875 0zm7.560684 -0.734375q-0.328125 -0.203125 -0.6875 -0.296875q-0.34375 -0.109375 -0.734375 -0.109375q-0.78125 0 -1.234375 0.25q-0.203125 0.109375 -0.203125 0.25q0 0.140625 0.265625 0.28125q0.21875 0.109375 0.9375 0.203125q1.328125 0.1875 1.84375 0.375q0.6875 0.234375 1.046875 0.71875q0.375 0.46875 0.375 1.0q0 0.703125 -0.625 1.1875q-0.90625 0.703125 -2.34375 0.703125q-0.578125 0 -1.078125 -0.109375q-0.484375 -0.09375 -0.890625 -0.296875q-0.109375 0.09375 -0.21875 0.140625q-0.109375 0.046875 -0.21875 0.046875q-0.3125 0 -0.5 -0.203125q-0.1875 -0.21875 -0.1875 -0.6875l0 -0.453125q0 -0.484375 0.1875 -0.6875q0.1875 -0.203125 0.484375 -0.203125q0.234375 0 0.390625 0.140625q0.171875 0.125 0.265625 0.453125q0.296875 0.25 0.71875 0.390625q0.4375 0.125 1.0 0.125q0.921875 0 1.421875 -0.28125q0.25 -0.140625 0.25 -0.296875q0 -0.265625 -0.34375 -0.4375q-0.34375 -0.15625 -1.421875 -0.28125q-1.609375 -0.171875 -2.15625 -0.65625q-0.53125 -0.46875 -0.53125 -1.171875q0 -0.703125 0.59375 -1.1875q0.828125 -0.640625 2.15625 -0.640625q0.453125 0 0.875 0.09375q0.4375 0.078125 0.828125 0.25q0.125 -0.078125 0.234375 -0.125q0.109375 -0.046875 0.1875 -0.046875q0.28125 0 0.453125 0.203125q0.1875 0.203125 0.1875 0.6875l0 0.328125q0 0.4375 -0.09375 0.59375q-0.21875 0.296875 -0.578125 0.296875q-0.234375 0 -0.421875 -0.140625q-0.171875 -0.15625 -0.234375 -0.40625zm7.998169 0q-0.328125 -0.203125 -0.6875 -0.296875q-0.34375 -0.109375 -0.734375 -0.109375q-0.78125 0 -1.234375 0.25q-0.203125 0.109375 -0.203125 0.25q0 0.140625 0.265625 0.28125q0.21875 0.109375 0.9375 0.203125q1.328125 0.1875 1.84375 0.375q0.6875 0.234375 1.046875 0.71875q0.375 0.46875 0.375 1.0q0 0.703125 -0.625 1.1875q-0.90625 0.703125 -2.34375 0.703125q-0.578125 0 -1.078125 -0.109375q-0.484375 -0.09375 -0.890625 -0.296875q-0.109375 0.09375 -0.21875 0.140625q-0.109375 0.046875 -0.21875 0.046875q-0.3125 0 -0.5 -0.203125q-0.1875 -0.21875 -0.1875 -0.6875l0 -0.453125q0 -0.484375 0.1875 -0.6875q0.1875 -0.203125 0.484375 -0.203125q0.234375 0 0.390625 0.140625q0.171875 0.125 0.265625 0.453125q0.296875 0.25 0.71875 0.390625q0.4375 0.125 1.0 0.125q0.921875 0 1.421875 -0.28125q0.25 -0.140625 0.25 -0.296875q0 -0.265625 -0.34375 -0.4375q-0.34375 -0.15625 -1.421875 -0.28125q-1.609375 -0.171875 -2.15625 -0.65625q-0.53125 -0.46875 -0.53125 -1.171875q0 -0.703125 0.59375 -1.1875q0.828125 -0.640625 2.15625 -0.640625q0.453125 0 0.875 0.09375q0.4375 0.078125 0.828125 0.25q0.125 -0.078125 0.234375 -0.125q0.109375 -0.046875 0.1875 -0.046875q0.28125 0 0.453125 0.203125q0.1875 0.203125 0.1875 0.6875l0 0.328125q0 0.4375 -0.09375 0.59375q-0.21875 0.296875 -0.578125 0.296875q-0.234375 0 -0.421875 -0.140625q-0.171875 -0.15625 -0.234375 -0.40625zm9.904449 2.0625l-5.46875 0q0.203125 0.53125 0.734375 0.84375q0.53125 0.3125 1.4375 0.3125q0.75 0 1.96875 -0.3125q0.515625 -0.125 0.703125 -0.125q0.265625 0 0.453125 0.1875q0.1875 0.1875 0.1875 0.46875q0 0.265625 -0.203125 0.4375q-0.265625 0.25 -1.28125 0.46875q-1.0 0.21875 -1.921875 0.21875q-1.609375 0 -2.578125 -0.90625q-0.953125 -0.90625 -0.953125 -2.234375q0 -1.40625 1.03125 -2.28125q1.046875 -0.875 2.40625 -0.875q0.8125 0 1.484375 0.28125q0.6875 0.28125 1.015625 0.609375q0.46875 0.484375 0.78125 1.203125q0.203125 0.484375 0.203125 1.140625l0 0.5625zm-1.46875 -1.328125q-0.3125 -0.578125 -0.8125 -0.859375q-0.484375 -0.28125 -1.171875 -0.28125q-0.671875 0 -1.171875 0.28125q-0.5 0.28125 -0.8125 0.859375l3.96875 0zm4.779419 -2.296875l0 0.453125q0.359375 -0.3125 0.796875 -0.46875q0.4375 -0.15625 0.953125 -0.15625q1.1875 0 1.875 0.734375q0.546875 0.578125 0.546875 1.53125l0 2.484375q0.421875 0 0.625 0.1875q0.203125 0.171875 0.203125 0.484375q0 0.28125 -0.203125 0.46875q-0.203125 0.1875 -0.6875 0.1875l-1.203125 0q-0.484375 0 -0.6875 -0.1875q-0.203125 -0.1875 -0.203125 -0.484375q0 -0.296875 0.1875 -0.46875q0.203125 -0.1875 0.640625 -0.1875l0 -2.53125q0 -0.421875 -0.234375 -0.625q-0.3125 -0.265625 -0.921875 -0.265625q-0.46875 0 -0.8125 0.1875q-0.34375 0.171875 -0.875 0.75l0 2.484375q0.5 0 0.65625 0.09375q0.3125 0.1875 0.3125 0.578125q0 0.28125 -0.203125 0.46875q-0.203125 0.1875 -0.6875 0.1875l-1.515625 0q-0.484375 0 -0.6875 -0.1875q-0.203125 -0.1875 -0.203125 -0.484375q0 -0.359375 0.3125 -0.5625q0.15625 -0.09375 0.671875 -0.09375l0 -3.25q-0.421875 0 -0.625 -0.1875q-0.203125 -0.1875 -0.203125 -0.484375q0 -0.28125 0.203125 -0.46875q0.203125 -0.1875 0.6875 -0.1875l1.28125 0zm10.810699 0.390625l0 -0.390625l1.5625 0q0.484375 0 0.6875 0.1875q0.203125 0.1875 0.203125 0.484375q0 0.28125 -0.203125 0.46875q-0.203125 0.1875 -0.6875 0.1875l-0.234375 0l0 4.859375q0 0.703125 -0.296875 1.21875q-0.296875 0.53125 -0.90625 0.90625q-0.609375 0.375 -1.375 0.375l-1.515625 0q-0.484375 0 -0.6875 -0.1875q-0.203125 -0.171875 -0.203125 -0.46875q0 -0.296875 0.203125 -0.484375q0.203125 -0.1875 0.6875 -0.1875l1.46875 0q0.625 0 0.953125 -0.34375q0.34375 -0.328125 0.34375 -0.828125l0 -0.65625q-0.4375 0.296875 -0.90625 0.4375q-0.453125 0.140625 -0.9375 0.140625q-1.359375 0 -2.28125 -0.90625q-0.921875 -0.90625 -0.921875 -2.25q0 -1.328125 0.921875 -2.234375q0.921875 -0.921875 2.28125 -0.921875q0.5 0 0.953125 0.15625q0.46875 0.140625 0.890625 0.4375zm-0.015625 2.5625q0 -0.734375 -0.546875 -1.265625q-0.53125 -0.546875 -1.296875 -0.546875q-0.765625 0 -1.3125 0.546875q-0.53125 0.53125 -0.53125 1.265625q0 0.734375 0.53125 1.28125q0.546875 0.53125 1.3125 0.53125q0.765625 0 1.296875 -0.53125q0.546875 -0.546875 0.546875 -1.28125zm9.888794 0.671875l-5.46875 0q0.203125 0.53125 0.734375 0.84375q0.53125 0.3125 1.4375 0.3125q0.75 0 1.96875 -0.3125q0.515625 -0.125 0.703125 -0.125q0.265625 0 0.453125 0.1875q0.1875 0.1875 0.1875 0.46875q0 0.265625 -0.203125 0.4375q-0.265625 0.25 -1.28125 0.46875q-1.0 0.21875 -1.921875 0.21875q-1.609375 0 -2.578125 -0.90625q-0.953125 -0.90625 -0.953125 -2.234375q0 -1.40625 1.03125 -2.28125q1.046875 -0.875 2.40625 -0.875q0.8125 0 1.484375 0.28125q0.6875 0.28125 1.015625 0.609375q0.46875 0.484375 0.78125 1.203125q0.203125 0.484375 0.203125 1.140625l0 0.5625zm-1.46875 -1.328125q-0.3125 -0.578125 -0.8125 -0.859375q-0.484375 -0.28125 -1.171875 -0.28125q-0.671875 0 -1.171875 0.28125q-0.5 0.28125 -0.8125 0.859375l3.96875 0zm5.8419495 -2.296875l0 0.828125q0.84375 -0.609375 1.328125 -0.796875q0.484375 -0.203125 0.90625 -0.203125q0.65625 0 1.265625 0.46875q0.421875 0.328125 0.421875 0.671875q0 0.28125 -0.203125 0.484375q-0.203125 0.203125 -0.484375 0.203125q-0.25 0 -0.53125 -0.25q-0.265625 -0.25 -0.46875 -0.25q-0.28125 0 -0.84375 0.359375q-0.546875 0.34375 -1.390625 1.046875l0 2.015625l1.90625 0q0.484375 0 0.6875 0.1875q0.203125 0.171875 0.203125 0.484375q0 0.28125 -0.203125 0.46875q-0.203125 0.1875 -0.6875 0.1875l-4.03125 0q-0.484375 0 -0.6875 -0.1875q-0.203125 -0.1875 -0.203125 -0.484375q0 -0.296875 0.203125 -0.46875q0.203125 -0.1875 0.6875 -0.1875l0.796875 0l0 -3.25l-0.484375 0q-0.484375 0 -0.6875 -0.1875q-0.203125 -0.1875 -0.203125 -0.484375q0 -0.28125 0.203125 -0.46875q0.203125 -0.1875 0.6875 -0.1875l1.8125 0z" fill-rule="nonzero"/><path fill="#ffffff" d="m236.80124 99.099174l0 -5.21875l-0.21875 0q-0.484375 0 -0.6875 -0.1875q-0.203125 -0.1875 -0.203125 -0.484375q0 -0.296875 0.203125 -0.484375q0.203125 -0.1875 0.6875 -0.1875l3.34375 0q1.203125 0 1.921875 0.671875q0.734375 0.65625 0.734375 1.578125q0 0.4375 -0.171875 0.828125q-0.15625 0.375 -0.5 0.703125q0.625 0.375 0.9375 0.875q0.3125 0.5 0.3125 1.140625q0 0.515625 -0.21875 0.953125q-0.171875 0.328125 -0.421875 0.515625q-0.328125 0.28125 -0.8125 0.453125q-0.484375 0.171875 -1.203125 0.171875l-3.921875 0q-0.484375 0 -0.6875 -0.1875q-0.203125 -0.1875 -0.203125 -0.484375q0 -0.296875 0.203125 -0.46875q0.21875 -0.1875 0.6875 -0.1875l0.21875 0zm1.328125 -3.28125l1.46875 0q0.78125 0 1.296875 -0.40625q0.359375 -0.265625 0.359375 -0.65625q0 -0.359375 -0.34375 -0.609375q-0.328125 -0.265625 -1.046875 -0.265625l-1.734375 0l0 1.9375zm0 3.28125l2.296875 0q0.828125 0 1.15625 -0.25q0.25 -0.171875 0.25 -0.515625q0 -0.40625 -0.5 -0.796875q-0.5 -0.390625 -1.4375 -0.390625l-1.765625 0l0 1.953125zm10.060684 -7.109375l0 7.109375l1.59375 0q0.484375 0 0.6875 0.1875q0.203125 0.171875 0.203125 0.484375q0 0.28125 -0.203125 0.46875q-0.203125 0.1875 -0.6875 0.1875l-4.53125 0q-0.484375 0 -0.6875 -0.1875q-0.203125 -0.1875 -0.203125 -0.484375q0 -0.296875 0.203125 -0.46875q0.203125 -0.1875 0.6875 -0.1875l1.59375 0l0 -5.78125l-1.0625 0q-0.484375 0 -0.703125 -0.1875q-0.203125 -0.1875 -0.203125 -0.484375q0 -0.28125 0.203125 -0.46875q0.21875 -0.1875 0.703125 -0.1875l2.40625 0zm10.154434 2.53125l0 4.578125q0.421875 0 0.625 0.1875q0.203125 0.1875 0.203125 0.484375q0 0.28125 -0.203125 0.46875q-0.203125 0.1875 -0.6875 0.1875l-1.265625 0l0 -0.3125q-0.578125 0.265625 -1.09375 0.390625q-0.515625 0.140625 -0.984375 0.140625q-0.65625 0 -1.140625 -0.28125q-0.484375 -0.28125 -0.765625 -0.765625q-0.203125 -0.34375 -0.203125 -0.875l0 -2.875l-0.21875 0q-0.484375 0 -0.703125 -0.1875q-0.203125 -0.1875 -0.203125 -0.484375q0 -0.28125 0.203125 -0.46875q0.21875 -0.1875 0.703125 -0.1875l1.5625 0l0 3.96875q0 0.421875 0.203125 0.625q0.203125 0.1875 0.625 0.1875q0.40625 0 0.859375 -0.15625q0.46875 -0.15625 1.15625 -0.578125l0 -2.71875l-0.484375 0q-0.484375 0 -0.6875 -0.1875q-0.203125 -0.1875 -0.203125 -0.484375q0 -0.28125 0.203125 -0.46875q0.203125 -0.1875 0.6875 -0.1875l1.8125 0zm8.513794 3.625l-5.46875 0q0.203125 0.53125 0.734375 0.84375q0.53125 0.3125 1.4375 0.3125q0.75 0 1.96875 -0.3125q0.515625 -0.125 0.703125 -0.125q0.265625 0 0.453125 0.1875q0.1875 0.1875 0.1875 0.46875q0 0.265625 -0.203125 0.4375q-0.265625 0.25 -1.28125 0.46875q-1.0 0.21875 -1.921875 0.21875q-1.609375 0 -2.578125 -0.90625q-0.953125 -0.90625 -0.953125 -2.234375q0 -1.40625 1.03125 -2.28125q1.046875 -0.875 2.40625 -0.875q0.8125 0 1.484375 0.28125q0.6875 0.28125 1.015625 0.609375q0.46875 0.484375 0.78125 1.203125q0.203125 0.484375 0.203125 1.140625l0 0.5625zm-1.46875 -1.328125q-0.3125 -0.578125 -0.8125 -0.859375q-0.484375 -0.28125 -1.171875 -0.28125q-0.671875 0 -1.171875 0.28125q-0.5 0.28125 -0.8125 0.859375l3.96875 0zm5.7950745 -0.96875l0 2.671875q0 0.4375 0.171875 0.578125q0.28125 0.203125 0.984375 0.203125q1.015625 0 1.875 -0.4375q0.34375 -0.15625 0.53125 -0.15625q0.25 0 0.4375 0.203125q0.203125 0.1875 0.203125 0.46875q0 0.25 -0.203125 0.4375q-0.328125 0.3125 -1.265625 0.578125q-0.9375 0.25 -1.578125 0.25q-1.25 0 -1.875 -0.53125q-0.609375 -0.546875 -0.609375 -1.328125l0 -2.9375l-0.484375 0q-0.484375 0 -0.6875 -0.1875q-0.203125 -0.1875 -0.203125 -0.484375q0 -0.28125 0.203125 -0.46875q0.203125 -0.1875 0.6875 -0.1875l0.484375 0l0 -1.203125q0 -0.484375 0.171875 -0.6875q0.1875 -0.203125 0.484375 -0.203125q0.296875 0 0.484375 0.203125q0.1875 0.203125 0.1875 0.6875l0 1.203125l2.46875 0q0.484375 0 0.6875 0.1875q0.203125 0.1875 0.203125 0.484375q0 0.28125 -0.203125 0.46875q-0.203125 0.1875 -0.6875 0.1875l-2.46875 0zm11.795044 1.734375q0 0.765625 -0.4375 1.484375q-0.421875 0.71875 -1.265625 1.15625q-0.84375 0.421875 -1.75 0.421875q-0.921875 0 -1.75 -0.421875q-0.828125 -0.421875 -1.265625 -1.140625q-0.4375 -0.71875 -0.4375 -1.515625q0 -0.796875 0.4375 -1.5625q0.4375 -0.78125 1.265625 -1.21875q0.84375 -0.4375 1.75 -0.4375q0.90625 0 1.75 0.453125q0.84375 0.4375 1.265625 1.203125q0.4375 0.765625 0.4375 1.578125zm-1.34375 0q0 -0.640625 -0.453125 -1.171875q-0.640625 -0.734375 -1.65625 -0.734375q-0.90625 0 -1.515625 0.578125q-0.609375 0.578125 -0.609375 1.34375q0 0.625 0.609375 1.171875q0.625 0.53125 1.515625 0.53125q0.890625 0 1.5 -0.53125q0.609375 -0.546875 0.609375 -1.1875zm9.341949 0q0 0.765625 -0.4375 1.484375q-0.421875 0.71875 -1.265625 1.15625q-0.84375 0.421875 -1.75 0.421875q-0.921875 0 -1.75 -0.421875q-0.828125 -0.421875 -1.265625 -1.140625q-0.4375 -0.71875 -0.4375 -1.515625q0 -0.796875 0.4375 -1.5625q0.4375 -0.78125 1.265625 -1.21875q0.84375 -0.4375 1.75 -0.4375q0.90625 0 1.75 0.453125q0.84375 0.4375 1.265625 1.203125q0.4375 0.765625 0.4375 1.578125zm-1.34375 0q0 -0.640625 -0.453125 -1.171875q-0.640625 -0.734375 -1.65625 -0.734375q-0.90625 0 -1.515625 0.578125q-0.609375 0.578125 -0.609375 1.34375q0 0.625 0.609375 1.171875q0.625 0.53125 1.515625 0.53125q0.890625 0 1.5 -0.53125q0.609375 -0.546875 0.609375 -1.1875zm5.545044 -1.734375l0 2.671875q0 0.4375 0.171875 0.578125q0.28125 0.203125 0.984375 0.203125q1.015625 0 1.875 -0.4375q0.34375 -0.15625 0.53125 -0.15625q0.25 0 0.4375 0.203125q0.203125 0.1875 0.203125 0.46875q0 0.25 -0.203125 0.4375q-0.328125 0.3125 -1.265625 0.578125q-0.9375 0.25 -1.578125 0.25q-1.25 0 -1.875 -0.53125q-0.609375 -0.546875 -0.609375 -1.328125l0 -2.9375l-0.484375 0q-0.484375 0 -0.6875 -0.1875q-0.203125 -0.1875 -0.203125 -0.484375q0 -0.28125 0.203125 -0.46875q0.203125 -0.1875 0.6875 -0.1875l0.484375 0l0 -1.203125q0 -0.484375 0.171875 -0.6875q0.1875 -0.203125 0.484375 -0.203125q0.296875 0 0.484375 0.203125q0.1875 0.203125 0.1875 0.6875l0 1.203125l2.46875 0q0.484375 0 0.6875 0.1875q0.203125 0.1875 0.203125 0.484375q0 0.28125 -0.203125 0.46875q-0.203125 0.1875 -0.6875 0.1875l-2.46875 0zm6.9513245 -3.859375l0 2.84375q0.421875 -0.25 0.84375 -0.359375q0.421875 -0.125 0.859375 -0.125q0.6875 0 1.21875 0.234375q0.546875 0.234375 0.90625 0.734375q0.359375 0.5 0.359375 1.265625l0 2.515625q0.5 0 0.65625 0.09375q0.3125 0.203125 0.3125 0.578125q0 0.28125 -0.203125 0.46875q-0.203125 0.1875 -0.6875 0.1875l-1.515625 0q-0.46875 0 -0.6875 -0.1875q-0.203125 -0.1875 -0.203125 -0.484375q0 -0.359375 0.3125 -0.5625q0.171875 -0.109375 0.671875 -0.09375l0 -2.421875q0 -0.515625 -0.234375 -0.71875q-0.3125 -0.28125 -0.90625 -0.28125q-0.4375 0 -0.78125 0.171875q-0.34375 0.171875 -0.921875 0.75l0 2.5q0.515625 0 0.65625 0.09375q0.328125 0.203125 0.328125 0.578125q0 0.28125 -0.203125 0.46875q-0.203125 0.1875 -0.6875 0.1875l-1.515625 0q-0.484375 0 -0.6875 -0.1875q-0.203125 -0.1875 -0.203125 -0.484375q0 -0.359375 0.3125 -0.5625q0.15625 -0.109375 0.65625 -0.09375l0 -5.78125l-0.21875 0q-0.484375 0 -0.6875 -0.1875q-0.203125 -0.1875 -0.203125 -0.484375q0 -0.28125 0.203125 -0.46875q0.203125 -0.1875 0.6875 -0.1875l1.5625 0z" fill-rule="nonzero"/><path fill="#ffffff" d="m232.53651 115.099174l0 -5.21875q-0.421875 -0.015625 -0.625 -0.203125q-0.203125 -0.1875 -0.203125 -0.46875q0 -0.296875 0.203125 -0.484375q0.203125 -0.1875 0.6875 -0.1875l2.796875 0q0.640625 0 1.265625 0.25q0.625 0.234375 1.0 0.609375q0.296875 0.28125 0.59375 0.765625q0.3125 0.484375 0.46875 0.96875q0.15625 0.484375 0.15625 1.171875l0 0.640625q0 0.84375 -0.296875 1.5q-0.28125 0.65625 -0.75 1.078125q-0.453125 0.40625 -0.859375 0.59375q-0.65625 0.3125 -1.6875 0.3125l-2.6875 0q-0.484375 0 -0.6875 -0.1875q-0.203125 -0.1875 -0.203125 -0.484375q0 -0.296875 0.203125 -0.484375q0.203125 -0.1875 0.625 -0.171875zm1.328125 0l1.421875 0q0.796875 0 1.203125 -0.234375q0.53125 -0.296875 0.796875 -0.75q0.265625 -0.46875 0.265625 -1.203125l0 -0.640625q0 -0.625 -0.25 -1.109375q-0.375 -0.734375 -0.84375 -1.0q-0.46875 -0.28125 -1.1875 -0.28125l-1.40625 0l0 5.21875zm10.857559 1.328125l0 -0.3125q-0.5 0.265625 -1.109375 0.390625q-0.609375 0.140625 -1.09375 0.140625q-1.078125 0 -1.75 -0.5625q-0.671875 -0.578125 -0.671875 -1.265625q0 -0.84375 0.859375 -1.5625q0.859375 -0.71875 2.359375 -0.71875q0.609375 0 1.40625 0.140625l0 -0.328125q0 -0.296875 -0.265625 -0.484375q-0.25 -0.1875 -0.96875 -0.1875q-0.59375 0 -1.546875 0.234375q-0.34375 0.078125 -0.546875 0.078125q-0.265625 0 -0.453125 -0.1875q-0.171875 -0.1875 -0.171875 -0.484375q0 -0.171875 0.0625 -0.296875q0.0625 -0.125 0.171875 -0.203125q0.125 -0.078125 0.5 -0.171875q0.484375 -0.140625 1.0 -0.21875q0.515625 -0.078125 0.9375 -0.078125q1.234375 0 1.921875 0.53125q0.6875 0.53125 0.6875 1.46875l0 2.75l0.234375 0q0.484375 0 0.6875 0.1875q0.203125 0.171875 0.203125 0.484375q0 0.28125 -0.203125 0.46875q-0.203125 0.1875 -0.6875 0.1875l-1.5625 0zm0 -2.390625q-0.796875 -0.15625 -1.484375 -0.15625q-0.8125 0 -1.390625 0.40625q-0.375 0.25 -0.375 0.5q0 0.203125 0.1875 0.3125q0.3125 0.21875 0.890625 0.21875q0.46875 0 1.078125 -0.1875q0.609375 -0.1875 1.09375 -0.515625l0 -0.578125zm6.466934 -2.1875l0 2.671875q0 0.4375 0.171875 0.578125q0.28125 0.203125 0.984375 0.203125q1.015625 0 1.875 -0.4375q0.34375 -0.15625 0.53125 -0.15625q0.25 0 0.4375 0.203125q0.203125 0.1875 0.203125 0.46875q0 0.25 -0.203125 0.4375q-0.328125 0.3125 -1.265625 0.578125q-0.9375 0.25 -1.578125 0.25q-1.25 0 -1.875 -0.53125q-0.609375 -0.546875 -0.609375 -1.328125l0 -2.9375l-0.484375 0q-0.484375 0 -0.6875 -0.1875q-0.203125 -0.1875 -0.203125 -0.484375q0 -0.28125 0.203125 -0.46875q0.203125 -0.1875 0.6875 -0.1875l0.484375 0l0 -1.203125q0 -0.484375 0.171875 -0.6875q0.1875 -0.203125 0.484375 -0.203125q0.296875 0 0.484375 0.203125q0.1875 0.203125 0.1875 0.6875l0 1.203125l2.46875 0q0.484375 0 0.6875 0.1875q0.203125 0.1875 0.203125 0.484375q0 0.28125 -0.203125 0.46875q-0.203125 0.1875 -0.6875 0.1875l-2.46875 0zm9.529434 4.578125l0 -0.3125q-0.5 0.265625 -1.109375 0.390625q-0.609375 0.140625 -1.09375 0.140625q-1.078125 0 -1.75 -0.5625q-0.671875 -0.578125 -0.671875 -1.265625q0 -0.84375 0.859375 -1.5625q0.859375 -0.71875 2.359375 -0.71875q0.609375 0 1.40625 0.140625l0 -0.328125q0 -0.296875 -0.265625 -0.484375q-0.25 -0.1875 -0.96875 -0.1875q-0.59375 0 -1.546875 0.234375q-0.34375 0.078125 -0.546875 0.078125q-0.265625 0 -0.453125 -0.1875q-0.171875 -0.1875 -0.171875 -0.484375q0 -0.171875 0.0625 -0.296875q0.0625 -0.125 0.171875 -0.203125q0.125 -0.078125 0.5 -0.171875q0.484375 -0.140625 1.0 -0.21875q0.515625 -0.078125 0.9375 -0.078125q1.234375 0 1.921875 0.53125q0.6875 0.53125 0.6875 1.46875l0 2.75l0.234375 0q0.484375 0 0.6875 0.1875q0.203125 0.171875 0.203125 0.484375q0 0.28125 -0.203125 0.46875q-0.203125 0.1875 -0.6875 0.1875l-1.5625 0zm0 -2.390625q-0.796875 -0.15625 -1.484375 -0.15625q-0.8125 0 -1.390625 0.40625q-0.375 0.25 -0.375 0.5q0 0.203125 0.1875 0.3125q0.3125 0.21875 0.890625 0.21875q0.46875 0 1.078125 -0.1875q0.609375 -0.1875 1.09375 -0.515625l0 -0.578125zm4.8419495 2.046875q-0.171875 0.21875 -0.28125 0.28125q-0.109375 0.046875 -0.265625 0.046875q-0.296875 0 -0.484375 -0.203125q-0.1875 -0.203125 -0.1875 -0.671875l0 -0.90625q0 -0.484375 0.1875 -0.6875q0.1875 -0.203125 0.484375 -0.203125q0.234375 0 0.390625 0.125q0.171875 0.125 0.25 0.421875q0.078125 0.28125 0.171875 0.390625q0.1875 0.1875 0.671875 0.40625q0.484375 0.203125 1.0625 0.203125q0.890625 0 1.453125 -0.421875q0.375 -0.25 0.375 -0.625q0 -0.234375 -0.1875 -0.453125q-0.171875 -0.21875 -0.5625 -0.359375q-0.265625 -0.109375 -1.171875 -0.28125q-1.09375 -0.1875 -1.65625 -0.46875q-0.546875 -0.296875 -0.875 -0.8125q-0.328125 -0.53125 -0.328125 -1.125q0 -0.96875 0.796875 -1.6875q0.796875 -0.71875 2.078125 -0.71875q0.515625 0 0.953125 0.125q0.453125 0.109375 0.8125 0.34375q0.25 -0.25 0.515625 -0.25q0.296875 0 0.46875 0.203125q0.1875 0.203125 0.1875 0.671875l0 1.0q0 0.484375 -0.1875 0.6875q-0.171875 0.203125 -0.46875 0.203125q-0.25 0 -0.4375 -0.140625q-0.140625 -0.109375 -0.21875 -0.4375q-0.0625 -0.34375 -0.171875 -0.484375q-0.1875 -0.25 -0.5625 -0.40625q-0.375 -0.171875 -0.875 -0.171875q-0.71875 0 -1.140625 0.34375q-0.421875 0.328125 -0.421875 0.6875q0 0.25 0.171875 0.484375q0.171875 0.21875 0.5 0.359375q0.21875 0.078125 1.25 0.28125q1.03125 0.203125 1.578125 0.453125q0.546875 0.234375 0.90625 0.75q0.375 0.515625 0.375 1.21875q0 1.0 -0.703125 1.59375q-0.921875 0.765625 -2.359375 0.765625q-0.546875 0 -1.078125 -0.140625q-0.515625 -0.125 -1.015625 -0.390625zm13.420044 -2.5q0 0.765625 -0.4375 1.484375q-0.421875 0.71875 -1.265625 1.15625q-0.84375 0.421875 -1.75 0.421875q-0.921875 0 -1.75 -0.421875q-0.828125 -0.421875 -1.265625 -1.140625q-0.4375 -0.71875 -0.4375 -1.515625q0 -0.796875 0.4375 -1.5625q0.4375 -0.78125 1.265625 -1.21875q0.84375 -0.4375 1.75 -0.4375q0.90625 0 1.75 0.453125q0.84375 0.4375 1.265625 1.203125q0.4375 0.765625 0.4375 1.578125zm-1.34375 0q0 -0.640625 -0.453125 -1.171875q-0.640625 -0.734375 -1.65625 -0.734375q-0.90625 0 -1.515625 0.578125q-0.609375 0.578125 -0.609375 1.34375q0 0.625 0.609375 1.171875q0.625 0.53125 1.515625 0.53125q0.890625 0 1.5 -0.53125q0.609375 -0.546875 0.609375 -1.1875zm8.701324 -3.0625l0 4.578125q0.421875 0 0.625 0.1875q0.203125 0.1875 0.203125 0.484375q0 0.28125 -0.203125 0.46875q-0.203125 0.1875 -0.6875 0.1875l-1.265625 0l0 -0.3125q-0.578125 0.265625 -1.09375 0.390625q-0.515625 0.140625 -0.984375 0.140625q-0.65625 0 -1.140625 -0.28125q-0.484375 -0.28125 -0.765625 -0.765625q-0.203125 -0.34375 -0.203125 -0.875l0 -2.875l-0.21875 0q-0.484375 0 -0.703125 -0.1875q-0.203125 -0.1875 -0.203125 -0.484375q0 -0.28125 0.203125 -0.46875q0.21875 -0.1875 0.703125 -0.1875l1.5625 0l0 3.96875q0 0.421875 0.203125 0.625q0.203125 0.1875 0.625 0.1875q0.40625 0 0.859375 -0.15625q0.46875 -0.15625 1.15625 -0.578125l0 -2.71875l-0.484375 0q-0.484375 0 -0.6875 -0.1875q-0.203125 -0.1875 -0.203125 -0.484375q0 -0.28125 0.203125 -0.46875q0.203125 -0.1875 0.6875 -0.1875l1.8125 0zm4.888794 0l0 0.828125q0.84375 -0.609375 1.328125 -0.796875q0.484375 -0.203125 0.90625 -0.203125q0.65625 0 1.265625 0.46875q0.421875 0.328125 0.421875 0.671875q0 0.28125 -0.203125 0.484375q-0.203125 0.203125 -0.484375 0.203125q-0.25 0 -0.53125 -0.25q-0.265625 -0.25 -0.46875 -0.25q-0.28125 0 -0.84375 0.359375q-0.546875 0.34375 -1.390625 1.046875l0 2.015625l1.90625 0q0.484375 0 0.6875 0.1875q0.203125 0.171875 0.203125 0.484375q0 0.28125 -0.203125 0.46875q-0.203125 0.1875 -0.6875 0.1875l-4.03125 0q-0.484375 0 -0.6875 -0.1875q-0.203125 -0.1875 -0.203125 -0.484375q0 -0.296875 0.203125 -0.46875q0.203125 -0.1875 0.6875 -0.1875l0.796875 0l0 -3.25l-0.484375 0q-0.484375 0 -0.6875 -0.1875q-0.203125 -0.1875 -0.203125 -0.484375q0 -0.28125 0.203125 -0.46875q0.203125 -0.1875 0.6875 -0.1875l1.8125 0zm10.357574 0.234375q0.234375 -0.21875 0.5 -0.21875q0.28125 0 0.46875 0.203125q0.1875 0.203125 0.1875 0.671875l0 0.859375q0 0.484375 -0.1875 0.6875q-0.1875 0.203125 -0.484375 0.203125q-0.28125 0 -0.46875 -0.15625q-0.125 -0.125 -0.203125 -0.484375q-0.078125 -0.359375 -0.390625 -0.53125q-0.515625 -0.3125 -1.34375 -0.3125q-0.9375 0 -1.515625 0.5625q-0.5625 0.546875 -0.5625 1.390625q0 0.78125 0.546875 1.234375q0.546875 0.453125 1.8125 0.453125q0.828125 0 1.359375 -0.171875q0.3125 -0.109375 0.59375 -0.359375q0.28125 -0.25 0.5 -0.25q0.28125 0 0.46875 0.203125q0.203125 0.203125 0.203125 0.484375q0 0.4375 -0.59375 0.828125q-0.90625 0.59375 -2.640625 0.59375q-1.546875 0 -2.421875 -0.640625q-1.171875 -0.859375 -1.171875 -2.375q0 -1.421875 0.953125 -2.34375q0.953125 -0.9375 2.484375 -0.9375q0.546875 0 1.015625 0.109375q0.484375 0.09375 0.890625 0.296875zm9.263794 3.390625l-5.46875 0q0.203125 0.53125 0.734375 0.84375q0.53125 0.3125 1.4375 0.3125q0.75 0 1.96875 -0.3125q0.515625 -0.125 0.703125 -0.125q0.265625 0 0.453125 0.1875q0.1875 0.1875 0.1875 0.46875q0 0.265625 -0.203125 0.4375q-0.265625 0.25 -1.28125 0.46875q-1.0 0.21875 -1.921875 0.21875q-1.609375 0 -2.578125 -0.90625q-0.953125 -0.90625 -0.953125 -2.234375q0 -1.40625 1.03125 -2.28125q1.046875 -0.875 2.40625 -0.875q0.8125 0 1.484375 0.28125q0.6875 0.28125 1.015625 0.609375q0.46875 0.484375 0.78125 1.203125q0.203125 0.484375 0.203125 1.140625l0 0.5625zm-1.46875 -1.328125q-0.3125 -0.578125 -0.8125 -0.859375q-0.484375 -0.28125 -1.171875 -0.28125q-0.671875 0 -1.171875 0.28125q-0.5 0.28125 -0.8125 0.859375l3.96875 0z" fill-rule="nonzero"/><path fill="#cfe2f3" d="m240.20003 31.309711l0 0c0 -15.664013 12.204651 -28.362206 27.259842 -28.362206l0 0c7.229767 0 14.163391 2.9881523 19.275604 8.307097c5.112213 5.318945 7.9842224 12.532982 7.9842224 20.055107l0 0c0 15.664013 -12.20462 28.362206 -27.259827 28.362206l0 0c-15.055191 0 -27.259842 -12.698193 -27.259842 -28.362206z" fill-rule="evenodd"/><path stroke="#4e8aeb" stroke-width="3.0" stroke-linejoin="round" stroke-linecap="butt" d="m240.20003 31.309711l0 0c0 -15.664013 12.204651 -28.362206 27.259842 -28.362206l0 0c7.229767 0 14.163391 2.9881523 19.275604 8.307097c5.112213 5.318945 7.9842224 12.532982 7.9842224 20.055107l0 0c0 15.664013 -12.20462 28.362206 -27.259827 28.362206l0 0c-15.055191 0 -27.259842 -12.698193 -27.259842 -28.362206z" fill-rule="evenodd"/><path fill="#cfe2f3" d="m281.86823 40.730186c-0.27035522 1.3958893 -0.73098755 2.7559052 -1.5747986 4.0498695c-0.84384155 1.2939644 -1.9510193 2.68285 -3.4881897 3.7139091c-1.5372009 1.0310593 -3.597992 2.022747 -5.7349243 2.4724426c-2.1369019 0.44969177 -4.9492493 0.5441818 -7.086609 0.22571945c-2.1373596 -0.31845856 -4.2646484 -1.1977234 -5.7375183 -2.1364822c-1.4729004 -0.93875504 -2.3311615 -2.3468933 -3.0997467 -3.4960632c-0.76860046 -1.1491661 -1.1474152 -2.1574783 -1.5118103 -3.3989487c-0.36439514 -1.2414703 -1.0494385 -3.0936127 -0.6745453 -4.0498695c0.3748932 -0.95625687 1.9304504 -1.2996483 2.9238892 -1.687664c0.9934387 -0.38801193 2.2869568 -1.0586166 3.0367432 -0.640419c0.7497864 0.41819763 0.9181824 2.1294823 1.4619446 3.1496048c0.5437317 1.0201225 0.9973755 2.1097984 1.8005066 2.9711304c0.8031616 0.8613281 1.9169006 1.7869644 3.018402 2.1968498c1.101471 0.4098854 2.4667358 0.40813446 3.5905457 0.26246643c1.1237793 -0.14566803 2.36438 -0.5236206 3.1522217 -1.1364822c0.7878418 -0.61286163 1.3560791 -1.5870514 1.5747986 -2.5406837c0.21871948 -0.95362854 0.2104187 -2.3521423 -0.26245117 -3.1811028c-0.4729004 -0.8289566 -1.4790039 -1.317585 -2.574829 -1.7926483c-1.0957947 -0.47506714 -2.612854 -0.61854935 -4.0 -1.0577431c-1.3871155 -0.43919754 -2.978119 -0.9908142 -4.322815 -1.5774269c-1.3447266 -0.5866165 -2.612854 -1.1102371 -3.7454224 -1.9422588c-1.1325378 -0.8320217 -2.3101501 -1.8482056 -3.0498657 -3.0498695c-0.7397156 -1.2016621 -1.226593 -2.703848 -1.388443 -4.1601048c-0.16184998 -1.456255 0.02406311 -3.1671028 0.41732788 -4.577427c0.39326477 -1.4103241 0.9483795 -2.7979012 1.9422455 -3.8845148c0.9938965 -1.0866146 2.5923157 -1.9978132 4.020996 -2.635171c1.4287109 -0.6373577 3.0612488 -0.98818874 4.551178 -1.1889763c1.4899597 -0.20078754 3.057312 -0.163167 4.3884583 -0.015748024c1.3311462 0.14741898 2.5223083 0.51443577 3.5984192 0.90026283c1.0761108 0.38582706 1.9658813 0.83202076 2.8582764 1.4146976c0.892395 0.58267784 1.7537231 1.2458448 2.4960632 2.0813646c0.7423401 0.8355217 1.4816284 1.9453201 1.9580078 2.9317589c0.4763794 0.98643875 1.1627197 2.1889763 0.90026855 2.9868774c-0.2624817 0.79789925 -1.5376282 1.3048992 -2.4750671 1.8005238c-0.93743896 0.49562645 -2.2769165 1.4658794 -3.1496277 1.1732292c-0.87268066 -0.29265022 -1.3739929 -2.0214348 -2.086609 -2.9291344c-0.71258545 -0.9076996 -1.3556213 -1.9098854 -2.1889648 -2.5170593c-0.8333435 -0.6071739 -1.7799683 -0.9650059 -2.8110352 -1.1259842c-1.0310364 -0.16098022 -2.4190674 -0.16666794 -3.3753052 0.16010475c-0.9562683 0.32677078 -1.9125366 1.0691166 -2.3622131 1.8005238c-0.44970703 0.7314091 -0.50701904 1.8451443 -0.33596802 2.5879269c0.17105103 0.7427826 0.42520142 1.3250217 1.3622131 1.8687668c0.9370117 0.54374504 2.572174 0.8390198 4.2598267 1.3937016c1.6876831 0.5546799 4.2410583 1.265091 5.86615 1.9343815c1.6251221 0.66929245 2.7624817 1.2099743 3.8845215 2.0813656c1.1220398 0.8713913 2.1776123 2.107174 2.8477783 3.1469803c0.670166 1.0398102 0.9855652 1.8556442 1.1732178 3.0918655c0.18765259 1.2362213 0.2230835 2.9295692 -0.04724121 4.3254585z" fill-rule="evenodd"/><path stroke="#4e8aeb" stroke-width="3.0" stroke-linejoin="round" stroke-linecap="butt" d="m281.86823 40.730186c-0.27035522 1.3958893 -0.73098755 2.7559052 -1.5747986 4.0498695c-0.84384155 1.2939644 -1.9510193 2.68285 -3.4881897 3.7139091c-1.5372009 1.0310593 -3.597992 2.022747 -5.7349243 2.4724426c-2.1369019 0.44969177 -4.9492493 0.5441818 -7.086609 0.22571945c-2.1373596 -0.31845856 -4.2646484 -1.1977234 -5.7375183 -2.1364822c-1.4729004 -0.93875504 -2.3311615 -2.3468933 -3.0997467 -3.4960632c-0.76860046 -1.1491661 -1.1474152 -2.1574783 -1.5118103 -3.3989487c-0.36439514 -1.2414703 -1.0494385 -3.0936127 -0.6745453 -4.0498695c0.3748932 -0.95625687 1.9304504 -1.2996483 2.9238892 -1.687664c0.9934387 -0.38801193 2.2869568 -1.0586166 3.0367432 -0.640419c0.7497864 0.41819763 0.9181824 2.1294823 1.4619446 3.1496048c0.5437317 1.0201225 0.9973755 2.1097984 1.8005066 2.9711304c0.8031616 0.8613281 1.9169006 1.7869644 3.018402 2.1968498c1.101471 0.4098854 2.4667358 0.40813446 3.5905457 0.26246643c1.1237793 -0.14566803 2.36438 -0.5236206 3.1522217 -1.1364822c0.7878418 -0.61286163 1.3560791 -1.5870514 1.5747986 -2.5406837c0.21871948 -0.95362854 0.2104187 -2.3521423 -0.26245117 -3.1811028c-0.4729004 -0.8289566 -1.4790039 -1.317585 -2.574829 -1.7926483c-1.0957947 -0.47506714 -2.612854 -0.61854935 -4.0 -1.0577431c-1.3871155 -0.43919754 -2.978119 -0.9908142 -4.322815 -1.5774269c-1.3447266 -0.5866165 -2.612854 -1.1102371 -3.7454224 -1.9422588c-1.1325378 -0.8320217 -2.3101501 -1.8482056 -3.0498657 -3.0498695c-0.7397156 -1.2016621 -1.226593 -2.703848 -1.388443 -4.1601048c-0.16184998 -1.456255 0.02406311 -3.1671028 0.41732788 -4.577427c0.39326477 -1.4103241 0.9483795 -2.7979012 1.9422455 -3.8845148c0.9938965 -1.0866146 2.5923157 -1.9978132 4.020996 -2.635171c1.4287109 -0.6373577 3.0612488 -0.98818874 4.551178 -1.1889763c1.4899597 -0.20078754 3.057312 -0.163167 4.3884583 -0.015748024c1.3311462 0.14741898 2.5223083 0.51443577 3.5984192 0.90026283c1.0761108 0.38582706 1.9658813 0.83202076 2.8582764 1.4146976c0.892395 0.58267784 1.7537231 1.2458448 2.4960632 2.0813646c0.7423401 0.8355217 1.4816284 1.9453201 1.9580078 2.9317589c0.4763794 0.98643875 1.1627197 2.1889763 0.90026855 2.9868774c-0.2624817 0.79789925 -1.5376282 1.3048992 -2.4750671 1.8005238c-0.93743896 0.49562645 -2.2769165 1.4658794 -3.1496277 1.1732292c-0.87268066 -0.29265022 -1.3739929 -2.0214348 -2.086609 -2.9291344c-0.71258545 -0.9076996 -1.3556213 -1.9098854 -2.1889648 -2.5170593c-0.8333435 -0.6071739 -1.7799683 -0.9650059 -2.8110352 -1.1259842c-1.0310364 -0.16098022 -2.4190674 -0.16666794 -3.3753052 0.16010475c-0.9562683 0.32677078 -1.9125366 1.0691166 -2.3622131 1.8005238c-0.44970703 0.7314091 -0.50701904 1.8451443 -0.33596802 2.5879269c0.17105103 0.7427826 0.42520142 1.3250217 1.3622131 1.8687668c0.9370117 0.54374504 2.572174 0.8390198 4.2598267 1.3937016c1.6876831 0.5546799 4.2410583 1.265091 5.86615 1.9343815c1.6251221 0.66929245 2.7624817 1.2099743 3.8845215 2.0813656c1.1220398 0.8713913 2.1776123 2.107174 2.8477783 3.1469803c0.670166 1.0398102 0.9855652 1.8556442 1.1732178 3.0918655c0.18765259 1.2362213 0.2230835 2.9295692 -0.04724121 4.3254585z" fill-rule="evenodd"/><path fill="#d96248" d="m302.69714 63.56131c-0.21179199 -0.08922577 -0.5791931 -1.1040039 -1.0043335 -1.5255585c-0.4251709 -0.42155457 -0.7340393 -0.7229347 -1.5466309 -1.0037575c-0.8126221 -0.28082275 -1.8124084 0.10257721 -3.3290405 -0.68118286c-1.5166626 -0.7837639 -4.3435974 -2.9601974 -5.770813 -4.021393c-1.4272156 -1.0611954 -1.7532654 -1.3834877 -2.7925415 -2.3457756c-1.0393066 -0.9622917 -2.382965 -2.2943459 -3.4432068 -3.4279556c-1.0602417 -1.1336098 -1.9984741 -2.2662277 -2.9183044 -3.3736954c-0.9197998 -1.1074715 -1.8343201 -2.282196 -2.600586 -3.2711182c-0.7662964 -0.9889221 -2.0430908 -2.5779228 -1.9971008 -2.6624184c0.04598999 -0.084495544 1.1171875 1.1735954 2.2730103 2.1554527c1.1557922 0.9818573 3.328186 2.7091866 4.661804 3.735695c1.3335876 1.0265045 2.5256042 1.8999901 3.3397827 2.4233475c0.814209 0.5233536 1.4321289 0.7319069 1.5454102 0.71678925c0.11325073 -0.01512146 -0.19924927 -0.039138794 -0.8657837 -0.80750275c-0.6665039 -0.76836014 -2.2031555 -2.6255379 -3.1333923 -3.8026657c-0.9302063 -1.1771278 -1.7406311 -2.2842445 -2.4479675 -3.2600975c-0.7073364 -0.97585297 -2.0856018 -2.7719193 -1.796051 -2.5950203c0.28955078 0.17690277 2.3781433 2.5597687 3.5333862 3.6564293c1.1552429 1.0966606 2.3901367 2.0849457 3.3981323 2.9235306c1.0079651 0.8385849 1.7876282 1.4530754 2.6498108 2.1079788c0.8621826 0.6548996 1.7796631 1.295742 2.5232544 1.8214302c0.7436218 0.5256882 0.9316101 0.6139984 1.9383545 1.3326912c1.0067749 0.7186966 3.128357 2.2488518 4.102173 2.9794846c0.9737854 0.7306366 1.2436218 0.82707214 1.7406311 1.4043312c0.49697876 0.57725906 0.9064331 1.3190575 1.241333 2.0592308c0.33493042 0.74017334 0.6073303 1.6365471 0.76815796 2.3818054c0.16082764 0.74526215 0.20846558 1.5764275 0.19689941 2.0897522c-0.01159668 0.51332474 -0.054595947 1.079422 -0.26638794 0.9901924z" fill-rule="evenodd"/><path stroke="#d96248" stroke-width="1.0" stroke-linejoin="round" stroke-linecap="butt" d="m302.69714 63.56131c-0.21179199 -0.08922577 -0.5791931 -1.1040039 -1.0043335 -1.5255585c-0.4251709 -0.42155457 -0.7340393 -0.7229347 -1.5466309 -1.0037575c-0.8126221 -0.28082275 -1.8124084 0.10257721 -3.3290405 -0.68118286c-1.5166626 -0.7837639 -4.3435974 -2.9601974 -5.770813 -4.021393c-1.4272156 -1.0611954 -1.7532654 -1.3834877 -2.7925415 -2.3457756c-1.0393066 -0.9622917 -2.382965 -2.2943459 -3.4432068 -3.4279556c-1.0602417 -1.1336098 -1.9984741 -2.2662277 -2.9183044 -3.3736954c-0.9197998 -1.1074715 -1.8343201 -2.282196 -2.600586 -3.2711182c-0.7662964 -0.9889221 -2.0430908 -2.5779228 -1.9971008 -2.6624184c0.04598999 -0.084495544 1.1171875 1.1735954 2.2730103 2.1554527c1.1557922 0.9818573 3.328186 2.7091866 4.661804 3.735695c1.3335876 1.0265045 2.5256042 1.8999901 3.3397827 2.4233475c0.814209 0.5233536 1.4321289 0.7319069 1.5454102 0.71678925c0.11325073 -0.01512146 -0.19924927 -0.039138794 -0.8657837 -0.80750275c-0.6665039 -0.76836014 -2.2031555 -2.6255379 -3.1333923 -3.8026657c-0.9302063 -1.1771278 -1.7406311 -2.2842445 -2.4479675 -3.2600975c-0.7073364 -0.97585297 -2.0856018 -2.7719193 -1.796051 -2.5950203c0.28955078 0.17690277 2.3781433 2.5597687 3.5333862 3.6564293c1.1552429 1.0966606 2.3901367 2.0849457 3.3981323 2.9235306c1.0079651 0.8385849 1.7876282 1.4530754 2.6498108 2.1079788c0.8621826 0.6548996 1.7796631 1.295742 2.5232544 1.8214302c0.7436218 0.5256882 0.9316101 0.6139984 1.9383545 1.3326912c1.0067749 0.7186966 3.128357 2.2488518 4.102173 2.9794846c0.9737854 0.7306366 1.2436218 0.82707214 1.7406311 1.4043312c0.49697876 0.57725906 0.9064331 1.3190575 1.241333 2.0592308c0.33493042 0.74017334 0.6073303 1.6365471 0.76815796 2.3818054c0.16082764 0.74526215 0.20846558 1.5764275 0.19689941 2.0897522c-0.01159668 0.51332474 -0.054595947 1.079422 -0.26638794 0.9901924z" fill-rule="evenodd"/><path fill="#d96248" d="m274.62686 54.222054c-0.06838989 0.16121674 1.066803 1.6122475 1.6413574 2.313137c0.57455444 0.7008934 1.1629944 1.3034477 1.8059998 1.8922234c0.6430054 0.58877563 1.3818054 1.1567078 2.0520935 1.6404305c0.6703186 0.4837227 1.2484131 0.873909 1.9698181 1.2619057c0.721405 0.38799667 1.6339722 0.77373123 2.358612 1.0660706c0.7246399 0.29233932 1.2741699 0.5152321 1.9892273 0.6879654c0.7150574 0.17272949 1.5414124 0.304348 2.3011475 0.34843063c0.7597351 0.04408264 1.5881348 -0.029953003 2.2572632 -0.083927155c0.66915894 -0.05397415 1.2848511 -0.15895844 1.7575989 -0.23992157c0.4727173 -0.08095932 0.70822144 -0.124622345 1.0787964 -0.24584961c0.37054443 -0.12123108 0.76226807 -0.28916168 1.1445618 -0.48153305c0.38226318 -0.19237518 0.8070984 -0.5044937 1.1491089 -0.6727066c0.3420105 -0.16821289 0.5609741 -0.23136902 0.9029846 -0.3365631c0.34204102 -0.10519409 0.8457031 -0.17824554 1.1491394 -0.29460144c0.30340576 -0.116355896 0.943573 -0.17817307 0.6713257 -0.40353775c-0.2722473 -0.22536469 -2.261322 -0.46217346 -2.30484 -0.9486542c-0.04348755 -0.4864769 1.5184937 -1.4655075 2.0438538 -1.9702148c0.5253296 -0.5047035 0.7937927 -0.75380707 1.1081543 -1.0580139c0.31436157 -0.30421066 0.571167 -0.22550583 0.7780762 -0.767231c0.20687866 -0.54172516 0.38449097 -1.6554108 0.46328735 -2.4831161c0.07879639 -0.8277054 0.10635376 -1.604969 0.009490967 -2.4831161c-0.09686279 -0.8781471 -0.29196167 -1.8302612 -0.5906677 -2.7857704c-0.29873657 -0.9555054 -0.73706055 -2.0203018 -1.2016602 -2.9472656c-0.4645996 -0.9269676 -1.0014343 -1.8036308 -1.5859375 -2.614521c-0.58447266 -0.8108902 -1.331604 -1.6337204 -1.9209595 -2.2508278c-0.589386 -0.6171036 -1.038269 -0.9785385 -1.6152954 -1.4518051c-0.5770569 -0.4732666 -1.662262 -1.3386955 -1.8469543 -1.3877983c-0.18469238 -0.04909897 0.45150757 0.59555817 0.73876953 1.0932007c0.28729248 0.4976387 0.6672363 1.1793175 0.9848938 1.892643c0.317688 0.7133293 0.6741333 1.5436478 0.9212036 2.3873177c0.24710083 0.8436737 0.4595642 1.8167 0.56134033 2.6747131c0.101745605 0.85801315 0.11160278 1.6557617 0.049194336 2.4733658c-0.06237793 0.81760025 -0.2199707 1.7577057 -0.42355347 2.4322472c-0.20358276 0.6745415 -0.41488647 0.9771271 -0.7979431 1.6150017c-0.38302612 0.6378746 -0.91503906 1.5281029 -1.5003052 2.2122536c-0.5852356 0.6841469 -1.3895569 1.4224129 -2.011139 1.892643c-0.62158203 0.4702301 -1.0923767 0.6879654 -1.7182922 0.92873c-0.6259155 0.24076843 -1.2155151 0.3973236 -2.0372314 0.51586914c-0.8217163 0.11854553 -1.9183655 0.23991776 -2.8930664 0.19541168c-0.9746704 -0.044509888 -2.126831 -0.2855568 -2.9550781 -0.46245956c-0.8282776 -0.17689896 -1.2756958 -0.29756546 -2.0144653 -0.59894943c-0.73880005 -0.30138016 -1.6732178 -0.7834778 -2.418213 -1.209343c-0.7449646 -0.42586136 -1.9833069 -1.5070496 -2.0516968 -1.3458328z" fill-rule="evenodd"/><path stroke="#d96248" stroke-width="1.0" stroke-linejoin="round" stroke-linecap="butt" d="m274.62686 54.222054c-0.06838989 0.16121674 1.066803 1.6122475 1.6413574 2.313137c0.57455444 0.7008934 1.1629944 1.3034477 1.8059998 1.8922234c0.6430054 0.58877563 1.3818054 1.1567078 2.0520935 1.6404305c0.6703186 0.4837227 1.2484131 0.873909 1.9698181 1.2619057c0.721405 0.38799667 1.6339722 0.77373123 2.358612 1.0660706c0.7246399 0.29233932 1.2741699 0.5152321 1.9892273 0.6879654c0.7150574 0.17272949 1.5414124 0.304348 2.3011475 0.34843063c0.7597351 0.04408264 1.5881348 -0.029953003 2.2572632 -0.083927155c0.66915894 -0.05397415 1.2848511 -0.15895844 1.7575989 -0.23992157c0.4727173 -0.08095932 0.70822144 -0.124622345 1.0787964 -0.24584961c0.37054443 -0.12123108 0.76226807 -0.28916168 1.1445618 -0.48153305c0.38226318 -0.19237518 0.8070984 -0.5044937 1.1491089 -0.6727066c0.3420105 -0.16821289 0.5609741 -0.23136902 0.9029846 -0.3365631c0.34204102 -0.10519409 0.8457031 -0.17824554 1.1491394 -0.29460144c0.30340576 -0.116355896 0.943573 -0.17817307 0.6713257 -0.40353775c-0.2722473 -0.22536469 -2.261322 -0.46217346 -2.30484 -0.9486542c-0.04348755 -0.4864769 1.5184937 -1.4655075 2.0438538 -1.9702148c0.5253296 -0.5047035 0.7937927 -0.75380707 1.1081543 -1.0580139c0.31436157 -0.30421066 0.571167 -0.22550583 0.7780762 -0.767231c0.20687866 -0.54172516 0.38449097 -1.6554108 0.46328735 -2.4831161c0.07879639 -0.8277054 0.10635376 -1.604969 0.009490967 -2.4831161c-0.09686279 -0.8781471 -0.29196167 -1.8302612 -0.5906677 -2.7857704c-0.29873657 -0.9555054 -0.73706055 -2.0203018 -1.2016602 -2.9472656c-0.4645996 -0.9269676 -1.0014343 -1.8036308 -1.5859375 -2.614521c-0.58447266 -0.8108902 -1.331604 -1.6337204 -1.9209595 -2.2508278c-0.589386 -0.6171036 -1.038269 -0.9785385 -1.6152954 -1.4518051c-0.5770569 -0.4732666 -1.662262 -1.3386955 -1.8469543 -1.3877983c-0.18469238 -0.04909897 0.45150757 0.59555817 0.73876953 1.0932007c0.28729248 0.4976387 0.6672363 1.1793175 0.9848938 1.892643c0.317688 0.7133293 0.6741333 1.5436478 0.9212036 2.3873177c0.24710083 0.8436737 0.4595642 1.8167 0.56134033 2.6747131c0.101745605 0.85801315 0.11160278 1.6557617 0.049194336 2.4733658c-0.06237793 0.81760025 -0.2199707 1.7577057 -0.42355347 2.4322472c-0.20358276 0.6745415 -0.41488647 0.9771271 -0.7979431 1.6150017c-0.38302612 0.6378746 -0.91503906 1.5281029 -1.5003052 2.2122536c-0.5852356 0.6841469 -1.3895569 1.4224129 -2.011139 1.892643c-0.62158203 0.4702301 -1.0923767 0.6879654 -1.7182922 0.92873c-0.6259155 0.24076843 -1.2155151 0.3973236 -2.0372314 0.51586914c-0.8217163 0.11854553 -1.9183655 0.23991776 -2.8930664 0.19541168c-0.9746704 -0.044509888 -2.126831 -0.2855568 -2.9550781 -0.46245956c-0.8282776 -0.17689896 -1.2756958 -0.29756546 -2.0144653 -0.59894943c-0.73880005 -0.30138016 -1.6732178 -0.7834778 -2.418213 -1.209343c-0.7449646 -0.42586136 -1.9833069 -1.5070496 -2.0516968 -1.3458328z" fill-rule="evenodd"/><path fill="#dceeda" d="m20.316996 31.385826l0 0c0 -15.664013 12.204645 -28.362204 27.25984 -28.362204l0 0c7.229763 0 14.16341 2.9881525 19.27562 8.307098c5.112213 5.318944 7.9842224 12.532983 7.9842224 20.055107l0 0c0 15.664013 -12.204643 28.362206 -27.259842 28.362206l0 0c-15.055195 0 -27.25984 -12.698193 -27.25984 -28.362206z" fill-rule="evenodd"/><path stroke="#82ba7a" stroke-width="3.0" stroke-linejoin="round" stroke-linecap="butt" d="m20.316996 31.385826l0 0c0 -15.664013 12.204645 -28.362204 27.25984 -28.362204l0 0c7.229763 0 14.16341 2.9881525 19.27562 8.307098c5.112213 5.318944 7.9842224 12.532983 7.9842224 20.055107l0 0c0 15.664013 -12.204643 28.362206 -27.259842 28.362206l0 0c-15.055195 0 -27.25984 -12.698193 -27.25984 -28.362206z" fill-rule="evenodd"/><path fill="#000000" fill-opacity="0.0" d="m3.023622 62.70083l97.13386 0l0 41.85827l-97.13386 0z" fill-rule="evenodd"/><path fill="#ffffff" d="m17.504972 79.188324l0 3.984375l0.484375 0q0.484375 0 0.6875 0.1875q0.203125 0.171875 0.203125 0.484375q0 0.28125 -0.203125 0.46875q-0.203125 0.1875 -0.6875 0.1875l-1.75 0q-0.484375 0 -0.6875 -0.1875q-0.203125 -0.1875 -0.203125 -0.484375q0 -0.296875 0.203125 -0.46875q0.203125 -0.1875 0.625 -0.1875l0 -5.21875q-0.34375 -0.046875 -0.53125 -0.21875q-0.171875 -0.1875 -0.171875 -0.453125q0 -0.296875 0.203125 -0.484375q0.203125 -0.1875 0.6875 -0.1875l1.453125 0l1.828125 4.015625l1.78125 -4.015625l1.46875 0q0.484375 0 0.6875 0.1875q0.203125 0.1875 0.203125 0.484375q0 0.265625 -0.1875 0.453125q-0.171875 0.171875 -0.515625 0.21875l0 5.21875q0.421875 0 0.625 0.1875q0.203125 0.1875 0.203125 0.484375q0 0.28125 -0.203125 0.46875q-0.203125 0.1875 -0.6875 0.1875l-1.765625 0q-0.46875 0 -0.671875 -0.1875q-0.203125 -0.1875 -0.203125 -0.484375q0 -0.296875 0.203125 -0.46875q0.203125 -0.1875 0.671875 -0.1875l0.5 0l0 -3.984375l-1.53125 3.4375l-1.15625 0l-1.5625 -3.4375zm13.435684 3.03125l-5.46875 0q0.203125 0.53125 0.734375 0.84375q0.53125 0.3125 1.4375 0.3125q0.75 0 1.96875 -0.3125q0.515625 -0.125 0.703125 -0.125q0.265625 0 0.453125 0.1875q0.1875 0.1875 0.1875 0.46875q0 0.265625 -0.203125 0.4375q-0.265625 0.25 -1.28125 0.46875q-1.0 0.21875 -1.921875 0.21875q-1.609375 0 -2.578125 -0.90625q-0.953125 -0.90625 -0.953125 -2.234375q0 -1.40625 1.03125 -2.28125q1.046875 -0.875 2.40625 -0.875q0.8125 0 1.484375 0.28125q0.6875 0.28125 1.015625 0.609375q0.46875 0.484375 0.78125 1.203125q0.203125 0.484375 0.203125 1.140625l0 0.5625zm-1.46875 -1.328125q-0.3125 -0.578125 -0.8125 -0.859375q-0.484375 -0.28125 -1.171875 -0.28125q-0.671875 0 -1.171875 0.28125q-0.5 0.28125 -0.8125 0.859375l3.96875 0zm7.5606823 -0.734375q-0.328125 -0.203125 -0.6875 -0.296875q-0.34375 -0.109375 -0.734375 -0.109375q-0.78125 0 -1.234375 0.25q-0.203125 0.109375 -0.203125 0.25q0 0.140625 0.265625 0.28125q0.21875 0.109375 0.9375 0.203125q1.328125 0.1875 1.84375 0.375q0.6875 0.234375 1.046875 0.71875q0.375 0.46875 0.375 1.0q0 0.703125 -0.625 1.1875q-0.90625 0.703125 -2.34375 0.703125q-0.578125 0 -1.078125 -0.109375q-0.484375 -0.09375 -0.890625 -0.296875q-0.109375 0.09375 -0.21875 0.140625q-0.109375 0.046875 -0.21875 0.046875q-0.3125 0 -0.5 -0.203125q-0.1875 -0.21875 -0.1875 -0.6875l0 -0.453125q0 -0.484375 0.1875 -0.6875q0.1875 -0.203125 0.484375 -0.203125q0.234375 0 0.390625 0.140625q0.171875 0.125 0.265625 0.453125q0.296875 0.25 0.71875 0.390625q0.4375 0.125 1.0 0.125q0.921875 0 1.421875 -0.28125q0.25 -0.140625 0.25 -0.296875q0 -0.265625 -0.34375 -0.4375q-0.34375 -0.15625 -1.421875 -0.28125q-1.609375 -0.171875 -2.15625 -0.65625q-0.53125 -0.46875 -0.53125 -1.171875q0 -0.703125 0.59375 -1.1875q0.828125 -0.640625 2.15625 -0.640625q0.453125 0 0.875 0.09375q0.4375 0.078125 0.828125 0.25q0.125 -0.078125 0.234375 -0.125q0.109375 -0.046875 0.1875 -0.046875q0.28125 0 0.453125 0.203125q0.1875 0.203125 0.1875 0.6875l0 0.328125q0 0.4375 -0.09375 0.59375q-0.21875 0.296875 -0.578125 0.296875q-0.234375 0 -0.421875 -0.140625q-0.171875 -0.15625 -0.234375 -0.40625zm7.998184 0q-0.328125 -0.203125 -0.6875 -0.296875q-0.34375 -0.109375 -0.734375 -0.109375q-0.78125 0 -1.234375 0.25q-0.203125 0.109375 -0.203125 0.25q0 0.140625 0.265625 0.28125q0.21875 0.109375 0.9375 0.203125q1.328125 0.1875 1.84375 0.375q0.6875 0.234375 1.046875 0.71875q0.375 0.46875 0.375 1.0q0 0.703125 -0.625 1.1875q-0.90625 0.703125 -2.34375 0.703125q-0.578125 0 -1.078125 -0.109375q-0.484375 -0.09375 -0.890625 -0.296875q-0.109375 0.09375 -0.21875 0.140625q-0.109375 0.046875 -0.21875 0.046875q-0.3125 0 -0.5 -0.203125q-0.1875 -0.21875 -0.1875 -0.6875l0 -0.453125q0 -0.484375 0.1875 -0.6875q0.1875 -0.203125 0.484375 -0.203125q0.234375 0 0.390625 0.140625q0.171875 0.125 0.265625 0.453125q0.296875 0.25 0.71875 0.390625q0.4375 0.125 1.0 0.125q0.921875 0 1.421875 -0.28125q0.25 -0.140625 0.25 -0.296875q0 -0.265625 -0.34375 -0.4375q-0.34375 -0.15625 -1.421875 -0.28125q-1.609375 -0.171875 -2.15625 -0.65625q-0.53125 -0.46875 -0.53125 -1.171875q0 -0.703125 0.59375 -1.1875q0.828125 -0.640625 2.15625 -0.640625q0.453125 0 0.875 0.09375q0.4375 0.078125 0.828125 0.25q0.125 -0.078125 0.234375 -0.125q0.109375 -0.046875 0.1875 -0.046875q0.28125 0 0.453125 0.203125q0.1875 0.203125 0.1875 0.6875l0 0.328125q0 0.4375 -0.09375 0.59375q-0.21875 0.296875 -0.578125 0.296875q-0.234375 0 -0.421875 -0.140625q-0.171875 -0.15625 -0.234375 -0.40625zm9.904434 2.0625l-5.46875 0q0.203125 0.53125 0.734375 0.84375q0.53125 0.3125 1.4375 0.3125q0.75 0 1.96875 -0.3125q0.515625 -0.125 0.703125 -0.125q0.265625 0 0.453125 0.1875q0.1875 0.1875 0.1875 0.46875q0 0.265625 -0.203125 0.4375q-0.265625 0.25 -1.28125 0.46875q-1.0 0.21875 -1.921875 0.21875q-1.609375 0 -2.578125 -0.90625q-0.953125 -0.90625 -0.953125 -2.234375q0 -1.40625 1.03125 -2.28125q1.046875 -0.875 2.40625 -0.875q0.8125 0 1.484375 0.28125q0.6875 0.28125 1.015625 0.609375q0.46875 0.484375 0.78125 1.203125q0.203125 0.484375 0.203125 1.140625l0 0.5625zm-1.46875 -1.328125q-0.3125 -0.578125 -0.8125 -0.859375q-0.484375 -0.28125 -1.171875 -0.28125q-0.671875 0 -1.171875 0.28125q-0.5 0.28125 -0.8125 0.859375l3.96875 0zm4.779434 -2.296875l0 0.453125q0.359375 -0.3125 0.796875 -0.46875q0.4375 -0.15625 0.953125 -0.15625q1.1875 0 1.875 0.734375q0.546875 0.578125 0.546875 1.53125l0 2.484375q0.421875 0 0.625 0.1875q0.203125 0.171875 0.203125 0.484375q0 0.28125 -0.203125 0.46875q-0.203125 0.1875 -0.6875 0.1875l-1.203125 0q-0.484375 0 -0.6875 -0.1875q-0.203125 -0.1875 -0.203125 -0.484375q0 -0.296875 0.1875 -0.46875q0.203125 -0.1875 0.640625 -0.1875l0 -2.53125q0 -0.421875 -0.234375 -0.625q-0.3125 -0.265625 -0.921875 -0.265625q-0.46875 0 -0.8125 0.1875q-0.34375 0.171875 -0.875 0.75l0 2.484375q0.5 0 0.65625 0.09375q0.3125 0.1875 0.3125 0.578125q0 0.28125 -0.203125 0.46875q-0.203125 0.1875 -0.6875 0.1875l-1.515625 0q-0.484375 0 -0.6875 -0.1875q-0.203125 -0.1875 -0.203125 -0.484375q0 -0.359375 0.3125 -0.5625q0.15625 -0.09375 0.671875 -0.09375l0 -3.25q-0.421875 0 -0.625 -0.1875q-0.203125 -0.1875 -0.203125 -0.484375q0 -0.28125 0.203125 -0.46875q0.203125 -0.1875 0.6875 -0.1875l1.28125 0zm10.810688 0.390625l0 -0.390625l1.5625 0q0.484375 0 0.6875 0.1875q0.203125 0.1875 0.203125 0.484375q0 0.28125 -0.203125 0.46875q-0.203125 0.1875 -0.6875 0.1875l-0.234375 0l0 4.859375q0 0.703125 -0.296875 1.21875q-0.296875 0.53125 -0.90625 0.90625q-0.609375 0.375 -1.375 0.375l-1.515625 0q-0.484375 0 -0.6875 -0.1875q-0.203125 -0.171875 -0.203125 -0.46875q0 -0.296875 0.203125 -0.484375q0.203125 -0.1875 0.6875 -0.1875l1.46875 0q0.625 0 0.953125 -0.34375q0.34375 -0.328125 0.34375 -0.828125l0 -0.65625q-0.4375 0.296875 -0.90625 0.4375q-0.453125 0.140625 -0.9375 0.140625q-1.359375 0 -2.28125 -0.90625q-0.921875 -0.90625 -0.921875 -2.25q0 -1.328125 0.921875 -2.234375q0.921875 -0.921875 2.28125 -0.921875q0.5 0 0.953125 0.15625q0.46875 0.140625 0.890625 0.4375zm-0.015625 2.5625q0 -0.734375 -0.546875 -1.265625q-0.53125 -0.546875 -1.296875 -0.546875q-0.765625 0 -1.3125 0.546875q-0.53125 0.53125 -0.53125 1.265625q0 0.734375 0.53125 1.28125q0.546875 0.53125 1.3125 0.53125q0.765625 0 1.296875 -0.53125q0.546875 -0.546875 0.546875 -1.28125zm9.888809 0.671875l-5.46875 0q0.203125 0.53125 0.734375 0.84375q0.53125 0.3125 1.4375 0.3125q0.75 0 1.96875 -0.3125q0.515625 -0.125 0.703125 -0.125q0.265625 0 0.453125 0.1875q0.1875 0.1875 0.1875 0.46875q0 0.265625 -0.203125 0.4375q-0.265625 0.25 -1.28125 0.46875q-1.0 0.21875 -1.921875 0.21875q-1.609375 0 -2.578125 -0.90625q-0.953125 -0.90625 -0.953125 -2.234375q0 -1.40625 1.03125 -2.28125q1.046875 -0.875 2.40625 -0.875q0.8125 0 1.484375 0.28125q0.6875 0.28125 1.015625 0.609375q0.46875 0.484375 0.78125 1.203125q0.203125 0.484375 0.203125 1.140625l0 0.5625zm-1.46875 -1.328125q-0.3125 -0.578125 -0.8125 -0.859375q-0.484375 -0.28125 -1.171875 -0.28125q-0.671875 0 -1.171875 0.28125q-0.5 0.28125 -0.8125 0.859375l3.96875 0zm5.841934 -2.296875l0 0.828125q0.84375 -0.609375 1.328125 -0.796875q0.484375 -0.203125 0.90625 -0.203125q0.65625 0 1.265625 0.46875q0.421875 0.328125 0.421875 0.671875q0 0.28125 -0.203125 0.484375q-0.203125 0.203125 -0.484375 0.203125q-0.25 0 -0.53125 -0.25q-0.265625 -0.25 -0.46875 -0.25q-0.28125 0 -0.84375 0.359375q-0.546875 0.34375 -1.390625 1.046875l0 2.015625l1.90625 0q0.484375 0 0.6875 0.1875q0.203125 0.171875 0.203125 0.484375q0 0.28125 -0.203125 0.46875q-0.203125 0.1875 -0.6875 0.1875l-4.03125 0q-0.484375 0 -0.6875 -0.1875q-0.203125 -0.1875 -0.203125 -0.484375q0 -0.296875 0.203125 -0.46875q0.203125 -0.1875 0.6875 -0.1875l0.796875 0l0 -3.25l-0.484375 0q-0.484375 0 -0.6875 -0.1875q-0.203125 -0.1875 -0.203125 -0.484375q0 -0.28125 0.203125 -0.46875q0.203125 -0.1875 0.6875 -0.1875l1.8125 0z" fill-rule="nonzero"/><path fill="#ffffff" d="m12.615255 99.1727l0 -5.21875q-0.421875 -0.015625 -0.625 -0.203125q-0.203125 -0.1875 -0.203125 -0.46875q0 -0.296875 0.203125 -0.484375q0.203125 -0.1875 0.6875 -0.1875l2.796875 0q0.640625 0 1.265625 0.25q0.625 0.234375 1.0 0.609375q0.296875 0.28125 0.59375 0.765625q0.3125 0.484375 0.46875 0.96875q0.15625 0.484375 0.15625 1.171875l0 0.640625q0 0.84375 -0.296875 1.5q-0.28125 0.65625 -0.75 1.078125q-0.453125 0.40625 -0.859375 0.59375q-0.65625 0.3125 -1.6875 0.3125l-2.6875 0q-0.484375 0 -0.6875 -0.1875q-0.203125 -0.1875 -0.203125 -0.484375q0 -0.296875 0.203125 -0.484375q0.203125 -0.1875 0.625 -0.171875zm1.328125 0l1.421875 0q0.796875 0 1.203125 -0.234375q0.53125 -0.296875 0.796875 -0.75q0.265625 -0.46875 0.265625 -1.203125l0 -0.640625q0 -0.625 -0.25 -1.109375q-0.375 -0.734375 -0.84375 -1.0q-0.46875 -0.28125 -1.1875 -0.28125l-1.40625 0l0 5.21875zm10.857559 1.328125l0 -0.3125q-0.5 0.265625 -1.109375 0.390625q-0.609375 0.140625 -1.09375 0.140625q-1.078125 0 -1.75 -0.5625q-0.671875 -0.578125 -0.671875 -1.265625q0 -0.84375 0.859375 -1.5625q0.859375 -0.71875 2.359375 -0.71875q0.609375 0 1.40625 0.140625l0 -0.328125q0 -0.296875 -0.265625 -0.484375q-0.25 -0.1875 -0.96875 -0.1875q-0.59375 0 -1.546875 0.234375q-0.34375 0.078125 -0.546875 0.078125q-0.265625 0 -0.453125 -0.1875q-0.171875 -0.1875 -0.171875 -0.484375q0 -0.171875 0.0625 -0.296875q0.0625 -0.125 0.171875 -0.203125q0.125 -0.078125 0.5 -0.171875q0.484375 -0.140625 1.0 -0.21875q0.515625 -0.078125 0.9375 -0.078125q1.234375 0 1.921875 0.53125q0.6875 0.53125 0.6875 1.46875l0 2.75l0.234375 0q0.484375 0 0.6875 0.1875q0.203125 0.171875 0.203125 0.484375q0 0.28125 -0.203125 0.46875q-0.203125 0.1875 -0.6875 0.1875l-1.5625 0zm0 -2.390625q-0.796875 -0.15625 -1.484375 -0.15625q-0.8125 0 -1.390625 0.40625q-0.375 0.25 -0.375 0.5q0 0.203125 0.1875 0.3125q0.3125 0.21875 0.890625 0.21875q0.46875 0 1.078125 -0.1875q0.609375 -0.1875 1.09375 -0.515625l0 -0.578125zm6.466934 -2.1875l0 2.671875q0 0.4375 0.171875 0.578125q0.28125 0.203125 0.9843731 0.203125q1.015625 0 1.875 -0.4375q0.34375 -0.15625 0.53125 -0.15625q0.25 0 0.4375 0.203125q0.203125 0.1875 0.203125 0.46875q0 0.25 -0.203125 0.4375q-0.328125 0.3125 -1.265625 0.578125q-0.9375 0.25 -1.578125 0.25q-1.2499981 0 -1.8749981 -0.53125q-0.609375 -0.546875 -0.609375 -1.328125l0 -2.9375l-0.484375 0q-0.484375 0 -0.6875 -0.1875q-0.203125 -0.1875 -0.203125 -0.484375q0 -0.28125 0.203125 -0.46875q0.203125 -0.1875 0.6875 -0.1875l0.484375 0l0 -1.203125q0 -0.484375 0.171875 -0.6875q0.1875 -0.203125 0.484375 -0.203125q0.296875 0 0.484375 0.203125q0.1875 0.203125 0.1875 0.6875l0 1.203125l2.468748 0q0.484375 0 0.6875 0.1875q0.203125 0.1875 0.203125 0.484375q0 0.28125 -0.203125 0.46875q-0.203125 0.1875 -0.6875 0.1875l-2.468748 0zm9.529432 4.578125l0 -0.3125q-0.5 0.265625 -1.109375 0.390625q-0.609375 0.140625 -1.09375 0.140625q-1.078125 0 -1.75 -0.5625q-0.671875 -0.578125 -0.671875 -1.265625q0 -0.84375 0.859375 -1.5625q0.859375 -0.71875 2.359375 -0.71875q0.609375 0 1.40625 0.140625l0 -0.328125q0 -0.296875 -0.265625 -0.484375q-0.25 -0.1875 -0.96875 -0.1875q-0.59375 0 -1.546875 0.234375q-0.34375 0.078125 -0.546875 0.078125q-0.265625 0 -0.453125 -0.1875q-0.171875 -0.1875 -0.171875 -0.484375q0 -0.171875 0.0625 -0.296875q0.0625 -0.125 0.171875 -0.203125q0.125 -0.078125 0.5 -0.171875q0.484375 -0.140625 1.0 -0.21875q0.515625 -0.078125 0.9375 -0.078125q1.234375 0 1.921875 0.53125q0.6875 0.53125 0.6875 1.46875l0 2.75l0.234375 0q0.484375 0 0.6875 0.1875q0.203125 0.171875 0.203125 0.484375q0 0.28125 -0.203125 0.46875q-0.203125 0.1875 -0.6875 0.1875l-1.5625 0zm0 -2.390625q-0.796875 -0.15625 -1.484375 -0.15625q-0.8125 0 -1.390625 0.40625q-0.375 0.25 -0.375 0.5q0 0.203125 0.1875 0.3125q0.3125 0.21875 0.890625 0.21875q0.46875 0 1.078125 -0.1875q0.609375 -0.1875 1.09375 -0.515625l0 -0.578125zm4.841934 2.046875q-0.171875 0.21875 -0.28125 0.28125q-0.109375 0.046875 -0.265625 0.046875q-0.296875 0 -0.484375 -0.203125q-0.1875 -0.203125 -0.1875 -0.671875l0 -0.90625q0 -0.484375 0.1875 -0.6875q0.1875 -0.203125 0.484375 -0.203125q0.234375 0 0.390625 0.125q0.171875 0.125 0.25 0.421875q0.078125 0.28125 0.171875 0.390625q0.1875 0.1875 0.671875 0.40625q0.484375 0.203125 1.0625 0.203125q0.890625 0 1.453125 -0.421875q0.375 -0.25 0.375 -0.625q0 -0.234375 -0.1875 -0.453125q-0.171875 -0.21875 -0.5625 -0.359375q-0.265625 -0.109375 -1.171875 -0.28125q-1.09375 -0.1875 -1.65625 -0.46875q-0.546875 -0.296875 -0.875 -0.8125q-0.328125 -0.53125 -0.328125 -1.125q0 -0.96875 0.796875 -1.6875q0.796875 -0.71875 2.078125 -0.71875q0.515625 0 0.953125 0.125q0.453125 0.109375 0.8125 0.34375q0.25 -0.25 0.515625 -0.25q0.296875 0 0.46875 0.203125q0.1875 0.203125 0.1875 0.671875l0 1.0q0 0.484375 -0.1875 0.6875q-0.171875 0.203125 -0.46875 0.203125q-0.25 0 -0.4375 -0.140625q-0.140625 -0.109375 -0.21875 -0.4375q-0.0625 -0.34375 -0.171875 -0.484375q-0.1875 -0.25 -0.5625 -0.40625q-0.375 -0.171875 -0.875 -0.171875q-0.71875 0 -1.140625 0.34375q-0.421875 0.328125 -0.421875 0.6875q0 0.25 0.171875 0.484375q0.171875 0.21875 0.5 0.359375q0.21875 0.078125 1.25 0.28125q1.03125 0.203125 1.578125 0.453125q0.546875 0.234375 0.90625 0.75q0.375 0.515625 0.375 1.21875q0 1.0 -0.703125 1.59375q-0.921875 0.765625 -2.359375 0.765625q-0.546875 0 -1.078125 -0.140625q-0.515625 -0.125 -1.015625 -0.390625zm13.420059 -2.5q0 0.765625 -0.4375 1.484375q-0.421875 0.71875 -1.265625 1.15625q-0.84375 0.421875 -1.75 0.421875q-0.921875 0 -1.75 -0.421875q-0.828125 -0.421875 -1.265625 -1.140625q-0.4375 -0.71875 -0.4375 -1.515625q0 -0.796875 0.4375 -1.5625q0.4375 -0.78125 1.265625 -1.21875q0.84375 -0.4375 1.75 -0.4375q0.90625 0 1.75 0.453125q0.84375 0.4375 1.265625 1.203125q0.4375 0.765625 0.4375 1.578125zm-1.34375 0q0 -0.640625 -0.453125 -1.171875q-0.640625 -0.734375 -1.65625 -0.734375q-0.90625 0 -1.515625 0.578125q-0.609375 0.578125 -0.609375 1.34375q0 0.625 0.609375 1.171875q0.625 0.53125 1.515625 0.53125q0.890625 0 1.5 -0.53125q0.609375 -0.546875 0.609375 -1.1875zm8.701313 -3.0625l0 4.578125q0.421875 0 0.6249924 0.1875q0.203125 0.1875 0.203125 0.484375q0 0.28125 -0.203125 0.46875q-0.20311737 0.1875 -0.6874924 0.1875l-1.265625 0l0 -0.3125q-0.578125 0.265625 -1.0937538 0.390625q-0.515625 0.140625 -0.984375 0.140625q-0.65625 0 -1.140625 -0.28125q-0.484375 -0.28125 -0.765625 -0.765625q-0.203125 -0.34375 -0.203125 -0.875l0 -2.875l-0.21875 0q-0.484375 0 -0.703125 -0.1875q-0.203125 -0.1875 -0.203125 -0.484375q0 -0.28125 0.203125 -0.46875q0.21875 -0.1875 0.703125 -0.1875l1.5625 0l0 3.96875q0 0.421875 0.203125 0.625q0.203125 0.1875 0.625 0.1875q0.40625 0 0.859375 -0.15625q0.4687538 -0.15625 1.1562538 -0.578125l0 -2.71875l-0.484375 0q-0.484375 0 -0.6875038 -0.1875q-0.203125 -0.1875 -0.203125 -0.484375q0 -0.28125 0.203125 -0.46875q0.20312881 -0.1875 0.6875038 -0.1875l1.8125 0zm4.8888016 0l0 0.828125q0.84375 -0.609375 1.328125 -0.796875q0.484375 -0.203125 0.90625 -0.203125q0.65625 0 1.265625 0.46875q0.421875 0.328125 0.421875 0.671875q0 0.28125 -0.203125 0.484375q-0.203125 0.203125 -0.484375 0.203125q-0.25 0 -0.53125 -0.25q-0.265625 -0.25 -0.46875 -0.25q-0.28125 0 -0.84375 0.359375q-0.546875 0.34375 -1.390625 1.046875l0 2.015625l1.90625 0q0.484375 0 0.6875 0.1875q0.203125 0.171875 0.203125 0.484375q0 0.28125 -0.203125 0.46875q-0.203125 0.1875 -0.6875 0.1875l-4.03125 0q-0.484375 0 -0.6875 -0.1875q-0.203125 -0.1875 -0.203125 -0.484375q0 -0.296875 0.203125 -0.46875q0.203125 -0.1875 0.6875 -0.1875l0.796875 0l0 -3.25l-0.484375 0q-0.484375 0 -0.6875 -0.1875q-0.203125 -0.1875 -0.203125 -0.484375q0 -0.28125 0.203125 -0.46875q0.203125 -0.1875 0.6875 -0.1875l1.8125 0zm10.357559 0.234375q0.234375 -0.21875 0.5 -0.21875q0.28125 0 0.46875 0.203125q0.1875 0.203125 0.1875 0.671875l0 0.859375q0 0.484375 -0.1875 0.6875q-0.1875 0.203125 -0.484375 0.203125q-0.28125 0 -0.46875 -0.15625q-0.125 -0.125 -0.203125 -0.484375q-0.078125 -0.359375 -0.390625 -0.53125q-0.515625 -0.3125 -1.34375 -0.3125q-0.9375 0 -1.515625 0.5625q-0.5625 0.546875 -0.5625 1.390625q0 0.78125 0.546875 1.234375q0.546875 0.453125 1.8125 0.453125q0.828125 0 1.359375 -0.171875q0.3125 -0.109375 0.59375 -0.359375q0.28125 -0.25 0.5 -0.25q0.28125 0 0.46875 0.203125q0.203125 0.203125 0.203125 0.484375q0 0.4375 -0.59375 0.828125q-0.90625 0.59375 -2.640625 0.59375q-1.546875 0 -2.421875 -0.640625q-1.171875 -0.859375 -1.171875 -2.375q0 -1.421875 0.953125 -2.34375q0.953125 -0.9375 2.484375 -0.9375q0.546875 0 1.015625 0.109375q0.484375 0.09375 0.890625 0.296875zm9.263809 3.390625l-5.46875 0q0.203125 0.53125 0.734375 0.84375q0.53125 0.3125 1.4375 0.3125q0.75 0 1.96875 -0.3125q0.515625 -0.125 0.703125 -0.125q0.265625 0 0.453125 0.1875q0.1875 0.1875 0.1875 0.46875q0 0.265625 -0.203125 0.4375q-0.265625 0.25 -1.28125 0.46875q-1.0 0.21875 -1.921875 0.21875q-1.609375 0 -2.578125 -0.90625q-0.953125 -0.90625 -0.953125 -2.234375q0 -1.40625 1.03125 -2.28125q1.046875 -0.875 2.40625 -0.875q0.8125 0 1.484375 0.28125q0.6875 0.28125 1.015625 0.609375q0.46875 0.484375 0.78125 1.203125q0.203125 0.484375 0.203125 1.140625l0 0.5625zm-1.46875 -1.328125q-0.3125 -0.578125 -0.8125 -0.859375q-0.484375 -0.28125 -1.171875 -0.28125q-0.671875 0 -1.171875 0.28125q-0.5 0.28125 -0.8125 0.859375l3.96875 0z" fill-rule="nonzero"/><path fill="#d96248" d="m82.68161 63.63743c-0.21178436 -0.089229584 -0.5791702 -1.1040077 -1.0043335 -1.5255623c-0.42516327 -0.42155075 -0.73402405 -0.7229347 -1.5466309 -1.0037575c-0.81261444 -0.28082275 -1.8124008 0.102581024 -3.3290405 -0.68118286c-1.5166473 -0.7837639 -4.343582 -2.9601974 -5.770813 -4.021393c-1.4272232 -1.0611954 -1.7532425 -1.3834877 -2.7925339 -2.3457756c-1.0392914 -0.9622879 -2.382965 -2.2943459 -3.4432144 -3.4279556c-1.0602455 -1.133606 -1.9984703 -2.2662277 -2.9182854 -3.3736954c-0.91981506 -1.1074677 -1.8343239 -2.282196 -2.6006088 -3.2711182c-0.7662811 -0.9889221 -2.0430756 -2.5779228 -1.9970932 -2.6624184c0.045986176 -0.084495544 1.1171951 1.1735954 2.2729988 2.1554527c1.1557999 0.9818573 3.3282127 2.7091866 4.6618195 3.735695c1.3335953 1.0265083 2.5255966 1.8999901 3.3397903 2.4233475c0.81420135 0.5233574 1.4321213 0.7319069 1.5453949 0.71678925c0.11326599 -0.015117645 -0.19924164 -0.039138794 -0.86576843 -0.80749893c-0.6665268 -0.76836395 -2.2031631 -2.6255417 -3.1333847 -3.8026695c-0.9302292 -1.1771278 -1.7406349 -2.2842445 -2.4479713 -3.2600975c-0.70734024 -0.97584915 -2.085617 -2.7719193 -1.7960625 -2.5950203c0.2895546 0.17690277 2.3781357 2.5597687 3.5333862 3.6564293c1.1552505 1.0966606 2.390129 2.0849457 3.398117 2.9235306c1.0079956 0.8385849 1.7876511 1.4530754 2.6498337 2.1079788c0.8621826 0.6548996 1.7796555 1.295742 2.5232544 1.8214302c0.74359894 0.5256882 0.9316025 0.6139984 1.9383545 1.332695c1.006752 0.7186966 3.128357 2.248848 4.10215 2.9794846c0.97380066 0.7306328 1.2436371 0.8270683 1.7406311 1.4043274c0.49700165 0.57725906 0.90644073 1.3190575 1.2413635 2.0592308c0.33491516 0.74017334 0.6072998 1.6365471 0.7681427 2.3818092c0.1608429 0.74525833 0.20848083 1.5764236 0.19689941 2.0897484c-0.01158905 0.51332474 -0.054603577 1.079422 -0.26639557 0.9901962z" fill-rule="evenodd"/><path stroke="#d96248" stroke-width="1.0" stroke-linejoin="round" stroke-linecap="butt" d="m82.68161 63.63743c-0.21178436 -0.089229584 -0.5791702 -1.1040077 -1.0043335 -1.5255623c-0.42516327 -0.42155075 -0.73402405 -0.7229347 -1.5466309 -1.0037575c-0.81261444 -0.28082275 -1.8124008 0.102581024 -3.3290405 -0.68118286c-1.5166473 -0.7837639 -4.343582 -2.9601974 -5.770813 -4.021393c-1.4272232 -1.0611954 -1.7532425 -1.3834877 -2.7925339 -2.3457756c-1.0392914 -0.9622879 -2.382965 -2.2943459 -3.4432144 -3.4279556c-1.0602455 -1.133606 -1.9984703 -2.2662277 -2.9182854 -3.3736954c-0.91981506 -1.1074677 -1.8343239 -2.282196 -2.6006088 -3.2711182c-0.7662811 -0.9889221 -2.0430756 -2.5779228 -1.9970932 -2.6624184c0.045986176 -0.084495544 1.1171951 1.1735954 2.2729988 2.1554527c1.1557999 0.9818573 3.3282127 2.7091866 4.6618195 3.735695c1.3335953 1.0265083 2.5255966 1.8999901 3.3397903 2.4233475c0.81420135 0.5233574 1.4321213 0.7319069 1.5453949 0.71678925c0.11326599 -0.015117645 -0.19924164 -0.039138794 -0.86576843 -0.80749893c-0.6665268 -0.76836395 -2.2031631 -2.6255417 -3.1333847 -3.8026695c-0.9302292 -1.1771278 -1.7406349 -2.2842445 -2.4479713 -3.2600975c-0.70734024 -0.97584915 -2.085617 -2.7719193 -1.7960625 -2.5950203c0.2895546 0.17690277 2.3781357 2.5597687 3.5333862 3.6564293c1.1552505 1.0966606 2.390129 2.0849457 3.398117 2.9235306c1.0079956 0.8385849 1.7876511 1.4530754 2.6498337 2.1079788c0.8621826 0.6548996 1.7796555 1.295742 2.5232544 1.8214302c0.74359894 0.5256882 0.9316025 0.6139984 1.9383545 1.332695c1.006752 0.7186966 3.128357 2.248848 4.10215 2.9794846c0.97380066 0.7306328 1.2436371 0.8270683 1.7406311 1.4043274c0.49700165 0.57725906 0.90644073 1.3190575 1.2413635 2.0592308c0.33491516 0.74017334 0.6072998 1.6365471 0.7681427 2.3818092c0.1608429 0.74525833 0.20848083 1.5764236 0.19689941 2.0897484c-0.01158905 0.51332474 -0.054603577 1.079422 -0.26639557 0.9901962z" fill-rule="evenodd"/><path fill="#d96248" d="m54.611347 54.29817c-0.06838989 0.16122055 1.0667992 1.6122475 1.6413574 2.3131409c0.57455444 0.7008934 1.1629715 1.3034439 1.8059883 1.8922195c0.643013 0.58877563 1.3817902 1.1567116 2.0521088 1.6404343c0.6703148 0.4837227 1.2483902 0.8739052 1.9697914 1.2619019c0.721405 0.38799667 1.6339798 0.77373123 2.3586235 1.0660706c0.7246399 0.29233932 1.2741776 0.5152321 1.9892349 0.6879654c0.7150574 0.1727333 1.5413895 0.304348 2.3011246 0.34843063c0.7597351 0.044086456 1.5881348 -0.029953003 2.2572784 -0.083927155c0.6691437 -0.05397415 1.2848587 -0.15895844 1.7575912 -0.23991776c0.47273254 -0.080963135 0.7082367 -0.124622345 1.0787964 -0.24585342c0.3705597 -0.12123108 0.7622833 -0.28916168 1.1445618 -0.48153305c0.38228607 -0.19237518 0.8070984 -0.5044937 1.1491165 -0.6727066c0.34201813 -0.16820908 0.5609741 -0.23136902 0.90299225 -0.3365631c0.34201813 -0.10519409 0.8457031 -0.17824173 1.1491165 -0.29460144c0.3034134 -0.116355896 0.9436035 -0.17817307 0.6713562 -0.40353775c-0.27225494 -0.22536469 -2.2613525 -0.46217346 -2.3048553 -0.9486542c-0.04349518 -0.4864769 1.5185089 -1.4655075 2.0438385 -1.9702148c0.5253372 -0.5047035 0.7937927 -0.75380707 1.1081619 -1.0580139c0.31437683 -0.30420685 0.57118225 -0.22550583 0.7780762 -0.767231c0.20689392 -0.54172516 0.38448334 -1.6554108 0.46328735 -2.4831161c0.07879639 -0.8277054 0.10637665 -1.604969 0.009513855 -2.4831161c-0.09686279 -0.8781471 -0.2919693 -1.8302612 -0.5906906 -2.7857666c-0.2987213 -0.9555092 -0.7370529 -2.0203056 -1.2016525 -2.9472694c-0.46459198 -0.9269676 -1.001442 -1.8036308 -1.5859222 -2.614521c-0.5844879 -0.8108902 -1.331604 -1.6337204 -1.9209824 -2.2508278c-0.589386 -0.6171036 -1.0382614 -0.9785347 -1.6152954 -1.4518013c-0.5770416 -0.47327042 -1.6622467 -1.3386993 -1.8469467 -1.3877983c-0.18469238 -0.049102783 0.45149994 0.59555817 0.73877716 1.0931969c0.28727722 0.4976387 0.66721344 1.1793175 0.9849014 1.892643c0.31768036 0.7133293 0.6741028 1.5436478 0.92118835 2.3873177c0.2470932 0.8436737 0.4595642 1.8167 0.5613251 2.6747131c0.101753235 0.85801315 0.11161804 1.6557617 0.049224854 2.4733658c-0.06239319 0.81760406 -0.21999359 1.7577057 -0.42357635 2.4322472c-0.20358276 0.6745453 -0.41488647 0.9771271 -0.79792786 1.6150017c-0.38304138 0.6378746 -0.91506195 1.5281029 -1.5003052 2.2122536c-0.5852432 0.6841507 -1.3895798 1.4224167 -2.0111542 1.892643c-0.6215744 0.4702301 -1.0923767 0.6879654 -1.7182999 0.9287338c-0.6259155 0.24076462 -1.2154999 0.3973198 -2.0372162 0.5158653c-0.8217087 0.11854553 -1.9183578 0.23991776 -2.8930511 0.19541168c-0.9746971 -0.044509888 -2.1268463 -0.2855568 -2.9551086 -0.46245956c-0.8282585 -0.17689896 -1.2756882 -0.29756546 -2.0144653 -0.59894943c-0.73877716 -0.30138016 -1.6732063 -0.7834778 -2.4181862 -1.2093391c-0.7449837 -0.42586517 -1.9833069 -1.5070534 -2.0516968 -1.3458366z" fill-rule="evenodd"/><path stroke="#d96248" stroke-width="1.0" stroke-linejoin="round" stroke-linecap="butt" d="m54.611347 54.29817c-0.06838989 0.16122055 1.0667992 1.6122475 1.6413574 2.3131409c0.57455444 0.7008934 1.1629715 1.3034439 1.8059883 1.8922195c0.643013 0.58877563 1.3817902 1.1567116 2.0521088 1.6404343c0.6703148 0.4837227 1.2483902 0.8739052 1.9697914 1.2619019c0.721405 0.38799667 1.6339798 0.77373123 2.3586235 1.0660706c0.7246399 0.29233932 1.2741776 0.5152321 1.9892349 0.6879654c0.7150574 0.1727333 1.5413895 0.304348 2.3011246 0.34843063c0.7597351 0.044086456 1.5881348 -0.029953003 2.2572784 -0.083927155c0.6691437 -0.05397415 1.2848587 -0.15895844 1.7575912 -0.23991776c0.47273254 -0.080963135 0.7082367 -0.124622345 1.0787964 -0.24585342c0.3705597 -0.12123108 0.7622833 -0.28916168 1.1445618 -0.48153305c0.38228607 -0.19237518 0.8070984 -0.5044937 1.1491165 -0.6727066c0.34201813 -0.16820908 0.5609741 -0.23136902 0.90299225 -0.3365631c0.34201813 -0.10519409 0.8457031 -0.17824173 1.1491165 -0.29460144c0.3034134 -0.116355896 0.9436035 -0.17817307 0.6713562 -0.40353775c-0.27225494 -0.22536469 -2.2613525 -0.46217346 -2.3048553 -0.9486542c-0.04349518 -0.4864769 1.5185089 -1.4655075 2.0438385 -1.9702148c0.5253372 -0.5047035 0.7937927 -0.75380707 1.1081619 -1.0580139c0.31437683 -0.30420685 0.57118225 -0.22550583 0.7780762 -0.767231c0.20689392 -0.54172516 0.38448334 -1.6554108 0.46328735 -2.4831161c0.07879639 -0.8277054 0.10637665 -1.604969 0.009513855 -2.4831161c-0.09686279 -0.8781471 -0.2919693 -1.8302612 -0.5906906 -2.7857666c-0.2987213 -0.9555092 -0.7370529 -2.0203056 -1.2016525 -2.9472694c-0.46459198 -0.9269676 -1.001442 -1.8036308 -1.5859222 -2.614521c-0.5844879 -0.8108902 -1.331604 -1.6337204 -1.9209824 -2.2508278c-0.589386 -0.6171036 -1.0382614 -0.9785347 -1.6152954 -1.4518013c-0.5770416 -0.47327042 -1.6622467 -1.3386993 -1.8469467 -1.3877983c-0.18469238 -0.049102783 0.45149994 0.59555817 0.73877716 1.0931969c0.28727722 0.4976387 0.66721344 1.1793175 0.9849014 1.892643c0.31768036 0.7133293 0.6741028 1.5436478 0.92118835 2.3873177c0.2470932 0.8436737 0.4595642 1.8167 0.5613251 2.6747131c0.101753235 0.85801315 0.11161804 1.6557617 0.049224854 2.4733658c-0.06239319 0.81760406 -0.21999359 1.7577057 -0.42357635 2.4322472c-0.20358276 0.6745453 -0.41488647 0.9771271 -0.79792786 1.6150017c-0.38304138 0.6378746 -0.91506195 1.5281029 -1.5003052 2.2122536c-0.5852432 0.6841507 -1.3895798 1.4224167 -2.0111542 1.892643c-0.6215744 0.4702301 -1.0923767 0.6879654 -1.7182999 0.9287338c-0.6259155 0.24076462 -1.2154999 0.3973198 -2.0372162 0.5158653c-0.8217087 0.11854553 -1.9183578 0.23991776 -2.8930511 0.19541168c-0.9746971 -0.044509888 -2.1268463 -0.2855568 -2.9551086 -0.46245956c-0.8282585 -0.17689896 -1.2756882 -0.29756546 -2.0144653 -0.59894943c-0.73877716 -0.30138016 -1.6732063 -0.7834778 -2.4181862 -1.2093391c-0.7449837 -0.42586517 -1.9833069 -1.5070534 -2.0516968 -1.3458366z" fill-rule="evenodd"/><path fill="#dceeda" d="m38.34081 51.36314c0.73534775 0.63517 2.4899406 0.50131226 3.9107628 0.50131226c1.4208221 0 3.8114624 0.017059326 4.614174 -0.50131226c0.8027115 -0.5183716 0.16841507 -0.20166397 0.20209885 -2.6089249c0.033683777 -2.407261 -0.5682411 -9.477688 0 -11.834644c0.5682411 -2.3569565 1.8547668 -1.6885376 3.4094505 -2.307087c1.5546799 -0.61854935 4.1132965 -0.41775894 5.9186325 -1.4041977c1.805336 -0.98644257 3.877079 -2.5918655 4.9133873 -4.5144367c1.0363083 -1.9225731 1.4549408 -4.86483 1.3044624 -7.020998c-0.15048218 -2.156168 -0.8534584 -4.2445316 -2.2073517 -5.916011c-1.3538933 -1.6714783 -4.0271187 -3.1767273 -5.916008 -4.1128607c-1.8888893 -0.9361334 -3.427822 -1.2699041 -5.417324 -1.5039368c-1.989502 -0.23403358 -4.7309723 -0.0839901 -6.519684 0.09973717c-1.7887154 0.18372726 -3.4435692 -0.18416405 -4.2126007 1.0026245c-0.7690277 1.1867895 -0.31801987 3.5940514 -0.40157318 6.1181107c-0.083553314 2.5240593 -0.083114624 3.9107609 -0.099739075 9.026247c-0.016620636 5.115484 -0.0835495 17.503935 0 21.666666c0.083553314 4.162731 -0.23403168 2.6745415 0.50131226 3.3097115z" fill-rule="evenodd"/><path stroke="#82ba7a" stroke-width="3.0" stroke-linejoin="round" stroke-linecap="butt" d="m38.34081 51.36314c0.73534775 0.63517 2.4899406 0.50131226 3.9107628 0.50131226c1.4208221 0 3.8114624 0.017059326 4.614174 -0.50131226c0.8027115 -0.5183716 0.16841507 -0.20166397 0.20209885 -2.6089249c0.033683777 -2.407261 -0.5682411 -9.477688 0 -11.834644c0.5682411 -2.3569565 1.8547668 -1.6885376 3.4094505 -2.307087c1.5546799 -0.61854935 4.1132965 -0.41775894 5.9186325 -1.4041977c1.805336 -0.98644257 3.877079 -2.5918655 4.9133873 -4.5144367c1.0363083 -1.9225731 1.4549408 -4.86483 1.3044624 -7.020998c-0.15048218 -2.156168 -0.8534584 -4.2445316 -2.2073517 -5.916011c-1.3538933 -1.6714783 -4.0271187 -3.1767273 -5.916008 -4.1128607c-1.8888893 -0.9361334 -3.427822 -1.2699041 -5.417324 -1.5039368c-1.989502 -0.23403358 -4.7309723 -0.0839901 -6.519684 0.09973717c-1.7887154 0.18372726 -3.4435692 -0.18416405 -4.2126007 1.0026245c-0.7690277 1.1867895 -0.31801987 3.5940514 -0.40157318 6.1181107c-0.083553314 2.5240593 -0.083114624 3.9107609 -0.099739075 9.026247c-0.016620636 5.115484 -0.0835495 17.503935 0 21.666666c0.083553314 4.162731 -0.23403168 2.6745415 0.50131226 3.3097115z" fill-rule="evenodd"/><path fill="#dceeda" d="m54.16145 22.249561l0 0.47725487l0 0c0 1.2398224 -0.49251938 2.4288654 -1.3692055 3.3055534c-0.8766861 0.876688 -2.065731 1.3692055 -3.3055534 1.3692055l-4.742565 0c-4.5776367E-5 0 -8.010864E-5 -3.6239624E-5 -8.010864E-5 -8.201599E-5l8.010864E-5 -9.826691l0 0c0 -4.386902E-5 3.8146973E-5 -8.201599E-5 8.392334E-5 -8.201599E-5l4.742481 8.201599E-5l0 0c2.5817986 0 4.674759 2.0929623 4.674759 4.674759z" fill-rule="evenodd"/><path stroke="#82ba7a" stroke-width="3.0" stroke-linejoin="round" stroke-linecap="butt" d="m54.16145 22.249561l0 0.47725487l0 0c0 1.2398224 -0.49251938 2.4288654 -1.3692055 3.3055534c-0.8766861 0.876688 -2.065731 1.3692055 -3.3055534 1.3692055l-4.742565 0c-4.5776367E-5 0 -8.010864E-5 -3.6239624E-5 -8.010864E-5 -8.201599E-5l8.010864E-5 -9.826691l0 0c0 -4.386902E-5 3.8146973E-5 -8.201599E-5 8.392334E-5 -8.201599E-5l4.742481 8.201599E-5l0 0c2.5817986 0 4.674759 2.0929623 4.674759 4.674759z" fill-rule="evenodd"/></g></svg>