<svg version="1.1" viewBox="0.0 0.0 376.06299212598424 107.71653543307086" fill="none" stroke="none" stroke-linecap="square" stroke-miterlimit="10" xmlns:xlink="http://www.w3.org/1999/xlink" xmlns="http://www.w3.org/2000/svg"><clipPath id="p.0"><path d="m0 0l376.063 0l0 107.71654l-376.063 0l0 -107.71654z" clip-rule="nonzero"/></clipPath><g clip-path="url(#p.0)"><path fill="#000000" fill-opacity="0.0" d="m0 0l376.063 0l0 107.71654l-376.063 0z" fill-rule="evenodd"/><path fill="#000000" fill-opacity="0.0" d="m284.74332 31.4042l-205.32281 -0.031496048" fill-rule="evenodd"/><path stroke="#ffffff" stroke-width="3.0" stroke-linejoin="round" stroke-linecap="butt" stroke-dasharray="12.0,9.0" d="m274.4621 31.402622l-195.0416 -0.02991867" fill-rule="evenodd"/><path fill="#ffffff" stroke="#ffffff" stroke-width="3.0" stroke-linecap="butt" d="m274.46207 31.402622l-3.3742676 3.3732338l9.269836 -3.3723297l-9.268799 -3.3751717z" fill-rule="evenodd"/><path fill="#000000" fill-opacity="0.0" d="m93.007614 3.574832l169.07088 0l0 27.622047l-169.07088 0z" fill-rule="evenodd"/><path fill="#ffffff" d="m98.99961 19.031082q-0.328125 -0.203125 -0.6875 -0.296875q-0.34375 -0.109375 -0.734375 -0.109375q-0.78125 0 -1.234375 0.25q-0.203125 0.109375 -0.203125 0.25q0 0.140625 0.265625 0.28125q0.21875 0.109375 0.9375 0.203125q1.328125 0.1875 1.84375 0.375q0.6875 0.234375 1.046875 0.71875q0.375 0.46875 0.375 1.0q0 0.703125 -0.625 1.1875q-0.90625 0.703125 -2.34375 0.703125q-0.578125 0 -1.078125 -0.109375q-0.484375 -0.09375 -0.890625 -0.296875q-0.109375 0.09375 -0.21875 0.140625q-0.109375 0.046875 -0.21875 0.046875q-0.3125 0 -0.5 -0.203125q-0.1875 -0.21875 -0.1875 -0.6875l0 -0.453125q0 -0.484375 0.1875 -0.6875q0.1875 -0.203125 0.484375 -0.203125q0.234375 0 0.390625 0.140625q0.171875 0.125 0.265625 0.453125q0.296875 0.25 0.71875 0.390625q0.4375 0.125 1.0 0.125q0.921875 0 1.421875 -0.28125q0.25 -0.140625 0.25 -0.296875q0 -0.265625 -0.34375 -0.4375q-0.34375 -0.15625 -1.421875 -0.28125q-1.609375 -0.171875 -2.15625 -0.65625q-0.53125 -0.46875 -0.53125 -1.171875q0 -0.703125 0.59375 -1.1875q0.828125 -0.640625 2.15625 -0.640625q0.453125 0 0.875 0.09375q0.4375 0.078125 0.828125 0.25q0.125 -0.078125 0.234375 -0.125q0.109375 -0.046875 0.1875 -0.046875q0.28125 0 0.453125 0.203125q0.1875 0.203125 0.1875 0.6875l0 0.328125q0 0.4375 -0.09375 0.59375q-0.21875 0.296875 -0.578125 0.296875q-0.234375 0 -0.421875 -0.140625q-0.171875 -0.15625 -0.234375 -0.40625zm9.904434 2.0625l-5.46875 0q0.203125 0.53125 0.734375 0.84375q0.53125 0.3125 1.4375 0.3125q0.75 0 1.96875 -0.3125q0.515625 -0.125 0.703125 -0.125q0.265625 0 0.453125 0.1875q0.1875 0.1875 0.1875 0.46875q0 0.265625 -0.203125 0.4375q-0.265625 0.25 -1.28125 0.46875q-1.0 0.21875 -1.921875 0.21875q-1.609375 0 -2.578125 -0.90625q-0.953125 -0.90625 -0.953125 -2.234375q0 -1.40625 1.03125 -2.28125q1.046875 -0.875 2.40625 -0.875q0.8125 0 1.484375 0.28125q0.6875 0.28125 1.015625 0.609375q0.46875 0.484375 0.78125 1.203125q0.203125 0.484375 0.203125 1.140625l0 0.5625zm-1.46875 -1.328125q-0.3125 -0.578125 -0.8125 -0.859375q-0.484375 -0.28125 -1.171875 -0.28125q-0.671875 0 -1.171875 0.28125q-0.5 0.28125 -0.8125 0.859375l3.96875 0zm6.795059 -4.828126l0 7.109376l1.59375 0q0.484375 0 0.6875 0.1875q0.203125 0.171875 0.203125 0.484375q0 0.28125 -0.203125 0.46875q-0.203125 0.1875 -0.6875 0.1875l-4.53125 0q-0.484375 0 -0.6875 -0.1875q-0.203125 -0.1875 -0.203125 -0.484375q0 -0.296875 0.203125 -0.46875q0.203125 -0.1875 0.6875 -0.1875l1.59375 0l0 -5.78125l-1.0625 0q-0.484375 0 -0.703125 -0.1875q-0.203125 -0.18750095 -0.203125 -0.48437595q0 -0.28125 0.203125 -0.46875q0.21875 -0.1875 0.703125 -0.1875l2.40625 0zm10.670059 6.156251l-5.46875 0q0.203125 0.53125 0.734375 0.84375q0.53125 0.3125 1.4375 0.3125q0.75 0 1.96875 -0.3125q0.515625 -0.125 0.703125 -0.125q0.265625 0 0.453125 0.1875q0.1875 0.1875 0.1875 0.46875q0 0.265625 -0.203125 0.4375q-0.265625 0.25 -1.28125 0.46875q-1.0 0.21875 -1.921875 0.21875q-1.609375 0 -2.578125 -0.90625q-0.953125 -0.90625 -0.953125 -2.234375q0 -1.40625 1.03125 -2.28125q1.046875 -0.875 2.40625 -0.875q0.8125 0 1.484375 0.28125q0.6875 0.28125 1.015625 0.609375q0.46875 0.484375 0.78125 1.203125q0.203125 0.484375 0.203125 1.140625l0 0.5625zm-1.46875 -1.328125q-0.3125 -0.578125 -0.8125 -0.859375q-0.484375 -0.28125 -1.171875 -0.28125q-0.671875 0 -1.171875 0.28125q-0.5 0.28125 -0.8125 0.859375l3.96875 0zm8.201302 -2.0625q0.234375 -0.21875 0.5 -0.21875q0.28125 0 0.46875 0.203125q0.1875 0.203125 0.1875 0.671875l0 0.859375q0 0.484375 -0.1875 0.6875q-0.1875 0.203125 -0.484375 0.203125q-0.28125 0 -0.46875 -0.15625q-0.125 -0.125 -0.203125 -0.484375q-0.078125 -0.359375 -0.390625 -0.53125q-0.515625 -0.3125 -1.34375 -0.3125q-0.9375 0 -1.515625 0.5625q-0.5624924 0.546875 -0.5624924 1.390625q0 0.78125 0.5468674 1.234375q0.546875 0.453125 1.8125 0.453125q0.828125 0 1.359375 -0.171875q0.3125 -0.109375 0.59375 -0.359375q0.28125 -0.25 0.5 -0.25q0.28125 0 0.46875 0.203125q0.203125 0.203125 0.203125 0.484375q0 0.4375 -0.59375 0.828125q-0.90625 0.59375 -2.640625 0.59375q-1.546875 0 -2.4218674 -0.640625q-1.171875 -0.859375 -1.171875 -2.375q0 -1.421875 0.953125 -2.34375q0.9531174 -0.9375 2.4843674 -0.9375q0.546875 0 1.015625 0.109375q0.484375 0.09375 0.890625 0.296875zm5.591934 1.09375l0 2.671875q0 0.4375 0.171875 0.578125q0.28125 0.203125 0.984375 0.203125q1.015625 0 1.875 -0.4375q0.34375 -0.15625 0.53125 -0.15625q0.25 0 0.4375 0.203125q0.203125 0.1875 0.203125 0.46875q0 0.25 -0.203125 0.4375q-0.328125 0.3125 -1.265625 0.578125q-0.9375 0.25 -1.578125 0.25q-1.25 0 -1.875 -0.53125q-0.609375 -0.546875 -0.609375 -1.328125l0 -2.9375l-0.484375 0q-0.484375 0 -0.6875 -0.1875q-0.203125 -0.1875 -0.203125 -0.484375q0 -0.28125 0.203125 -0.46875q0.203125 -0.1875 0.6875 -0.1875l0.484375 0l0 -1.203125q0 -0.48437595 0.171875 -0.68750095q0.1875 -0.203125 0.484375 -0.203125q0.296875 0 0.484375 0.203125q0.1875 0.203125 0.1875 0.68750095l0 1.203125l2.46875 0q0.484375 0 0.6875 0.1875q0.203125 0.1875 0.203125 0.484375q0 0.28125 -0.203125 0.46875q-0.203125 0.1875 -0.6875 0.1875l-2.46875 0zm10.420059 -2.968751q0.125 -0.171875 0.265625 -0.25q0.15625 -0.09375 0.3125 -0.09375q0.296875 0 0.484375 0.203125q0.1875 0.203125 0.1875 0.68750095l0 1.125q0 0.484375 -0.1875 0.6875q-0.1875 0.203125 -0.484375 0.203125q-0.265625 0 -0.421875 -0.140625q-0.171875 -0.15625 -0.25 -0.5625q-0.03125 -0.28125 -0.171875 -0.421875q-0.265625 -0.296875 -0.75 -0.46875q-0.484375 -0.171875 -0.953125 -0.171875q-0.609375 0 -1.109375 0.265625q-0.5 0.25 -0.890625 0.84375q-0.375 0.578125 -0.375 1.390625l0 0.859375q0 0.96875 0.703125 1.609375q0.703125 0.640625 1.9375 0.640625q0.75 0 1.265625 -0.203125q0.296875 -0.109375 0.625 -0.453125q0.21875 -0.21875 0.328125 -0.28125q0.125 -0.0625 0.265625 -0.0625q0.265625 0 0.46875 0.203125q0.203125 0.203125 0.203125 0.484375q0 0.265625 -0.265625 0.578125q-0.40625 0.453125 -1.03125 0.71875q-0.828125 0.34375 -1.84375 0.34375q-1.1875 0 -2.140625 -0.484375q-0.765625 -0.390625 -1.3125 -1.234375q-0.53125 -0.84375 -0.53125 -1.828125l0 -0.90625q0 -1.046875 0.484375 -1.9375q0.484375 -0.90625 1.34375 -1.390626q0.859375 -0.5 1.8125 -0.5q0.578125 0 1.078125 0.140625q0.515625 0.125 0.953125 0.40625zm9.373184 4.703126q0 0.765625 -0.4375 1.484375q-0.421875 0.71875 -1.265625 1.15625q-0.84375 0.421875 -1.75 0.421875q-0.921875 0 -1.75 -0.421875q-0.828125 -0.421875 -1.265625 -1.140625q-0.4375 -0.71875 -0.4375 -1.515625q0 -0.796875 0.4375 -1.5625q0.4375 -0.78125 1.265625 -1.21875q0.84375 -0.4375 1.75 -0.4375q0.90625 0 1.75 0.453125q0.84375 0.4375 1.265625 1.203125q0.4375 0.765625 0.4375 1.578125zm-1.34375 0q0 -0.640625 -0.453125 -1.171875q-0.640625 -0.734375 -1.65625 -0.734375q-0.90625 0 -1.515625 0.578125q-0.609375 0.578125 -0.609375 1.34375q0 0.625 0.609375 1.171875q0.625 0.53125 1.515625 0.53125q0.890625 0 1.5 -0.53125q0.609375 -0.546875 0.609375 -1.1875zm4.529434 -3.0625l0 0.453125q0.359375 -0.3125 0.796875 -0.46875q0.4375 -0.15625 0.953125 -0.15625q1.1875 0 1.875 0.734375q0.546875 0.578125 0.546875 1.53125l0 2.484375q0.421875 0 0.625 0.1875q0.203125 0.171875 0.203125 0.484375q0 0.28125 -0.203125 0.46875q-0.203125 0.1875 -0.6875 0.1875l-1.203125 0q-0.484375 0 -0.6875 -0.1875q-0.203125 -0.1875 -0.203125 -0.484375q0 -0.296875 0.1875 -0.46875q0.203125 -0.1875 0.640625 -0.1875l0 -2.53125q0 -0.421875 -0.234375 -0.625q-0.3125 -0.265625 -0.921875 -0.265625q-0.46875 0 -0.8125 0.1875q-0.34375 0.171875 -0.875 0.75l0 2.484375q0.5 0 0.65625 0.09375q0.3125 0.1875 0.3125 0.578125q0 0.28125 -0.203125 0.46875q-0.203125 0.1875 -0.6875 0.1875l-1.515625 0q-0.484375 0 -0.6875 -0.1875q-0.203125 -0.1875 -0.203125 -0.484375q0 -0.359375 0.3125 -0.5625q0.15625 -0.09375 0.671875 -0.09375l0 -3.25q-0.421875 0 -0.625 -0.1875q-0.203125 -0.1875 -0.203125 -0.484375q0 -0.28125 0.203125 -0.46875q0.203125 -0.1875 0.6875 -0.1875l1.28125 0zm9.013809 1.328125l0 2.671875q0 0.4375 0.171875 0.578125q0.28125 0.203125 0.984375 0.203125q1.015625 0 1.875 -0.4375q0.34375 -0.15625 0.53125 -0.15625q0.25 0 0.4375 0.203125q0.203125 0.1875 0.203125 0.46875q0 0.25 -0.203125 0.4375q-0.328125 0.3125 -1.265625 0.578125q-0.9375 0.25 -1.578125 0.25q-1.25 0 -1.875 -0.53125q-0.609375 -0.546875 -0.609375 -1.328125l0 -2.9375l-0.484375 0q-0.484375 0 -0.6875 -0.1875q-0.203125 -0.1875 -0.203125 -0.484375q0 -0.28125 0.203125 -0.46875q0.203125 -0.1875 0.6875 -0.1875l0.484375 0l0 -1.203125q0 -0.48437595 0.171875 -0.68750095q0.1875 -0.203125 0.484375 -0.203125q0.296875 0 0.484375 0.203125q0.1875 0.203125 0.1875 0.68750095l0 1.203125l2.46875 0q0.484375 0 0.6875 0.1875q0.203125 0.1875 0.203125 0.484375q0 0.28125 -0.203125 0.46875q-0.203125 0.1875 -0.6875 0.1875l-2.46875 0zm9.529434 4.578125l0 -0.3125q-0.5 0.265625 -1.109375 0.390625q-0.609375 0.140625 -1.09375 0.140625q-1.078125 0 -1.75 -0.5625q-0.671875 -0.578125 -0.671875 -1.265625q0 -0.84375 0.859375 -1.5625q0.859375 -0.71875 2.359375 -0.71875q0.609375 0 1.40625 0.140625l0 -0.328125q0 -0.296875 -0.265625 -0.484375q-0.25 -0.1875 -0.96875 -0.1875q-0.59375 0 -1.546875 0.234375q-0.34375 0.078125 -0.546875 0.078125q-0.265625 0 -0.453125 -0.1875q-0.171875 -0.1875 -0.171875 -0.484375q0 -0.171875 0.0625 -0.296875q0.0625 -0.125 0.171875 -0.203125q0.125 -0.078125 0.5 -0.171875q0.484375 -0.140625 1.0 -0.21875q0.515625 -0.078125 0.9375 -0.078125q1.234375 0 1.921875 0.53125q0.6875 0.53125 0.6875 1.46875l0 2.75l0.234375 0q0.484375 0 0.6875 0.1875q0.203125 0.171875 0.203125 0.484375q0 0.28125 -0.203125 0.46875q-0.203125 0.1875 -0.6875 0.1875l-1.5625 0zm0 -2.390625q-0.796875 -0.15625 -1.484375 -0.15625q-0.8125 0 -1.390625 0.40625q-0.375 0.25 -0.375 0.5q0 0.203125 0.1875 0.3125q0.3125 0.21875 0.890625 0.21875q0.46875 0 1.078125 -0.1875q0.609375 -0.1875 1.09375 -0.515625l0 -0.578125zm8.873184 -3.28125q0.234375 -0.21875 0.5 -0.21875q0.28125 0 0.46875 0.203125q0.1875 0.203125 0.1875 0.671875l0 0.859375q0 0.484375 -0.1875 0.6875q-0.1875 0.203125 -0.484375 0.203125q-0.28125 0 -0.46875 -0.15625q-0.125 -0.125 -0.203125 -0.484375q-0.078125 -0.359375 -0.390625 -0.53125q-0.515625 -0.3125 -1.34375 -0.3125q-0.9375 0 -1.515625 0.5625q-0.5625 0.546875 -0.5625 1.390625q0 0.78125 0.546875 1.234375q0.546875 0.453125 1.8125 0.453125q0.828125 0 1.359375 -0.171875q0.3125 -0.109375 0.59375 -0.359375q0.28125 -0.25 0.5 -0.25q0.28125 0 0.46875 0.203125q0.203125 0.203125 0.203125 0.484375q0 0.4375 -0.59375 0.828125q-0.90625 0.59375 -2.640625 0.59375q-1.546875 0 -2.421875 -0.640625q-1.171875 -0.859375 -1.171875 -2.375q0 -1.421875 0.953125 -2.34375q0.953125 -0.9375 2.484375 -0.9375q0.546875 0 1.015625 0.109375q0.484375 0.09375 0.890625 0.296875zm5.591934 1.09375l0 2.671875q0 0.4375 0.171875 0.578125q0.28125 0.203125 0.984375 0.203125q1.015625 0 1.875 -0.4375q0.34375 -0.15625 0.53125 -0.15625q0.25 0 0.4375 0.203125q0.203125 0.1875 0.203125 0.46875q0 0.25 -0.203125 0.4375q-0.328125 0.3125 -1.265625 0.578125q-0.9375 0.25 -1.578125 0.25q-1.25 0 -1.875 -0.53125q-0.609375 -0.546875 -0.609375 -1.328125l0 -2.9375l-0.484375 0q-0.484375 0 -0.6875 -0.1875q-0.203125 -0.1875 -0.203125 -0.484375q0 -0.28125 0.203125 -0.46875q0.203125 -0.1875 0.6875 -0.1875l0.484375 0l0 -1.203125q0 -0.48437595 0.171875 -0.68750095q0.1875 -0.203125 0.484375 -0.203125q0.296875 0 0.484375 0.203125q0.1875 0.203125 0.1875 0.68750095l0 1.203125l2.46875 0q0.484375 0 0.6875 0.1875q0.203125 0.1875 0.203125 0.484375q0 0.28125 -0.203125 0.46875q-0.203125 0.1875 -0.6875 0.1875l-2.46875 0zm7.841934 1.34375q0 -1.140625 0.375 -2.3125q0.28125 -0.859375 0.875 -1.906251q0.421875 -0.765625 0.625 -0.9375q0.203125 -0.171875 0.453125 -0.171875q0.28125 0 0.46875 0.203125q0.203125 0.1875 0.203125 0.46875q0 0.1875 -0.15625 0.453125q-0.703125 1.140626 -1.03125 2.156251q-0.3125 1.0 -0.3125 2.046875q0 1.03125 0.3125 2.046875q0.328125 1.0 1.03125 2.15625q0.15625 0.25 0.15625 0.453125q0 0.265625 -0.203125 0.453125q-0.1875 0.203125 -0.46875 0.203125q-0.25 0 -0.421875 -0.15625q-0.265625 -0.21875 -0.703125 -1.015625q-0.609375 -1.15625 -0.84375 -1.90625q-0.359375 -1.140625 -0.359375 -2.234375zm11.951309 0.390625q0 0.765625 -0.4375 1.484375q-0.421875 0.71875 -1.265625 1.15625q-0.84375 0.421875 -1.75 0.421875q-0.921875 0 -1.75 -0.421875q-0.828125 -0.421875 -1.265625 -1.140625q-0.4375 -0.71875 -0.4375 -1.515625q0 -0.796875 0.4375 -1.5625q0.4375 -0.78125 1.265625 -1.21875q0.84375 -0.4375 1.75 -0.4375q0.90625 0 1.75 0.453125q0.84375 0.4375 1.265625 1.203125q0.4375 0.765625 0.4375 1.578125zm-1.34375 0q0 -0.640625 -0.453125 -1.171875q-0.640625 -0.734375 -1.65625 -0.734375q-0.90625 0 -1.515625 0.578125q-0.609375 0.578125 -0.609375 1.34375q0 0.625 0.609375 1.171875q0.625 0.53125 1.515625 0.53125q0.890625 0 1.5 -0.53125q0.609375 -0.546875 0.609375 -1.1875zm5.857559 -1.734375l0 3.25l1.90625 0q0.484375 0 0.6875 0.1875q0.203125 0.171875 0.203125 0.484375q0 0.28125 -0.203125 0.46875q-0.203125 0.1875 -0.6875 0.1875l-4.03125 0q-0.484375 0 -0.6875 -0.1875q-0.203125 -0.1875 -0.203125 -0.484375q0 -0.296875 0.203125 -0.46875q0.203125 -0.1875 0.6875 -0.1875l0.796875 0l0 -3.25l-0.640625 0q-0.484375 0 -0.6875 -0.1875q-0.203125 -0.1875 -0.203125 -0.484375q0 -0.28125 0.203125 -0.46875q0.203125 -0.1875 0.6875 -0.1875l0.640625 0l0 -0.515625q0 -0.859375 0.65625 -1.437501q0.65625 -0.578125 1.890625 -0.578125q0.5625 0 1.28125 0.109375q0.71875 0.09375 0.921875 0.28125q0.21875 0.171875 0.21875 0.453125q0 0.31250095 -0.1875 0.51562595q-0.1875 0.1875 -0.453125 0.1875q-0.125 0 -0.359375 -0.046875q-0.828125 -0.171875 -1.46875 -0.171875q-0.671875 0 -0.921875 0.203125q-0.25 0.203125 -0.25 0.484375l0 0.515625l2.0625 0q0.484375 0 0.6875 0.1875q0.203125 0.1875 0.203125 0.484375q0 0.28125 -0.203125 0.46875q-0.203125 0.1875 -0.6875 0.1875l-2.0625 0zm9.013824 -0.4375q0 0.375 -0.265625 0.640625q-0.265625 0.25 -0.734375 0.25q-0.46875 0 -0.734375 -0.25q-0.265625 -0.265625 -0.265625 -0.640625q0 -0.375 0.265625 -0.625q0.265625 -0.265625 0.734375 -0.265625q0.46875 0 0.734375 0.265625q0.265625 0.25 0.265625 0.625zm0.015625 4.359375q0 0.390625 -0.265625 0.640625q-0.265625 0.25 -0.734375 0.25q-0.46875 0 -0.734375 -0.25q-0.265625 -0.25 -0.265625 -0.640625q0 -0.375 0.265625 -0.625q0.265625 -0.25 0.734375 -0.25q0.46875 0 0.734375 0.25q0.265625 0.25 0.265625 0.625zm15.465118 -7.781251l0 1.406251l-1.59375 0l0 -1.406251l1.59375 0zm0.171875 2.531251l0 4.578125l1.609375 0q0.46875 0 0.671875 0.1875q0.21875 0.171875 0.21875 0.484375q0 0.28125 -0.21875 0.46875q-0.203125 0.1875 -0.671875 0.1875l-4.546875 0q-0.46875 0 -0.6875 -0.1875q-0.203125 -0.1875 -0.203125 -0.484375q0 -0.296875 0.203125 -0.46875q0.21875 -0.1875 0.6875 -0.1875l1.609375 0l0 -3.25l-1.078125 0q-0.46875 0 -0.6875 -0.1875q-0.203125 -0.1875 -0.203125 -0.484375q0 -0.28125 0.203125 -0.46875q0.203125 -0.1875 0.6875 -0.1875l2.40625 0zm10.404419 -2.531251l0 7.109376l0.21875 0q0.484375 0 0.6875 0.1875q0.21875 0.171875 0.21875 0.484375q0 0.28125 -0.21875 0.46875q-0.203125 0.1875 -0.6875 0.1875l-1.546875 0l0 -0.328125q-0.46875 0.265625 -0.96875 0.40625q-0.484375 0.140625 -1.03125 0.140625q-1.5 0 -2.421875 -0.859375q-0.90625 -0.875 -0.90625 -2.171875q0 -1.359375 0.953125 -2.3125q0.96875 -0.953125 2.359375 -0.953125q0.515625 0 1.015625 0.15625q0.5 0.15625 1.0 0.46875l0 -1.65625l-0.234375 0q-0.484375 0 -0.6875 -0.1875q-0.203125 -0.18750095 -0.203125 -0.46875095q0 -0.296875 0.203125 -0.484375q0.203125 -0.1875 0.6875 -0.1875l1.5625 0zm-1.328125 5.656251q0 -0.828125 -0.59375 -1.390625q-0.578125 -0.578125 -1.40625 -0.578125q-0.84375 0 -1.421875 0.578125q-0.578125 0.5625 -0.578125 1.375q0 0.734375 0.515625 1.203125q0.53125 0.46875 1.484375 0.46875q0.9375 0 1.46875 -0.46875q0.53125 -0.46875 0.53125 -1.1875zm6.826309 -0.453125q0 1.125 -0.375 2.296875q-0.28125 0.859375 -0.859375 1.90625q-0.421875 0.765625 -0.625 0.9375q-0.203125 0.171875 -0.45310974 0.171875q-0.28125 0 -0.484375 -0.203125q-0.1875 -0.1875 -0.1875 -0.453125q0 -0.203125 0.15625 -0.453125q0.703125 -1.15625 1.0156097 -2.15625q0.328125 -1.015625 0.328125 -2.046875q0 -1.046875 -0.328125 -2.046875q-0.31248474 -1.015625 -1.0156097 -2.156251q-0.15625 -0.265625 -0.15625 -0.453125q0 -0.28125 0.1875 -0.46875q0.203125 -0.203125 0.484375 -0.203125q0.24998474 0 0.42185974 0.15625q0.265625 0.21875 0.6875 1.03125q0.625 1.140626 0.84375 1.890626q0.359375 1.15625 0.359375 2.25z" fill-rule="nonzero"/><path fill="#000000" fill-opacity="0.0" d="m267.56693 62.721786l105.38583 0l0 41.85827l-105.38583 0z" fill-rule="evenodd"/><path fill="#ffffff" d="m274.3654 76.97491q0.125 -0.171875 0.265625 -0.25q0.15625 -0.09375 0.3125 -0.09375q0.296875 0 0.484375 0.203125q0.1875 0.203125 0.1875 0.6875l0 1.125q0 0.484375 -0.1875 0.6875q-0.1875 0.203125 -0.484375 0.203125q-0.265625 0 -0.421875 -0.140625q-0.171875 -0.15625 -0.25 -0.5625q-0.03125 -0.28125 -0.171875 -0.421875q-0.265625 -0.296875 -0.75 -0.46875q-0.484375 -0.171875 -0.953125 -0.171875q-0.609375 0 -1.109375 0.265625q-0.5 0.25 -0.890625 0.84375q-0.375 0.578125 -0.375 1.390625l0 0.859375q0 0.96875 0.703125 1.609375q0.703125 0.640625 1.9375 0.640625q0.75 0 1.265625 -0.203125q0.296875 -0.109375 0.625 -0.453125q0.21875 -0.21875 0.328125 -0.28125q0.125 -0.0625 0.265625 -0.0625q0.265625 0 0.46875 0.203125q0.203125 0.203125 0.203125 0.484375q0 0.265625 -0.265625 0.578125q-0.40625 0.453125 -1.03125 0.71875q-0.828125 0.34375 -1.84375 0.34375q-1.1875 0 -2.140625 -0.484375q-0.765625 -0.390625 -1.3125 -1.234375q-0.53125 -0.84375 -0.53125 -1.828125l0 -0.90625q0 -1.046875 0.484375 -1.9375q0.484375 -0.90625 1.34375 -1.390625q0.859375 -0.5 1.8125 -0.5q0.578125 0 1.078125 0.140625q0.515625 0.125 0.953125 0.40625zm9.373199 4.703125q0 0.765625 -0.4375 1.484375q-0.421875 0.71875 -1.265625 1.15625q-0.84375 0.421875 -1.75 0.421875q-0.921875 0 -1.75 -0.421875q-0.828125 -0.421875 -1.265625 -1.140625q-0.4375 -0.71875 -0.4375 -1.515625q0 -0.796875 0.4375 -1.5625q0.4375 -0.78125 1.265625 -1.21875q0.84375 -0.4375 1.75 -0.4375q0.90625 0 1.75 0.453125q0.84375 0.4375 1.265625 1.203125q0.4375 0.765625 0.4375 1.578125zm-1.34375 0q0 -0.640625 -0.453125 -1.171875q-0.640625 -0.734375 -1.65625 -0.734375q-0.90625 0 -1.515625 0.578125q-0.609375 0.578125 -0.609375 1.34375q0 0.625 0.609375 1.171875q0.625 0.53125 1.515625 0.53125q0.890625 0 1.5 -0.53125q0.609375 -0.546875 0.609375 -1.1875zm4.529419 -3.0625l0 0.453125q0.359375 -0.3125 0.796875 -0.46875q0.4375 -0.15625 0.953125 -0.15625q1.1875 0 1.875 0.734375q0.546875 0.578125 0.546875 1.53125l0 2.484375q0.421875 0 0.625 0.1875q0.203125 0.171875 0.203125 0.484375q0 0.28125 -0.203125 0.46875q-0.203125 0.1875 -0.6875 0.1875l-1.203125 0q-0.484375 0 -0.6875 -0.1875q-0.203125 -0.1875 -0.203125 -0.484375q0 -0.296875 0.1875 -0.46875q0.203125 -0.1875 0.640625 -0.1875l0 -2.53125q0 -0.421875 -0.234375 -0.625q-0.3125 -0.265625 -0.921875 -0.265625q-0.46875 0 -0.8125 0.1875q-0.34375 0.171875 -0.875 0.75l0 2.484375q0.5 0 0.65625 0.09375q0.3125 0.1875 0.3125 0.578125q0 0.28125 -0.203125 0.46875q-0.203125 0.1875 -0.6875 0.1875l-1.515625 0q-0.484375 0 -0.6875 -0.1875q-0.203125 -0.1875 -0.203125 -0.484375q0 -0.359375 0.3125 -0.5625q0.15625 -0.09375 0.671875 -0.09375l0 -3.25q-0.421875 0 -0.625 -0.1875q-0.203125 -0.1875 -0.203125 -0.484375q0 -0.28125 0.203125 -0.46875q0.203125 -0.1875 0.6875 -0.1875l1.28125 0zm9.357574 4.28125l1.4375 -2.953125q-0.546875 0 -0.6875 -0.09375q-0.328125 -0.203125 -0.328125 -0.578125q0 -0.28125 0.203125 -0.46875q0.203125 -0.1875 0.6875 -0.1875l1.828125 0q0.484375 0 0.6875 0.1875q0.203125 0.1875 0.203125 0.484375q0 0.28125 -0.203125 0.46875q-0.203125 0.1875 -0.6875 0.1875l-0.21875 0l-2.234375 4.578125l-1.390625 0l-2.234375 -4.578125l-0.1875 0q-0.484375 0 -0.6875 -0.1875q-0.203125 -0.1875 -0.203125 -0.484375q0 -0.28125 0.203125 -0.46875q0.203125 -0.1875 0.6875 -0.1875l1.796875 0q0.46875 0 0.671875 0.1875q0.203125 0.1875 0.203125 0.484375q0 0.359375 -0.3125 0.5625q-0.15625 0.09375 -0.6875 0.09375l1.453125 2.953125zm11.326294 -0.65625l-5.46875 0q0.203125 0.53125 0.734375 0.84375q0.53125 0.3125 1.4375 0.3125q0.75 0 1.96875 -0.3125q0.515625 -0.125 0.703125 -0.125q0.265625 0 0.453125 0.1875q0.1875 0.1875 0.1875 0.46875q0 0.265625 -0.203125 0.4375q-0.265625 0.25 -1.28125 0.46875q-1.0 0.21875 -1.921875 0.21875q-1.609375 0 -2.578125 -0.90625q-0.953125 -0.90625 -0.953125 -2.234375q0 -1.40625 1.03125 -2.28125q1.046875 -0.875 2.40625 -0.875q0.8125 0 1.484375 0.28125q0.6875 0.28125 1.015625 0.609375q0.46875 0.484375 0.78125 1.203125q0.203125 0.484375 0.203125 1.140625l0 0.5625zm-1.46875 -1.328125q-0.3125 -0.578125 -0.8125 -0.859375q-0.484375 -0.28125 -1.171875 -0.28125q-0.671875 0 -1.171875 0.28125q-0.5 0.28125 -0.8125 0.859375l3.96875 0zm5.8419495 -2.296875l0 0.828125q0.84375 -0.609375 1.328125 -0.796875q0.484375 -0.203125 0.90625 -0.203125q0.65625 0 1.265625 0.46875q0.421875 0.328125 0.421875 0.671875q0 0.28125 -0.203125 0.484375q-0.203125 0.203125 -0.484375 0.203125q-0.25 0 -0.53125 -0.25q-0.265625 -0.25 -0.46875 -0.25q-0.28125 0 -0.84375 0.359375q-0.546875 0.34375 -1.390625 1.046875l0 2.015625l1.90625 0q0.484375 0 0.6875 0.1875q0.203125 0.171875 0.203125 0.484375q0 0.28125 -0.203125 0.46875q-0.203125 0.1875 -0.6875 0.1875l-4.03125 0q-0.484375 0 -0.6875 -0.1875q-0.203125 -0.1875 -0.203125 -0.484375q0 -0.296875 0.203125 -0.46875q0.203125 -0.1875 0.6875 -0.1875l0.796875 0l0 -3.25l-0.484375 0q-0.484375 0 -0.6875 -0.1875q-0.203125 -0.1875 -0.203125 -0.484375q0 -0.28125 0.203125 -0.46875q0.203125 -0.1875 0.6875 -0.1875l1.8125 0zm9.716919 1.5625q-0.328125 -0.203125 -0.6875 -0.296875q-0.34375 -0.109375 -0.734375 -0.109375q-0.78125 0 -1.234375 0.25q-0.203125 0.109375 -0.203125 0.25q0 0.140625 0.265625 0.28125q0.21875 0.109375 0.9375 0.203125q1.328125 0.1875 1.84375 0.375q0.6875 0.234375 1.046875 0.71875q0.375 0.46875 0.375 1.0q0 0.703125 -0.625 1.1875q-0.90625 0.703125 -2.34375 0.703125q-0.578125 0 -1.078125 -0.109375q-0.484375 -0.09375 -0.890625 -0.296875q-0.109375 0.09375 -0.21875 0.140625q-0.109375 0.046875 -0.21875 0.046875q-0.3125 0 -0.5 -0.203125q-0.1875 -0.21875 -0.1875 -0.6875l0 -0.453125q0 -0.484375 0.1875 -0.6875q0.1875 -0.203125 0.484375 -0.203125q0.234375 0 0.390625 0.140625q0.171875 0.125 0.265625 0.453125q0.296875 0.25 0.71875 0.390625q0.4375 0.125 1.0 0.125q0.921875 0 1.421875 -0.28125q0.25 -0.140625 0.25 -0.296875q0 -0.265625 -0.34375 -0.4375q-0.34375 -0.15625 -1.421875 -0.28125q-1.609375 -0.171875 -2.15625 -0.65625q-0.53125 -0.46875 -0.53125 -1.171875q0 -0.703125 0.59375 -1.1875q0.828125 -0.640625 2.15625 -0.640625q0.453125 0 0.875 0.09375q0.4375 0.078125 0.828125 0.25q0.125 -0.078125 0.234375 -0.125q0.109375 -0.046875 0.1875 -0.046875q0.28125 0 0.453125 0.203125q0.1875 0.203125 0.1875 0.6875l0 0.328125q0 0.4375 -0.09375 0.59375q-0.21875 0.296875 -0.578125 0.296875q-0.234375 0 -0.421875 -0.140625q-0.171875 -0.15625 -0.234375 -0.40625zm7.7638245 4.34375l0 -0.3125q-0.5 0.265625 -1.109375 0.390625q-0.609375 0.140625 -1.09375 0.140625q-1.078125 0 -1.75 -0.5625q-0.671875 -0.578125 -0.671875 -1.265625q0 -0.84375 0.859375 -1.5625q0.859375 -0.71875 2.359375 -0.71875q0.609375 0 1.40625 0.140625l0 -0.328125q0 -0.296875 -0.265625 -0.484375q-0.25 -0.1875 -0.96875 -0.1875q-0.59375 0 -1.546875 0.234375q-0.34375 0.078125 -0.546875 0.078125q-0.265625 0 -0.453125 -0.1875q-0.171875 -0.1875 -0.171875 -0.484375q0 -0.171875 0.0625 -0.296875q0.0625 -0.125 0.171875 -0.203125q0.125 -0.078125 0.5 -0.171875q0.484375 -0.140625 1.0 -0.21875q0.515625 -0.078125 0.9375 -0.078125q1.234375 0 1.921875 0.53125q0.6875 0.53125 0.6875 1.46875l0 2.75l0.234375 0q0.484375 0 0.6875 0.1875q0.203125 0.171875 0.203125 0.484375q0 0.28125 -0.203125 0.46875q-0.203125 0.1875 -0.6875 0.1875l-1.5625 0zm0 -2.390625q-0.796875 -0.15625 -1.484375 -0.15625q-0.8125 0 -1.390625 0.40625q-0.375 0.25 -0.375 0.5q0 0.203125 0.1875 0.3125q0.3125 0.21875 0.890625 0.21875q0.46875 0 1.078125 -0.1875q0.609375 -0.1875 1.09375 -0.515625l0 -0.578125zm6.466919 -2.1875l0 2.671875q0 0.4375 0.171875 0.578125q0.28125 0.203125 0.984375 0.203125q1.015625 0 1.875 -0.4375q0.34375 -0.15625 0.53125 -0.15625q0.25 0 0.4375 0.203125q0.203125 0.1875 0.203125 0.46875q0 0.25 -0.203125 0.4375q-0.328125 0.3125 -1.265625 0.578125q-0.9375 0.25 -1.578125 0.25q-1.25 0 -1.875 -0.53125q-0.609375 -0.546875 -0.609375 -1.328125l0 -2.9375l-0.484375 0q-0.484375 0 -0.6875 -0.1875q-0.203125 -0.1875 -0.203125 -0.484375q0 -0.28125 0.203125 -0.46875q0.203125 -0.1875 0.6875 -0.1875l0.484375 0l0 -1.203125q0 -0.484375 0.171875 -0.6875q0.1875 -0.203125 0.484375 -0.203125q0.296875 0 0.484375 0.203125q0.1875 0.203125 0.1875 0.6875l0 1.203125l2.46875 0q0.484375 0 0.6875 0.1875q0.203125 0.1875 0.203125 0.484375q0 0.28125 -0.203125 0.46875q-0.203125 0.1875 -0.6875 0.1875l-2.46875 0zm8.810699 -3.859375l0 1.40625l-1.59375 0l0 -1.40625l1.59375 0zm0.171875 2.53125l0 4.578125l1.609375 0q0.46875 0 0.671875 0.1875q0.21875 0.171875 0.21875 0.484375q0 0.28125 -0.21875 0.46875q-0.203125 0.1875 -0.671875 0.1875l-4.546875 0q-0.46875 0 -0.6875 -0.1875q-0.203125 -0.1875 -0.203125 -0.484375q0 -0.296875 0.203125 -0.46875q0.21875 -0.1875 0.6875 -0.1875l1.609375 0l0 -3.25l-1.078125 0q-0.46875 0 -0.6875 -0.1875q-0.203125 -0.1875 -0.203125 -0.484375q0 -0.28125 0.203125 -0.46875q0.203125 -0.1875 0.6875 -0.1875l2.40625 0zm10.810669 3.0625q0 0.765625 -0.4375 1.484375q-0.421875 0.71875 -1.265625 1.15625q-0.84375 0.421875 -1.75 0.421875q-0.921875 0 -1.75 -0.421875q-0.828125 -0.421875 -1.265625 -1.140625q-0.4375 -0.71875 -0.4375 -1.515625q0 -0.796875 0.4375 -1.5625q0.4375 -0.78125 1.265625 -1.21875q0.84375 -0.4375 1.75 -0.4375q0.90625 0 1.75 0.453125q0.84375 0.4375 1.265625 1.203125q0.4375 0.765625 0.4375 1.578125zm-1.34375 0q0 -0.640625 -0.453125 -1.171875q-0.640625 -0.734375 -1.65625 -0.734375q-0.90625 0 -1.515625 0.578125q-0.609375 0.578125 -0.609375 1.34375q0 0.625 0.609375 1.171875q0.625 0.53125 1.515625 0.53125q0.890625 0 1.5 -0.53125q0.609375 -0.546875 0.609375 -1.1875zm4.5294495 -3.0625l0 0.453125q0.359375 -0.3125 0.796875 -0.46875q0.4375 -0.15625 0.953125 -0.15625q1.1875 0 1.875 0.734375q0.546875 0.578125 0.546875 1.53125l0 2.484375q0.421875 0 0.625 0.1875q0.203125 0.171875 0.203125 0.484375q0 0.28125 -0.203125 0.46875q-0.203125 0.1875 -0.6875 0.1875l-1.203125 0q-0.484375 0 -0.6875 -0.1875q-0.203125 -0.1875 -0.203125 -0.484375q0 -0.296875 0.1875 -0.46875q0.203125 -0.1875 0.640625 -0.1875l0 -2.53125q0 -0.421875 -0.234375 -0.625q-0.3125 -0.265625 -0.921875 -0.265625q-0.46875 0 -0.8125 0.1875q-0.34375 0.171875 -0.875 0.75l0 2.484375q0.5 0 0.65625 0.09375q0.3125 0.1875 0.3125 0.578125q0 0.28125 -0.203125 0.46875q-0.203125 0.1875 -0.6875 0.1875l-1.515625 0q-0.484375 0 -0.6875 -0.1875q-0.203125 -0.1875 -0.203125 -0.484375q0 -0.359375 0.3125 -0.5625q0.15625 -0.09375 0.671875 -0.09375l0 -3.25q-0.421875 0 -0.625 -0.1875q-0.203125 -0.1875 -0.203125 -0.484375q0 -0.28125 0.203125 -0.46875q0.203125 -0.1875 0.6875 -0.1875l1.28125 0zm10.779419 1.5625q-0.328125 -0.203125 -0.6875 -0.296875q-0.34375 -0.109375 -0.734375 -0.109375q-0.78125 0 -1.234375 0.25q-0.203125 0.109375 -0.203125 0.25q0 0.140625 0.265625 0.28125q0.21875 0.109375 0.9375 0.203125q1.328125 0.1875 1.84375 0.375q0.6875 0.234375 1.046875 0.71875q0.375 0.46875 0.375 1.0q0 0.703125 -0.625 1.1875q-0.90625 0.703125 -2.34375 0.703125q-0.578125 0 -1.078125 -0.109375q-0.484375 -0.09375 -0.890625 -0.296875q-0.109375 0.09375 -0.21875 0.140625q-0.109375 0.046875 -0.21875 0.046875q-0.3125 0 -0.5 -0.203125q-0.1875 -0.21875 -0.1875 -0.6875l0 -0.453125q0 -0.484375 0.1875 -0.6875q0.1875 -0.203125 0.484375 -0.203125q0.234375 0 0.390625 0.140625q0.171875 0.125 0.265625 0.453125q0.296875 0.25 0.71875 0.390625q0.4375 0.125 1.0 0.125q0.921875 0 1.421875 -0.28125q0.25 -0.140625 0.25 -0.296875q0 -0.265625 -0.34375 -0.4375q-0.34375 -0.15625 -1.421875 -0.28125q-1.609375 -0.171875 -2.15625 -0.65625q-0.53125 -0.46875 -0.53125 -1.171875q0 -0.703125 0.59375 -1.1875q0.828125 -0.640625 2.15625 -0.640625q0.453125 0 0.875 0.09375q0.4375 0.078125 0.828125 0.25q0.125 -0.078125 0.234375 -0.125q0.109375 -0.046875 0.1875 -0.046875q0.28125 0 0.453125 0.203125q0.1875 0.203125 0.1875 0.6875l0 0.328125q0 0.4375 -0.09375 0.59375q-0.21875 0.296875 -0.578125 0.296875q-0.234375 0 -0.421875 -0.140625q-0.171875 -0.15625 -0.234375 -0.40625z" fill-rule="nonzero"/><path fill="#ffffff" d="m282.89392 97.50616l0 1.6875l0.484375 0q0.46875 0 0.671875 0.1875q0.21875 0.171875 0.21875 0.484375q0 0.28125 -0.21875 0.46875q-0.203125 0.1875 -0.671875 0.1875l-2.03125 0q-0.484375 0 -0.6875 -0.1875q-0.203125 -0.1875 -0.203125 -0.484375q0 -0.296875 0.203125 -0.46875q0.21875 -0.1875 0.6875 -0.1875l0.203125 0l0 -5.21875l-0.203125 0q-0.484375 0 -0.6875 -0.1875q-0.203125 -0.1875 -0.203125 -0.484375q0 -0.296875 0.203125 -0.484375q0.203125 -0.1875 0.6875 -0.1875l3.015625 0q1.421875 0 2.1875 0.703125q0.78125 0.703125 0.78125 1.703125q0 0.625 -0.359375 1.140625q-0.359375 0.5 -1.09375 0.90625q0.421875 0.359375 0.90625 0.9375q0.296875 0.375 0.796875 1.171875q0.515625 0 0.671875 0.09375q0.296875 0.203125 0.296875 0.578125q0 0.28125 -0.203125 0.46875q-0.203125 0.1875 -0.6875 0.1875l-0.765625 0q-1.609375 -2.5 -2.6875 -3.015625l-1.3125 0zm0 -1.328125l1.03125 0q0.59375 0 1.046875 -0.171875q0.609375 -0.234375 0.8125 -0.5q0.21875 -0.265625 0.21875 -0.515625q0 -0.375 -0.40625 -0.6875q-0.40625 -0.328125 -1.171875 -0.328125l-1.53125 0l0 2.203125zm12.716949 2.0625l-5.46875 0q0.203125 0.53125 0.734375 0.84375q0.53125 0.3125 1.4375 0.3125q0.75 0 1.96875 -0.3125q0.515625 -0.125 0.703125 -0.125q0.265625 0 0.453125 0.1875q0.1875 0.1875 0.1875 0.46875q0 0.265625 -0.203125 0.4375q-0.265625 0.25 -1.28125 0.46875q-1.0 0.21875 -1.921875 0.21875q-1.609375 0 -2.578125 -0.90625q-0.953125 -0.90625 -0.953125 -2.234375q0 -1.40625 1.03125 -2.28125q1.046875 -0.875 2.40625 -0.875q0.8125 0 1.484375 0.28125q0.6875 0.28125 1.015625 0.609375q0.46875 0.484375 0.78125 1.203125q0.203125 0.484375 0.203125 1.140625l0 0.5625zm-1.46875 -1.328125q-0.3125 -0.578125 -0.8125 -0.859375q-0.484375 -0.28125 -1.171875 -0.28125q-0.671875 0 -1.171875 0.28125q-0.5 0.28125 -0.8125 0.859375l3.96875 0zm4.466919 2.875l0 2.1875l0.796875 0q0.484375 0 0.6875 0.1875q0.203125 0.1875 0.203125 0.484375q0 0.296875 -0.203125 0.46875q-0.203125 0.1875 -0.6875 0.1875l-2.359375 0q-0.484375 0 -0.6875 -0.1875q-0.203125 -0.171875 -0.203125 -0.46875q0 -0.296875 0.203125 -0.484375q0.21875 -0.1875 0.6875 -0.1875l0.234375 0l0 -6.03125l-0.234375 0q-0.484375 0 -0.6875 -0.1875q-0.203125 -0.1875 -0.203125 -0.484375q0 -0.28125 0.203125 -0.46875q0.203125 -0.1875 0.6875 -0.1875l1.5625 0l0 0.453125q0.46875 -0.3125 0.96875 -0.46875q0.5 -0.15625 1.03125 -0.15625q1.359375 0 2.328125 0.921875q0.96875 0.921875 0.96875 2.125q0 1.3125 -1.140625 2.171875q-0.953125 0.71875 -2.140625 0.71875q-0.515625 0 -1.015625 -0.140625q-0.5 -0.15625 -1.0 -0.453125zm3.953125 -2.296875q0 -0.28125 -0.21875 -0.703125q-0.21875 -0.4375 -0.6875 -0.71875q-0.453125 -0.296875 -1.0625 -0.296875q-1.0 0 -1.59375 0.75q-0.390625 0.515625 -0.390625 0.984375q0 0.53125 0.5625 1.046875q0.578125 0.5 1.421875 0.5q0.84375 0 1.40625 -0.5q0.5625 -0.5 0.5625 -1.0625zm9.170074 0.1875q0 0.765625 -0.4375 1.484375q-0.421875 0.71875 -1.265625 1.15625q-0.84375 0.421875 -1.75 0.421875q-0.921875 0 -1.75 -0.421875q-0.828125 -0.421875 -1.265625 -1.140625q-0.4375 -0.71875 -0.4375 -1.515625q0 -0.796875 0.4375 -1.5625q0.4375 -0.78125 1.265625 -1.21875q0.84375 -0.4375 1.75 -0.4375q0.90625 0 1.75 0.453125q0.84375 0.4375 1.265625 1.203125q0.4375 0.765625 0.4375 1.578125zm-1.34375 0q0 -0.640625 -0.453125 -1.171875q-0.640625 -0.734375 -1.65625 -0.734375q-0.90625 0 -1.515625 0.578125q-0.609375 0.578125 -0.609375 1.34375q0 0.625 0.609375 1.171875q0.625 0.53125 1.515625 0.53125q0.890625 0 1.5 -0.53125q0.609375 -0.546875 0.609375 -1.1875zm7.310669 -1.5q-0.328125 -0.203125 -0.6875 -0.296875q-0.34375 -0.109375 -0.734375 -0.109375q-0.78125 0 -1.234375 0.25q-0.203125 0.109375 -0.203125 0.25q0 0.140625 0.265625 0.28125q0.21875 0.109375 0.9375 0.203125q1.328125 0.1875 1.84375 0.375q0.6875 0.234375 1.046875 0.71875q0.375 0.46875 0.375 1.0q0 0.703125 -0.625 1.1875q-0.90625 0.703125 -2.34375 0.703125q-0.578125 0 -1.078125 -0.109375q-0.484375 -0.09375 -0.890625 -0.296875q-0.109375 0.09375 -0.21875 0.140625q-0.109375 0.046875 -0.21875 0.046875q-0.3125 0 -0.5 -0.203125q-0.1875 -0.21875 -0.1875 -0.6875l0 -0.453125q0 -0.484375 0.1875 -0.6875q0.1875 -0.203125 0.484375 -0.203125q0.234375 0 0.390625 0.140625q0.171875 0.125 0.265625 0.453125q0.296875 0.25 0.71875 0.390625q0.4375 0.125 1.0 0.125q0.921875 0 1.421875 -0.28125q0.25 -0.140625 0.25 -0.296875q0 -0.265625 -0.34375 -0.4375q-0.34375 -0.15625 -1.421875 -0.28125q-1.609375 -0.171875 -2.15625 -0.65625q-0.53125 -0.46875 -0.53125 -1.171875q0 -0.703125 0.59375 -1.1875q0.828125 -0.640625 2.15625 -0.640625q0.453125 0 0.875 0.09375q0.4375 0.078125 0.828125 0.25q0.125 -0.078125 0.234375 -0.125q0.109375 -0.046875 0.1875 -0.046875q0.28125 0 0.453125 0.203125q0.1875 0.203125 0.1875 0.6875l0 0.328125q0 0.4375 -0.09375 0.59375q-0.21875 0.296875 -0.578125 0.296875q-0.234375 0 -0.421875 -0.140625q-0.171875 -0.15625 -0.234375 -0.40625zm7.0450745 -4.09375l0 1.40625l-1.59375 0l0 -1.40625l1.59375 0zm0.171875 2.53125l0 4.578125l1.609375 0q0.46875 0 0.671875 0.1875q0.21875 0.171875 0.21875 0.484375q0 0.28125 -0.21875 0.46875q-0.203125 0.1875 -0.671875 0.1875l-4.546875 0q-0.46875 0 -0.6875 -0.1875q-0.203125 -0.1875 -0.203125 -0.484375q0 -0.296875 0.203125 -0.46875q0.21875 -0.1875 0.6875 -0.1875l1.609375 0l0 -3.25l-1.078125 0q-0.46875 0 -0.6875 -0.1875q-0.203125 -0.1875 -0.203125 -0.484375q0 -0.28125 0.203125 -0.46875q0.203125 -0.1875 0.6875 -0.1875l2.40625 0zm7.013794 1.328125l0 2.671875q0 0.4375 0.171875 0.578125q0.28125 0.203125 0.984375 0.203125q1.015625 0 1.875 -0.4375q0.34375 -0.15625 0.53125 -0.15625q0.25 0 0.4375 0.203125q0.203125 0.1875 0.203125 0.46875q0 0.25 -0.203125 0.4375q-0.328125 0.3125 -1.265625 0.578125q-0.9375 0.25 -1.578125 0.25q-1.25 0 -1.875 -0.53125q-0.609375 -0.546875 -0.609375 -1.328125l0 -2.9375l-0.484375 0q-0.484375 0 -0.6875 -0.1875q-0.203125 -0.1875 -0.203125 -0.484375q0 -0.28125 0.203125 -0.46875q0.203125 -0.1875 0.6875 -0.1875l0.484375 0l0 -1.203125q0 -0.484375 0.171875 -0.6875q0.1875 -0.203125 0.484375 -0.203125q0.296875 0 0.484375 0.203125q0.1875 0.203125 0.1875 0.6875l0 1.203125l2.46875 0q0.484375 0 0.6875 0.1875q0.203125 0.1875 0.203125 0.484375q0 0.28125 -0.203125 0.46875q-0.203125 0.1875 -0.6875 0.1875l-2.46875 0zm11.795074 1.734375q0 0.765625 -0.4375 1.484375q-0.421875 0.71875 -1.265625 1.15625q-0.84375 0.421875 -1.75 0.421875q-0.921875 0 -1.75 -0.421875q-0.828125 -0.421875 -1.265625 -1.140625q-0.4375 -0.71875 -0.4375 -1.515625q0 -0.796875 0.4375 -1.5625q0.4375 -0.78125 1.265625 -1.21875q0.84375 -0.4375 1.75 -0.4375q0.90625 0 1.75 0.453125q0.84375 0.4375 1.265625 1.203125q0.4375 0.765625 0.4375 1.578125zm-1.34375 0q0 -0.640625 -0.453125 -1.171875q-0.640625 -0.734375 -1.65625 -0.734375q-0.90625 0 -1.515625 0.578125q-0.609375 0.578125 -0.609375 1.34375q0 0.625 0.609375 1.171875q0.625 0.53125 1.515625 0.53125q0.890625 0 1.5 -0.53125q0.609375 -0.546875 0.609375 -1.1875zm5.591919 -3.0625l0 0.828125q0.84375 -0.609375 1.328125 -0.796875q0.484375 -0.203125 0.90625 -0.203125q0.65625 0 1.265625 0.46875q0.421875 0.328125 0.421875 0.671875q0 0.28125 -0.203125 0.484375q-0.203125 0.203125 -0.484375 0.203125q-0.25 0 -0.53125 -0.25q-0.265625 -0.25 -0.46875 -0.25q-0.28125 0 -0.84375 0.359375q-0.546875 0.34375 -1.390625 1.046875l0 2.015625l1.90625 0q0.484375 0 0.6875 0.1875q0.203125 0.171875 0.203125 0.484375q0 0.28125 -0.203125 0.46875q-0.203125 0.1875 -0.6875 0.1875l-4.03125 0q-0.484375 0 -0.6875 -0.1875q-0.203125 -0.1875 -0.203125 -0.484375q0 -0.296875 0.203125 -0.46875q0.203125 -0.1875 0.6875 -0.1875l0.796875 0l0 -3.25l-0.484375 0q-0.484375 0 -0.6875 -0.1875q-0.203125 -0.1875 -0.203125 -0.484375q0 -0.28125 0.203125 -0.46875q0.203125 -0.1875 0.6875 -0.1875l1.8125 0zm7.5294495 5.859375l-2.3125 -4.53125q-0.3125 -0.03125 -0.484375 -0.21875q-0.171875 -0.1875 -0.171875 -0.4375q0 -0.296875 0.203125 -0.484375q0.203125 -0.1875 0.6875 -0.1875l1.21875 0q0.484375 0 0.6875 0.1875q0.203125 0.1875 0.203125 0.484375q0 0.28125 -0.203125 0.46875q-0.203125 0.1875 -0.65625 0.1875l1.578125 3.0625l1.5625 -3.0625q-0.421875 0 -0.640625 -0.1875q-0.203125 -0.1875 -0.203125 -0.484375q0 -0.28125 0.203125 -0.46875q0.21875 -0.1875 0.6875 -0.1875l1.265625 0q0.46875 0 0.671875 0.1875q0.203125 0.1875 0.203125 0.484375q0 0.265625 -0.171875 0.453125q-0.171875 0.1875 -0.515625 0.203125l-3.0625 6.03125q0.5 0 0.65625 0.09375q0.3125 0.203125 0.3125 0.578125q0 0.296875 -0.203125 0.46875q-0.203125 0.1875 -0.6875 0.1875l-2.90625 0q-0.484375 0 -0.6875 -0.1875q-0.203125 -0.171875 -0.203125 -0.46875q0 -0.296875 0.203125 -0.484375q0.203125 -0.1875 0.6875 -0.1875l1.328125 0l0.75 -1.5z" fill-rule="nonzero"/><path fill="#cfe2f3" d="m284.74332 31.4042l0 0c0 -15.664013 12.204651 -28.362206 27.259857 -28.362206l0 0c7.229767 0 14.163422 2.9881523 19.275604 8.307097c5.112213 5.318945 7.984253 12.532982 7.984253 20.055107l0 0c0 15.664015 -12.204651 28.362204 -27.259857 28.362204l0 0c-15.055206 0 -27.259857 -12.698189 -27.259857 -28.362204z" fill-rule="evenodd"/><path stroke="#4e8aeb" stroke-width="3.0" stroke-linejoin="round" stroke-linecap="butt" d="m284.74332 31.4042l0 0c0 -15.664013 12.204651 -28.362206 27.259857 -28.362206l0 0c7.229767 0 14.163422 2.9881523 19.275604 8.307097c5.112213 5.318945 7.984253 12.532982 7.984253 20.055107l0 0c0 15.664015 -12.204651 28.362204 -27.259857 28.362204l0 0c-15.055206 0 -27.259857 -12.698189 -27.259857 -28.362204z" fill-rule="evenodd"/><path fill="#cfe2f3" d="m326.41153 40.824677c-0.27035522 1.3958855 -0.73098755 2.7559052 -1.5747986 4.0498657c-0.84384155 1.2939644 -1.9510193 2.6828537 -3.4881897 3.713913c-1.5372009 1.0310593 -3.597992 2.022747 -5.7349243 2.4724388c-2.1369019 0.4496956 -4.9492493 0.5441818 -7.086609 0.22572327c-2.1373596 -0.31845856 -4.2646484 -1.1977272 -5.7375183 -2.1364822c-1.4729004 -0.93875885 -2.3311462 -2.3468933 -3.0997314 -3.4960632c-0.7686157 -1.1491699 -1.1474304 -2.1574821 -1.5118408 -3.3989525c-0.36437988 -1.2414665 -1.049408 -3.0936127 -0.67453 -4.0498657c0.37490845 -0.95625687 1.9304504 -1.2996521 2.9238892 -1.687664c0.9934387 -0.38801575 2.2869568 -1.0586205 3.0367432 -0.6404228c0.7497864 0.41819763 0.9182129 2.129486 1.4619446 3.1496086c0.5437317 1.0201225 0.9973755 2.1097984 1.8005371 2.9711266c0.8031311 0.86133194 1.9168701 1.7869644 3.0183716 2.1968498c1.101471 0.40988922 2.4667358 0.40813828 3.5905457 0.26247025c1.1237793 -0.14567184 2.36438 -0.5236244 3.1522217 -1.136486c0.7878418 -0.6128578 1.3560791 -1.5870514 1.5747986 -2.54068c0.21871948 -0.95363235 0.2104187 -2.3521423 -0.26245117 -3.1811028c-0.4729004 -0.8289604 -1.4790039 -1.317585 -2.5747986 -1.7926521c-1.0958252 -0.47506332 -2.6128845 -0.61854553 -4.0 -1.0577431c-1.387146 -0.43919373 -2.9781494 -0.9908142 -4.3228455 -1.5774269c-1.344696 -0.5866127 -2.612854 -1.1102371 -3.7454224 -1.9422569c-1.1325378 -0.8320217 -2.3101501 -1.8482056 -3.0498657 -3.0498695c-0.7397156 -1.2016621 -1.226593 -2.703848 -1.3884277 -4.1601048c-0.16186523 -1.456255 0.024047852 -3.1671028 0.41729736 -4.577427c0.39328003 -1.4103241 0.9483948 -2.7979012 1.9422607 -3.8845148c0.9938965 -1.0866137 2.5923157 -1.9978123 4.020996 -2.635171c1.4287109 -0.6373577 3.0612488 -0.98818874 4.551178 -1.1889763c1.4899597 -0.20078754 3.057312 -0.163167 4.3884583 -0.015748024c1.3311462 0.14741898 2.5223083 0.51443577 3.5984192 0.90026283c1.0761414 0.38582706 1.9658813 0.83202076 2.8582764 1.4146976c0.892395 0.58267784 1.7537231 1.2458448 2.4960632 2.0813646c0.7423401 0.8355217 1.4816284 1.9453201 1.9580078 2.9317589c0.4763794 0.98643875 1.1627197 2.1889763 0.90026855 2.9868774c-0.2624817 0.79789925 -1.5376282 1.3048992 -2.4750671 1.8005238c-0.93743896 0.49562645 -2.2769165 1.4658794 -3.1495972 1.1732292c-0.8727112 -0.29265022 -1.3740234 -2.0214348 -2.0866394 -2.9291344c-0.71258545 -0.9076996 -1.3556213 -1.9098854 -2.1889648 -2.5170593c-0.8333435 -0.6071739 -1.7799683 -0.9650059 -2.8110352 -1.1259842c-1.0310364 -0.16098022 -2.4190674 -0.16666794 -3.3753052 0.16010475c-0.9562683 0.32677078 -1.9125366 1.0691166 -2.3622131 1.8005238c-0.44970703 0.7314091 -0.5069885 1.8451443 -0.33596802 2.5879269c0.17105103 0.7427826 0.42520142 1.3250217 1.3622131 1.8687668c0.9370117 0.54374504 2.572174 0.8390198 4.2598267 1.3937016c1.6876831 0.5546799 4.2410583 1.265091 5.86615 1.9343815c1.6251221 0.66929245 2.7624817 1.2099743 3.8845215 2.0813656c1.1220398 0.8713913 2.1776123 2.1071758 2.8477783 3.1469822c0.670166 1.0398064 0.9855652 1.8556442 1.1732178 3.0918617c0.18765259 1.2362213 0.2230835 2.929573 -0.04724121 4.3254623z" fill-rule="evenodd"/><path stroke="#4e8aeb" stroke-width="3.0" stroke-linejoin="round" stroke-linecap="butt" d="m326.41153 40.824677c-0.27035522 1.3958855 -0.73098755 2.7559052 -1.5747986 4.0498657c-0.84384155 1.2939644 -1.9510193 2.6828537 -3.4881897 3.713913c-1.5372009 1.0310593 -3.597992 2.022747 -5.7349243 2.4724388c-2.1369019 0.4496956 -4.9492493 0.5441818 -7.086609 0.22572327c-2.1373596 -0.31845856 -4.2646484 -1.1977272 -5.7375183 -2.1364822c-1.4729004 -0.93875885 -2.3311462 -2.3468933 -3.0997314 -3.4960632c-0.7686157 -1.1491699 -1.1474304 -2.1574821 -1.5118408 -3.3989525c-0.36437988 -1.2414665 -1.049408 -3.0936127 -0.67453 -4.0498657c0.37490845 -0.95625687 1.9304504 -1.2996521 2.9238892 -1.687664c0.9934387 -0.38801575 2.2869568 -1.0586205 3.0367432 -0.6404228c0.7497864 0.41819763 0.9182129 2.129486 1.4619446 3.1496086c0.5437317 1.0201225 0.9973755 2.1097984 1.8005371 2.9711266c0.8031311 0.86133194 1.9168701 1.7869644 3.0183716 2.1968498c1.101471 0.40988922 2.4667358 0.40813828 3.5905457 0.26247025c1.1237793 -0.14567184 2.36438 -0.5236244 3.1522217 -1.136486c0.7878418 -0.6128578 1.3560791 -1.5870514 1.5747986 -2.54068c0.21871948 -0.95363235 0.2104187 -2.3521423 -0.26245117 -3.1811028c-0.4729004 -0.8289604 -1.4790039 -1.317585 -2.5747986 -1.7926521c-1.0958252 -0.47506332 -2.6128845 -0.61854553 -4.0 -1.0577431c-1.387146 -0.43919373 -2.9781494 -0.9908142 -4.3228455 -1.5774269c-1.344696 -0.5866127 -2.612854 -1.1102371 -3.7454224 -1.9422569c-1.1325378 -0.8320217 -2.3101501 -1.8482056 -3.0498657 -3.0498695c-0.7397156 -1.2016621 -1.226593 -2.703848 -1.3884277 -4.1601048c-0.16186523 -1.456255 0.024047852 -3.1671028 0.41729736 -4.577427c0.39328003 -1.4103241 0.9483948 -2.7979012 1.9422607 -3.8845148c0.9938965 -1.0866137 2.5923157 -1.9978123 4.020996 -2.635171c1.4287109 -0.6373577 3.0612488 -0.98818874 4.551178 -1.1889763c1.4899597 -0.20078754 3.057312 -0.163167 4.3884583 -0.015748024c1.3311462 0.14741898 2.5223083 0.51443577 3.5984192 0.90026283c1.0761414 0.38582706 1.9658813 0.83202076 2.8582764 1.4146976c0.892395 0.58267784 1.7537231 1.2458448 2.4960632 2.0813646c0.7423401 0.8355217 1.4816284 1.9453201 1.9580078 2.9317589c0.4763794 0.98643875 1.1627197 2.1889763 0.90026855 2.9868774c-0.2624817 0.79789925 -1.5376282 1.3048992 -2.4750671 1.8005238c-0.93743896 0.49562645 -2.2769165 1.4658794 -3.1495972 1.1732292c-0.8727112 -0.29265022 -1.3740234 -2.0214348 -2.0866394 -2.9291344c-0.71258545 -0.9076996 -1.3556213 -1.9098854 -2.1889648 -2.5170593c-0.8333435 -0.6071739 -1.7799683 -0.9650059 -2.8110352 -1.1259842c-1.0310364 -0.16098022 -2.4190674 -0.16666794 -3.3753052 0.16010475c-0.9562683 0.32677078 -1.9125366 1.0691166 -2.3622131 1.8005238c-0.44970703 0.7314091 -0.5069885 1.8451443 -0.33596802 2.5879269c0.17105103 0.7427826 0.42520142 1.3250217 1.3622131 1.8687668c0.9370117 0.54374504 2.572174 0.8390198 4.2598267 1.3937016c1.6876831 0.5546799 4.2410583 1.265091 5.86615 1.9343815c1.6251221 0.66929245 2.7624817 1.2099743 3.8845215 2.0813656c1.1220398 0.8713913 2.1776123 2.1071758 2.8477783 3.1469822c0.670166 1.0398064 0.9855652 1.8556442 1.1732178 3.0918617c0.18765259 1.2362213 0.2230835 2.929573 -0.04724121 4.3254623z" fill-rule="evenodd"/><path fill="#d96248" d="m347.24045 63.6558c-0.21179199 -0.08922577 -0.5791931 -1.1040077 -1.0043335 -1.5255585c-0.4251709 -0.42155457 -0.7340393 -0.72293854 -1.5466309 -1.0037613c-0.8126221 -0.28082275 -1.8124084 0.102581024 -3.3290405 -0.68118286c-1.5166626 -0.7837601 -4.3435974 -2.9601974 -5.770813 -4.021393c-1.4272156 -1.0611916 -1.7532349 -1.3834877 -2.7925415 -2.3457756c-1.0392761 -0.9622879 -2.382965 -2.2943459 -3.4432068 -3.4279518c-1.0602417 -1.1336098 -1.9984741 -2.2662315 -2.9183044 -3.3736992c-0.9197998 -1.1074677 -1.8343201 -2.2821922 -2.600586 -3.2711143c-0.7662964 -0.98892593 -2.0430908 -2.5779266 -1.9971008 -2.6624222c0.04598999 -0.08449173 1.1171875 1.1735954 2.2730103 2.1554527c1.1557922 0.9818611 3.3282166 2.7091904 4.661804 3.735695c1.3335876 1.0265083 2.5256042 1.8999939 3.3397827 2.4233475c0.814209 0.5233574 1.4321289 0.7319069 1.5454102 0.71678925c0.11325073 -0.015117645 -0.19924927 -0.039138794 -0.8657837 -0.80749893c-0.6665039 -0.76836014 -2.2031555 -2.6255417 -3.1333618 -3.8026695c-0.9302368 -1.1771278 -1.7406311 -2.2842407 -2.447998 -3.2600937c-0.7073364 -0.97585297 -2.0856018 -2.771923 -1.796051 -2.5950203c0.28955078 0.17689896 2.3781433 2.5597649 3.5333862 3.6564255c1.1552429 1.0966606 2.3901367 2.0849457 3.3981323 2.9235306c1.0079956 0.8385849 1.7876282 1.4530792 2.6498108 2.1079788c0.8621826 0.6549034 1.7796631 1.2957458 2.5232544 1.821434c0.7436218 0.52568436 0.9316101 0.6139946 1.9383545 1.3326912c1.0067749 0.7186966 3.128357 2.248848 4.102173 2.9794846c0.9737854 0.7306366 1.2436218 0.8270683 1.7406311 1.4043274c0.49697876 0.5772629 0.9064331 1.3190613 1.2413635 2.0592308c0.3348999 0.74017334 0.6072998 1.6365509 0.76812744 2.3818092c0.16085815 0.74525833 0.2084961 1.5764275 0.19689941 2.0897522c-0.01159668 0.5133209 -0.054595947 1.079422 -0.26638794 0.9901924z" fill-rule="evenodd"/><path stroke="#d96248" stroke-width="1.0" stroke-linejoin="round" stroke-linecap="butt" d="m347.24045 63.6558c-0.21179199 -0.08922577 -0.5791931 -1.1040077 -1.0043335 -1.5255585c-0.4251709 -0.42155457 -0.7340393 -0.72293854 -1.5466309 -1.0037613c-0.8126221 -0.28082275 -1.8124084 0.102581024 -3.3290405 -0.68118286c-1.5166626 -0.7837601 -4.3435974 -2.9601974 -5.770813 -4.021393c-1.4272156 -1.0611916 -1.7532349 -1.3834877 -2.7925415 -2.3457756c-1.0392761 -0.9622879 -2.382965 -2.2943459 -3.4432068 -3.4279518c-1.0602417 -1.1336098 -1.9984741 -2.2662315 -2.9183044 -3.3736992c-0.9197998 -1.1074677 -1.8343201 -2.2821922 -2.600586 -3.2711143c-0.7662964 -0.98892593 -2.0430908 -2.5779266 -1.9971008 -2.6624222c0.04598999 -0.08449173 1.1171875 1.1735954 2.2730103 2.1554527c1.1557922 0.9818611 3.3282166 2.7091904 4.661804 3.735695c1.3335876 1.0265083 2.5256042 1.8999939 3.3397827 2.4233475c0.814209 0.5233574 1.4321289 0.7319069 1.5454102 0.71678925c0.11325073 -0.015117645 -0.19924927 -0.039138794 -0.8657837 -0.80749893c-0.6665039 -0.76836014 -2.2031555 -2.6255417 -3.1333618 -3.8026695c-0.9302368 -1.1771278 -1.7406311 -2.2842407 -2.447998 -3.2600937c-0.7073364 -0.97585297 -2.0856018 -2.771923 -1.796051 -2.5950203c0.28955078 0.17689896 2.3781433 2.5597649 3.5333862 3.6564255c1.1552429 1.0966606 2.3901367 2.0849457 3.3981323 2.9235306c1.0079956 0.8385849 1.7876282 1.4530792 2.6498108 2.1079788c0.8621826 0.6549034 1.7796631 1.2957458 2.5232544 1.821434c0.7436218 0.52568436 0.9316101 0.6139946 1.9383545 1.3326912c1.0067749 0.7186966 3.128357 2.248848 4.102173 2.9794846c0.9737854 0.7306366 1.2436218 0.8270683 1.7406311 1.4043274c0.49697876 0.5772629 0.9064331 1.3190613 1.2413635 2.0592308c0.3348999 0.74017334 0.6072998 1.6365509 0.76812744 2.3818092c0.16085815 0.74525833 0.2084961 1.5764275 0.19689941 2.0897522c-0.01159668 0.5133209 -0.054595947 1.079422 -0.26638794 0.9901924z" fill-rule="evenodd"/><path fill="#d96248" d="m319.17017 54.316544c-0.06838989 0.16121674 1.066803 1.6122437 1.6413574 2.313137c0.57458496 0.7008934 1.1629944 1.3034439 1.8059998 1.8922195c0.6430054 0.58877563 1.3818054 1.1567116 2.052124 1.6404343c0.6703186 0.4837227 1.2483826 0.873909 1.9697876 1.2619019c0.721405 0.38799667 1.6339722 0.77373123 2.358612 1.0660706c0.7246399 0.29233932 1.2741699 0.5152321 1.9892273 0.6879654c0.7150574 0.1727333 1.5414124 0.304348 2.3011475 0.34843445c0.7597351 0.04408264 1.5881348 -0.029956818 2.2572632 -0.08393097c0.66915894 -0.05397415 1.2848511 -0.15895462 1.7575989 -0.23991776c0.4727173 -0.080963135 0.70822144 -0.124622345 1.0787964 -0.24585342c0.37054443 -0.12123108 0.76226807 -0.28916168 1.1445618 -0.48153305c0.38226318 -0.19237137 0.8070984 -0.5044937 1.1491089 -0.6727028c0.3420105 -0.16821289 0.5609741 -0.23137283 0.9029846 -0.33656693c0.34204102 -0.10519409 0.8457031 -0.17824173 1.1491394 -0.29459763c0.30340576 -0.116355896 0.9436035 -0.17817307 0.6713257 -0.40353775c-0.2722473 -0.2253685 -2.261322 -0.46217728 -2.30484 -0.9486542c-0.04348755 -0.4864807 1.5185242 -1.4655113 2.0438538 -1.9702148c0.5253296 -0.50470734 0.7937927 -0.7538109 1.1081543 -1.0580177c0.31436157 -0.30420685 0.571167 -0.22550583 0.7780762 -0.767231c0.20687866 -0.54172516 0.38449097 -1.6554108 0.46328735 -2.4831161c0.07879639 -0.8277054 0.10638428 -1.6049652 0.009521484 -2.4831123c-0.09686279 -0.87815094 -0.2919922 -1.830265 -0.59069824 -2.7857704c-0.29873657 -0.9555054 -0.73706055 -2.0203056 -1.2016602 -2.9472694c-0.4645996 -0.9269638 -1.0014343 -1.803627 -1.585907 -2.614521c-0.5845032 -0.8108902 -1.331604 -1.6337204 -1.92099 -2.250824c-0.589386 -0.6171074 -1.038269 -0.9785385 -1.6152954 -1.4518051c-0.5770569 -0.4732666 -1.662262 -1.3386993 -1.8469543 -1.3877983c-0.18469238 -0.04909897 0.45150757 0.59555817 0.73876953 1.0931969c0.28729248 0.49764252 0.6672363 1.1793175 0.9849243 1.8926468c0.31765747 0.7133255 0.6741028 1.543644 0.9211731 2.3873177c0.24710083 0.8436699 0.4595642 1.8166962 0.56134033 2.6747093c0.101745605 0.85801315 0.11160278 1.6557655 0.049224854 2.4733658c-0.062408447 0.81760406 -0.22000122 1.7577095 -0.42358398 2.432251c-0.20358276 0.6745415 -0.41488647 0.97712326 -0.7979431 1.6149979c-0.38302612 0.6378784 -0.91503906 1.5281067 -1.5003052 2.2122536c-0.5852356 0.6841507 -1.3895569 1.4224167 -2.011139 1.8926468c-0.62158203 0.4702263 -1.0923767 0.6879616 -1.7182922 0.92873c-0.6259155 0.24076462 -1.2155151 0.3973198 -2.0372314 0.5158653c-0.8217163 0.11854935 -1.9183655 0.23992157 -2.893036 0.19541168c-0.9747009 -0.044506073 -2.1268616 -0.2855568 -2.9551086 -0.46245575c-0.8282776 -0.17690277 -1.2756958 -0.29756927 -2.0144653 -0.59894943c-0.73880005 -0.30138397 -1.6732178 -0.7834816 -2.418213 -1.209343c-0.7449646 -0.42586136 -1.9833069 -1.5070496 -2.0516968 -1.3458328z" fill-rule="evenodd"/><path stroke="#d96248" stroke-width="1.0" stroke-linejoin="round" stroke-linecap="butt" d="m319.17017 54.316544c-0.06838989 0.16121674 1.066803 1.6122437 1.6413574 2.313137c0.57458496 0.7008934 1.1629944 1.3034439 1.8059998 1.8922195c0.6430054 0.58877563 1.3818054 1.1567116 2.052124 1.6404343c0.6703186 0.4837227 1.2483826 0.873909 1.9697876 1.2619019c0.721405 0.38799667 1.6339722 0.77373123 2.358612 1.0660706c0.7246399 0.29233932 1.2741699 0.5152321 1.9892273 0.6879654c0.7150574 0.1727333 1.5414124 0.304348 2.3011475 0.34843445c0.7597351 0.04408264 1.5881348 -0.029956818 2.2572632 -0.08393097c0.66915894 -0.05397415 1.2848511 -0.15895462 1.7575989 -0.23991776c0.4727173 -0.080963135 0.70822144 -0.124622345 1.0787964 -0.24585342c0.37054443 -0.12123108 0.76226807 -0.28916168 1.1445618 -0.48153305c0.38226318 -0.19237137 0.8070984 -0.5044937 1.1491089 -0.6727028c0.3420105 -0.16821289 0.5609741 -0.23137283 0.9029846 -0.33656693c0.34204102 -0.10519409 0.8457031 -0.17824173 1.1491394 -0.29459763c0.30340576 -0.116355896 0.9436035 -0.17817307 0.6713257 -0.40353775c-0.2722473 -0.2253685 -2.261322 -0.46217728 -2.30484 -0.9486542c-0.04348755 -0.4864807 1.5185242 -1.4655113 2.0438538 -1.9702148c0.5253296 -0.50470734 0.7937927 -0.7538109 1.1081543 -1.0580177c0.31436157 -0.30420685 0.571167 -0.22550583 0.7780762 -0.767231c0.20687866 -0.54172516 0.38449097 -1.6554108 0.46328735 -2.4831161c0.07879639 -0.8277054 0.10638428 -1.6049652 0.009521484 -2.4831123c-0.09686279 -0.87815094 -0.2919922 -1.830265 -0.59069824 -2.7857704c-0.29873657 -0.9555054 -0.73706055 -2.0203056 -1.2016602 -2.9472694c-0.4645996 -0.9269638 -1.0014343 -1.803627 -1.585907 -2.614521c-0.5845032 -0.8108902 -1.331604 -1.6337204 -1.92099 -2.250824c-0.589386 -0.6171074 -1.038269 -0.9785385 -1.6152954 -1.4518051c-0.5770569 -0.4732666 -1.662262 -1.3386993 -1.8469543 -1.3877983c-0.18469238 -0.04909897 0.45150757 0.59555817 0.73876953 1.0931969c0.28729248 0.49764252 0.6672363 1.1793175 0.9849243 1.8926468c0.31765747 0.7133255 0.6741028 1.543644 0.9211731 2.3873177c0.24710083 0.8436699 0.4595642 1.8166962 0.56134033 2.6747093c0.101745605 0.85801315 0.11160278 1.6557655 0.049224854 2.4733658c-0.062408447 0.81760406 -0.22000122 1.7577095 -0.42358398 2.432251c-0.20358276 0.6745415 -0.41488647 0.97712326 -0.7979431 1.6149979c-0.38302612 0.6378784 -0.91503906 1.5281067 -1.5003052 2.2122536c-0.5852356 0.6841507 -1.3895569 1.4224167 -2.011139 1.8926468c-0.62158203 0.4702263 -1.0923767 0.6879616 -1.7182922 0.92873c-0.6259155 0.24076462 -1.2155151 0.3973198 -2.0372314 0.5158653c-0.8217163 0.11854935 -1.9183655 0.23992157 -2.893036 0.19541168c-0.9747009 -0.044506073 -2.1268616 -0.2855568 -2.9551086 -0.46245575c-0.8282776 -0.17690277 -1.2756958 -0.29756927 -2.0144653 -0.59894943c-0.73880005 -0.30138397 -1.6732178 -0.7834816 -2.418213 -1.209343c-0.7449646 -0.42586136 -1.9833069 -1.5070496 -2.0516968 -1.3458328z" fill-rule="evenodd"/><path fill="#cfe2f3" d="m24.887238 31.385826l0 0c0 -15.664013 12.204647 -28.362204 27.259842 -28.362204l0 0c7.229759 0 14.163406 2.9881525 19.27562 8.307098c5.112213 5.318944 7.9842224 12.532983 7.9842224 20.055107l0 0c0 15.664013 -12.204643 28.362206 -27.259842 28.362206l0 0c-15.055195 0 -27.259842 -12.698193 -27.259842 -28.362206z" fill-rule="evenodd"/><path stroke="#4e8aeb" stroke-width="3.0" stroke-linejoin="round" stroke-linecap="butt" d="m24.887238 31.385826l0 0c0 -15.664013 12.204647 -28.362204 27.259842 -28.362204l0 0c7.229759 0 14.163406 2.9881525 19.27562 8.307098c5.112213 5.318944 7.9842224 12.532983 7.9842224 20.055107l0 0c0 15.664013 -12.204643 28.362206 -27.259842 28.362206l0 0c-15.055195 0 -27.259842 -12.698193 -27.259842 -28.362206z" fill-rule="evenodd"/><path fill="#cfe2f3" d="m69.00768 40.163944l0 0c-3.8216858 8.244152 -12.47427 12.67598 -20.972725 10.742161c-8.498451 -1.9338188 -14.653782 -9.735176 -14.919708 -18.909462c-0.26593018 -9.174288 5.4260406 -17.358437 13.796585 -19.837301c8.370544 -2.4788647 17.263618 1.3860502 21.555641 9.368044l-8.601124 5.1553555c-1.9510803 -4.07251 -6.15049 -6.1087646 -10.141632 -4.9175854c-3.9911423 1.1911812 -6.7253723 5.2968216 -6.603195 9.915178c0.122177124 4.6183567 3.068657 8.535982 7.1157837 9.461119c4.0471306 0.92513657 8.13155 -1.385292 9.863934 -5.579712z" fill-rule="evenodd"/><path stroke="#4e8aeb" stroke-width="3.0" stroke-linejoin="round" stroke-linecap="butt" d="m69.00768 40.163944l0 0c-3.8216858 8.244152 -12.47427 12.67598 -20.972725 10.742161c-8.498451 -1.9338188 -14.653782 -9.735176 -14.919708 -18.909462c-0.26593018 -9.174288 5.4260406 -17.358437 13.796585 -19.837301c8.370544 -2.4788647 17.263618 1.3860502 21.555641 9.368044l-8.601124 5.1553555c-1.9510803 -4.07251 -6.15049 -6.1087646 -10.141632 -4.9175854c-3.9911423 1.1911812 -6.7253723 5.2968216 -6.603195 9.915178c0.122177124 4.6183567 3.068657 8.535982 7.1157837 9.461119c4.0471306 0.92513657 8.13155 -1.385292 9.863934 -5.579712z" fill-rule="evenodd"/><path fill="#000000" fill-opacity="0.0" d="m3.023622 62.740158l105.44882 0l0 41.85827l-105.44882 0z" fill-rule="evenodd"/><path fill="#ffffff" d="m9.853586 76.99328q0.125 -0.171875 0.265625 -0.25q0.15625 -0.09375 0.3125 -0.09375q0.296875 0 0.484375 0.203125q0.1875 0.203125 0.1875 0.6875l0 1.125q0 0.484375 -0.1875 0.6875q-0.1875 0.203125 -0.484375 0.203125q-0.265625 0 -0.421875 -0.140625q-0.171875 -0.15625 -0.25 -0.5625q-0.03125 -0.28125 -0.171875 -0.421875q-0.265625 -0.296875 -0.75 -0.46875q-0.484375 -0.171875 -0.9531255 -0.171875q-0.609375 0 -1.109375 0.265625q-0.5 0.25 -0.890625 0.84375q-0.375 0.578125 -0.375 1.390625l0 0.859375q0 0.96875 0.703125 1.609375q0.703125 0.640625 1.9375005 0.640625q0.75 0 1.265625 -0.203125q0.296875 -0.109375 0.625 -0.453125q0.21875 -0.21875 0.328125 -0.28125q0.125 -0.0625 0.265625 -0.0625q0.265625 0 0.46875 0.203125q0.203125 0.203125 0.203125 0.484375q0 0.265625 -0.265625 0.578125q-0.40625 0.453125 -1.03125 0.71875q-0.828125 0.34375 -1.84375 0.34375q-1.1875005 0 -2.1406255 -0.484375q-0.765625 -0.390625 -1.3125 -1.234375q-0.53125 -0.84375 -0.53125 -1.828125l0 -0.90625q0 -1.046875 0.484375 -1.9375q0.484375 -0.90625 1.34375 -1.390625q0.859375 -0.5 1.8125 -0.5q0.5781255 0 1.0781255 0.140625q0.515625 0.125 0.953125 0.40625zm9.373184 4.703125q0 0.765625 -0.4375 1.484375q-0.421875 0.71875 -1.265625 1.15625q-0.84375 0.421875 -1.75 0.421875q-0.921875 0 -1.75 -0.421875q-0.828125 -0.421875 -1.265625 -1.140625q-0.4375 -0.71875 -0.4375 -1.515625q0 -0.796875 0.4375 -1.5625q0.4375 -0.78125 1.265625 -1.21875q0.84375 -0.4375 1.75 -0.4375q0.90625 0 1.75 0.453125q0.84375 0.4375 1.265625 1.203125q0.4375 0.765625 0.4375 1.578125zm-1.34375 0q0 -0.640625 -0.453125 -1.171875q-0.640625 -0.734375 -1.65625 -0.734375q-0.90625 0 -1.515625 0.578125q-0.609375 0.578125 -0.609375 1.34375q0 0.625 0.609375 1.171875q0.625 0.53125 1.515625 0.53125q0.890625 0 1.5 -0.53125q0.609375 -0.546875 0.609375 -1.1875zm4.529434 -3.0625l0 0.453125q0.359375 -0.3125 0.796875 -0.46875q0.4375 -0.15625 0.953125 -0.15625q1.1875 0 1.875 0.734375q0.546875 0.578125 0.546875 1.53125l0 2.484375q0.421875 0 0.625 0.1875q0.203125 0.171875 0.203125 0.484375q0 0.28125 -0.203125 0.46875q-0.203125 0.1875 -0.6875 0.1875l-1.203125 0q-0.484375 0 -0.6875 -0.1875q-0.203125 -0.1875 -0.203125 -0.484375q0 -0.296875 0.1875 -0.46875q0.203125 -0.1875 0.640625 -0.1875l0 -2.53125q0 -0.421875 -0.234375 -0.625q-0.3125 -0.265625 -0.921875 -0.265625q-0.46875 0 -0.8125 0.1875q-0.34375 0.171875 -0.875 0.75l0 2.484375q0.5 0 0.65625 0.09375q0.3125 0.1875 0.3125 0.578125q0 0.28125 -0.203125 0.46875q-0.203125 0.1875 -0.6875 0.1875l-1.515625 0q-0.484375 0 -0.6875 -0.1875q-0.203125 -0.1875 -0.203125 -0.484375q0 -0.359375 0.3125 -0.5625q0.15625 -0.09375 0.671875 -0.09375l0 -3.25q-0.421875 0 -0.625 -0.1875q-0.203125 -0.1875 -0.203125 -0.484375q0 -0.28125 0.203125 -0.46875q0.203125 -0.1875 0.6875 -0.1875l1.28125 0zm9.357559 4.28125l1.4374981 -2.953125q-0.546875 0 -0.6875 -0.09375q-0.328125 -0.203125 -0.328125 -0.578125q0 -0.28125 0.203125 -0.46875q0.203125 -0.1875 0.6875 -0.1875l1.828125 0q0.484375 0 0.6875 0.1875q0.203125 0.1875 0.203125 0.484375q0 0.28125 -0.203125 0.46875q-0.203125 0.1875 -0.6875 0.1875l-0.21875 0l-2.234375 4.578125l-1.3906231 0l-2.234375 -4.578125l-0.1875 0q-0.484375 0 -0.6875 -0.1875q-0.203125 -0.1875 -0.203125 -0.484375q0 -0.28125 0.203125 -0.46875q0.203125 -0.1875 0.6875 -0.1875l1.796875 0q0.46875 0 0.671875 0.1875q0.203125 0.1875 0.203125 0.484375q0 0.359375 -0.3125 0.5625q-0.15625 0.09375 -0.6875 0.09375l1.453125 2.953125zm11.326307 -0.65625l-5.46875 0q0.203125 0.53125 0.734375 0.84375q0.53125 0.3125 1.4375 0.3125q0.75 0 1.96875 -0.3125q0.515625 -0.125 0.703125 -0.125q0.265625 0 0.453125 0.1875q0.1875 0.1875 0.1875 0.46875q0 0.265625 -0.203125 0.4375q-0.265625 0.25 -1.28125 0.46875q-1.0 0.21875 -1.921875 0.21875q-1.609375 0 -2.578125 -0.90625q-0.953125 -0.90625 -0.953125 -2.234375q0 -1.40625 1.03125 -2.28125q1.046875 -0.875 2.40625 -0.875q0.8125 0 1.484375 0.28125q0.6875 0.28125 1.015625 0.609375q0.46875 0.484375 0.78125 1.203125q0.203125 0.484375 0.203125 1.140625l0 0.5625zm-1.46875 -1.328125q-0.3125 -0.578125 -0.8125 -0.859375q-0.484375 -0.28125 -1.171875 -0.28125q-0.671875 0 -1.171875 0.28125q-0.5 0.28125 -0.8125 0.859375l3.96875 0zm5.841934 -2.296875l0 0.828125q0.84375 -0.609375 1.328125 -0.796875q0.484375 -0.203125 0.90625 -0.203125q0.65625 0 1.265625 0.46875q0.421875 0.328125 0.421875 0.671875q0 0.28125 -0.203125 0.484375q-0.203125 0.203125 -0.484375 0.203125q-0.25 0 -0.53125 -0.25q-0.265625 -0.25 -0.46875 -0.25q-0.28125 0 -0.84375 0.359375q-0.546875 0.34375 -1.390625 1.046875l0 2.015625l1.90625 0q0.484375 0 0.6875 0.1875q0.203125 0.171875 0.203125 0.484375q0 0.28125 -0.203125 0.46875q-0.203125 0.1875 -0.6875 0.1875l-4.03125 0q-0.484375 0 -0.6875 -0.1875q-0.203125 -0.1875 -0.203125 -0.484375q0 -0.296875 0.203125 -0.46875q0.203125 -0.1875 0.6875 -0.1875l0.796875 0l0 -3.25l-0.484375 0q-0.484375 0 -0.6875 -0.1875q-0.203125 -0.1875 -0.203125 -0.484375q0 -0.28125 0.203125 -0.46875q0.203125 -0.1875 0.6875 -0.1875l1.8125 0zm9.716934 1.5625q-0.328125 -0.203125 -0.6875 -0.296875q-0.34375 -0.109375 -0.734375 -0.109375q-0.78125 0 -1.234375 0.25q-0.203125 0.109375 -0.203125 0.25q0 0.140625 0.265625 0.28125q0.21875 0.109375 0.9375 0.203125q1.328125 0.1875 1.84375 0.375q0.6875 0.234375 1.046875 0.71875q0.375 0.46875 0.375 1.0q0 0.703125 -0.625 1.1875q-0.90625 0.703125 -2.34375 0.703125q-0.578125 0 -1.078125 -0.109375q-0.484375 -0.09375 -0.890625 -0.296875q-0.109375 0.09375 -0.21875 0.140625q-0.109375 0.046875 -0.21875 0.046875q-0.3125 0 -0.5 -0.203125q-0.1875 -0.21875 -0.1875 -0.6875l0 -0.453125q0 -0.484375 0.1875 -0.6875q0.1875 -0.203125 0.484375 -0.203125q0.234375 0 0.390625 0.140625q0.171875 0.125 0.265625 0.453125q0.296875 0.25 0.71875 0.390625q0.4375 0.125 1.0 0.125q0.921875 0 1.421875 -0.28125q0.25 -0.140625 0.25 -0.296875q0 -0.265625 -0.34375 -0.4375q-0.34375 -0.15625 -1.421875 -0.28125q-1.609375 -0.171875 -2.15625 -0.65625q-0.53125 -0.46875 -0.53125 -1.171875q0 -0.703125 0.59375 -1.1875q0.828125 -0.640625 2.15625 -0.640625q0.453125 0 0.875 0.09375q0.4375 0.078125 0.828125 0.25q0.125 -0.078125 0.234375 -0.125q0.109375 -0.046875 0.1875 -0.046875q0.28125 0 0.453125 0.203125q0.1875 0.203125 0.1875 0.6875l0 0.328125q0 0.4375 -0.09375 0.59375q-0.21875 0.296875 -0.578125 0.296875q-0.234375 0 -0.421875 -0.140625q-0.171875 -0.15625 -0.234375 -0.40625zm7.763809 4.34375l0 -0.3125q-0.5 0.265625 -1.109375 0.390625q-0.609375 0.140625 -1.09375 0.140625q-1.078125 0 -1.75 -0.5625q-0.671875 -0.578125 -0.671875 -1.265625q0 -0.84375 0.859375 -1.5625q0.859375 -0.71875 2.359375 -0.71875q0.609375 0 1.40625 0.140625l0 -0.328125q0 -0.296875 -0.265625 -0.484375q-0.25 -0.1875 -0.96875 -0.1875q-0.59375 0 -1.546875 0.234375q-0.34375 0.078125 -0.546875 0.078125q-0.265625 0 -0.453125 -0.1875q-0.171875 -0.1875 -0.171875 -0.484375q0 -0.171875 0.0625 -0.296875q0.0625 -0.125 0.171875 -0.203125q0.125 -0.078125 0.5 -0.171875q0.484375 -0.140625 1.0 -0.21875q0.515625 -0.078125 0.9375 -0.078125q1.234375 0 1.921875 0.53125q0.6875 0.53125 0.6875 1.46875l0 2.75l0.234375 0q0.484375 0 0.6875 0.1875q0.203125 0.171875 0.203125 0.484375q0 0.28125 -0.203125 0.46875q-0.203125 0.1875 -0.6875 0.1875l-1.5625 0zm0 -2.390625q-0.796875 -0.15625 -1.484375 -0.15625q-0.8125 0 -1.390625 0.40625q-0.375 0.25 -0.375 0.5q0 0.203125 0.1875 0.3125q0.3125 0.21875 0.890625 0.21875q0.46875 0 1.078125 -0.1875q0.609375 -0.1875 1.09375 -0.515625l0 -0.578125zm6.466934 -2.1875l0 2.671875q0 0.4375 0.171875 0.578125q0.28125 0.203125 0.984375 0.203125q1.015625 0 1.875 -0.4375q0.34375 -0.15625 0.53125 -0.15625q0.25 0 0.4375 0.203125q0.203125 0.1875 0.203125 0.46875q0 0.25 -0.203125 0.4375q-0.328125 0.3125 -1.265625 0.578125q-0.9375 0.25 -1.578125 0.25q-1.25 0 -1.875 -0.53125q-0.609375 -0.546875 -0.609375 -1.328125l0 -2.9375l-0.484375 0q-0.484375 0 -0.6875 -0.1875q-0.203125 -0.1875 -0.203125 -0.484375q0 -0.28125 0.203125 -0.46875q0.203125 -0.1875 0.6875 -0.1875l0.484375 0l0 -1.203125q0 -0.484375 0.171875 -0.6875q0.1875 -0.203125 0.484375 -0.203125q0.296875 0 0.484375 0.203125q0.1875 0.203125 0.1875 0.6875l0 1.203125l2.46875 0q0.484375 0 0.6875 0.1875q0.203125 0.1875 0.203125 0.484375q0 0.28125 -0.203125 0.46875q-0.203125 0.1875 -0.6875 0.1875l-2.46875 0zm8.810684 -3.859375l0 1.40625l-1.59375 0l0 -1.40625l1.59375 0zm0.171875 2.53125l0 4.578125l1.609375 0q0.46875 0 0.671875 0.1875q0.21875 0.171875 0.21875 0.484375q0 0.28125 -0.21875 0.46875q-0.203125 0.1875 -0.671875 0.1875l-4.546875 0q-0.46875 0 -0.6875 -0.1875q-0.203125 -0.1875 -0.203125 -0.484375q0 -0.296875 0.203125 -0.46875q0.21875 -0.1875 0.6875 -0.1875l1.609375 0l0 -3.25l-1.078125 0q-0.46875 0 -0.6875 -0.1875q-0.203125 -0.1875 -0.203125 -0.484375q0 -0.28125 0.203125 -0.46875q0.203125 -0.1875 0.6875 -0.1875l2.40625 0zm10.810684 3.0625q0 0.765625 -0.4375 1.484375q-0.421875 0.71875 -1.265625 1.15625q-0.84375 0.421875 -1.75 0.421875q-0.921875 0 -1.75 -0.421875q-0.828125 -0.421875 -1.265625 -1.140625q-0.4375 -0.71875 -0.4375 -1.515625q0 -0.796875 0.4375 -1.5625q0.4375 -0.78125 1.265625 -1.21875q0.84375 -0.4375 1.75 -0.4375q0.90625 0 1.75 0.453125q0.84375 0.4375 1.265625 1.203125q0.4375 0.765625 0.4375 1.578125zm-1.34375 0q0 -0.640625 -0.453125 -1.171875q-0.640625 -0.734375 -1.65625 -0.734375q-0.90625 0 -1.515625 0.578125q-0.609375 0.578125 -0.609375 1.34375q0 0.625 0.609375 1.171875q0.625 0.53125 1.515625 0.53125q0.890625 0 1.5 -0.53125q0.609375 -0.546875 0.609375 -1.1875zm4.529434 -3.0625l0 0.453125q0.359375 -0.3125 0.796875 -0.46875q0.4375 -0.15625 0.953125 -0.15625q1.1875 0 1.875 0.734375q0.546875 0.578125 0.546875 1.53125l0 2.484375q0.421875 0 0.625 0.1875q0.203125 0.171875 0.203125 0.484375q0 0.28125 -0.203125 0.46875q-0.203125 0.1875 -0.6875 0.1875l-1.203125 0q-0.484375 0 -0.6875 -0.1875q-0.203125 -0.1875 -0.203125 -0.484375q0 -0.296875 0.1875 -0.46875q0.203125 -0.1875 0.640625 -0.1875l0 -2.53125q0 -0.421875 -0.234375 -0.625q-0.3125 -0.265625 -0.921875 -0.265625q-0.46875 0 -0.8125 0.1875q-0.34375 0.171875 -0.875 0.75l0 2.484375q0.5 0 0.65625 0.09375q0.3125 0.1875 0.3125 0.578125q0 0.28125 -0.203125 0.46875q-0.203125 0.1875 -0.6875 0.1875l-1.515625 0q-0.484375 0 -0.6875 -0.1875q-0.203125 -0.1875 -0.203125 -0.484375q0 -0.359375 0.3125 -0.5625q0.15625 -0.09375 0.671875 -0.09375l0 -3.25q-0.421875 0 -0.625 -0.1875q-0.203125 -0.1875 -0.203125 -0.484375q0 -0.28125 0.203125 -0.46875q0.203125 -0.1875 0.6875 -0.1875l1.28125 0zm10.779434 1.5625q-0.328125 -0.203125 -0.6875 -0.296875q-0.34375 -0.109375 -0.734375 -0.109375q-0.78125 0 -1.234375 0.25q-0.203125 0.109375 -0.203125 0.25q0 0.140625 0.265625 0.28125q0.21875 0.109375 0.9375 0.203125q1.328125 0.1875 1.84375 0.375q0.6875 0.234375 1.046875 0.71875q0.375 0.46875 0.375 1.0q0 0.703125 -0.625 1.1875q-0.90625 0.703125 -2.34375 0.703125q-0.578125 0 -1.078125 -0.109375q-0.484375 -0.09375 -0.890625 -0.296875q-0.109375 0.09375 -0.21875 0.140625q-0.109375 0.046875 -0.21875 0.046875q-0.3125 0 -0.5 -0.203125q-0.1875 -0.21875 -0.1875 -0.6875l0 -0.453125q0 -0.484375 0.1875 -0.6875q0.1875 -0.203125 0.484375 -0.203125q0.234375 0 0.390625 0.140625q0.171875 0.125 0.265625 0.453125q0.296875 0.25 0.71875 0.390625q0.4375 0.125 1.0 0.125q0.921875 0 1.421875 -0.28125q0.25 -0.140625 0.25 -0.296875q0 -0.265625 -0.34375 -0.4375q-0.34375 -0.15625 -1.421875 -0.28125q-1.609375 -0.171875 -2.15625 -0.65625q-0.53125 -0.46875 -0.53125 -1.171875q0 -0.703125 0.59375 -1.1875q0.828125 -0.640625 2.15625 -0.640625q0.453125 0 0.875 0.09375q0.4375 0.078125 0.828125 0.25q0.125 -0.078125 0.234375 -0.125q0.109375 -0.046875 0.1875 -0.046875q0.28125 0 0.453125 0.203125q0.1875 0.203125 0.1875 0.6875l0 0.328125q0 0.4375 -0.09375 0.59375q-0.21875 0.296875 -0.578125 0.296875q-0.234375 0 -0.421875 -0.140625q-0.171875 -0.15625 -0.234375 -0.40625z" fill-rule="nonzero"/><path fill="#ffffff" d="m23.756205 98.58703l1.921875 -4.59375l-0.296875 0q-0.484375 0 -0.6875 -0.1875q-0.203125 -0.1875 -0.203125 -0.484375q0 -0.296875 0.203125 -0.484375q0.203125 -0.1875 0.6875 -0.1875l1.78125 0q0.484375 0 0.6875 0.1875q0.203125 0.1875 0.203125 0.484375q0 0.359375 -0.3125 0.5625q-0.140625 0.109375 -0.609375 0.109375l-2.734375 6.546875l-1.28125 0l-2.734375 -6.546875q-0.46875 0 -0.625 -0.109375q-0.3125 -0.203125 -0.3125 -0.5625q0 -0.296875 0.21875 -0.484375q0.203125 -0.1875 0.671875 -0.1875l1.8125 0q0.46875 0 0.671875 0.1875q0.21875 0.1875 0.21875 0.484375q0 0.296875 -0.203125 0.484375q-0.203125 0.1875 -0.6875 0.1875l-0.3125 0l1.921875 4.59375zm8.482557 -6.484375l0 1.40625l-1.5937481 0l0 -1.40625l1.5937481 0zm0.171875 2.53125l0 4.578125l1.609375 0q0.46875 0 0.671875 0.1875q0.21875 0.171875 0.21875 0.484375q0 0.28125 -0.21875 0.46875q-0.203125 0.1875 -0.671875 0.1875l-4.546873 0q-0.46875 0 -0.6875 -0.1875q-0.203125 -0.1875 -0.203125 -0.484375q0 -0.296875 0.203125 -0.46875q0.21875 -0.1875 0.6875 -0.1875l1.609375 0l0 -3.25l-1.078125 0q-0.46875 0 -0.6875 -0.1875q-0.203125 -0.1875 -0.203125 -0.484375q0 -0.28125 0.203125 -0.46875q0.203125 -0.1875 0.6875 -0.1875l2.406248 0zm10.685684 3.625l-5.46875 0q0.203125 0.53125 0.734375 0.84375q0.53125 0.3125 1.4375 0.3125q0.75 0 1.96875 -0.3125q0.515625 -0.125 0.703125 -0.125q0.265625 0 0.453125 0.1875q0.1875 0.1875 0.1875 0.46875q0 0.265625 -0.203125 0.4375q-0.265625 0.25 -1.28125 0.46875q-1.0 0.21875 -1.921875 0.21875q-1.609375 0 -2.578125 -0.90625q-0.953125 -0.90625 -0.953125 -2.234375q0 -1.40625 1.03125 -2.28125q1.046875 -0.875 2.40625 -0.875q0.8125 0 1.484375 0.28125q0.6875 0.28125 1.015625 0.609375q0.46875 0.484375 0.78125 1.203125q0.203125 0.484375 0.203125 1.140625l0 0.5625zm-1.46875 -1.328125q-0.3125 -0.578125 -0.8125 -0.859375q-0.484375 -0.28125 -1.171875 -0.28125q-0.671875 0 -1.171875 0.28125q-0.5 0.28125 -0.8125 0.859375l3.96875 0zm6.138809 1.15625l-0.9375 2.453125l-1.25 0l-1.125 -4.578125q-0.359375 -0.015625 -0.546875 -0.203125q-0.1875 -0.1875 -0.1875 -0.46875q0 -0.28125 0.203125 -0.46875q0.21875 -0.1875 0.6875 -0.1875l1.25 0q0.484375 0 0.6875 0.1875q0.203125 0.1875 0.203125 0.484375q0 0.296875 -0.234375 0.5q-0.171875 0.15625 -0.6875 0.15625l0.5 2.125l0.828125 -2.171875l1.1875 0l0.828125 2.171875l0.53125 -2.125q-0.5 0 -0.65625 -0.09375q-0.3125 -0.203125 -0.3125 -0.578125q0 -0.28125 0.203125 -0.46875q0.203125 -0.1875 0.6875 -0.1875l1.25 0q0.484375 0 0.6875 0.1875q0.21875 0.1875 0.21875 0.484375q0 0.265625 -0.1875 0.453125q-0.171875 0.1875 -0.53125 0.203125l-1.09375 4.578125l-1.234375 0l-0.96875 -2.453125zm5.888809 -2.859375l0 3.984375l0.484375 0q0.484375 0 0.6875 0.1875q0.203125 0.171875 0.203125 0.484375q0 0.28125 -0.203125 0.46875q-0.203125 0.1875 -0.6875 0.1875l-1.75 0q-0.484375 0 -0.6875 -0.1875q-0.203125 -0.1875 -0.203125 -0.484375q0 -0.296875 0.203125 -0.46875q0.203125 -0.1875 0.625 -0.1875l0 -5.21875q-0.34375 -0.046875 -0.53125 -0.21875q-0.171875 -0.1875 -0.171875 -0.453125q0 -0.296875 0.203125 -0.484375q0.203125 -0.1875 0.6875 -0.1875l1.453125 0l1.828125 4.015625l1.78125 -4.015625l1.46875 0q0.484375 0 0.6875 0.1875q0.203125 0.1875 0.203125 0.484375q0 0.265625 -0.1875 0.453125q-0.171875 0.171875 -0.515625 0.21875l0 5.21875q0.421875 0 0.625 0.1875q0.203125 0.1875 0.203125 0.484375q0 0.28125 -0.203125 0.46875q-0.203125 0.1875 -0.6875 0.1875l-1.765625 0q-0.46875 0 -0.671875 -0.1875q-0.203125 -0.1875 -0.203125 -0.484375q0 -0.296875 0.203125 -0.46875q0.203125 -0.1875 0.671875 -0.1875l0.5 0l0 -3.984375l-1.53125 3.4375l-1.15625 0l-1.5625 -3.4375zm13.560684 2.46875q0 0.765625 -0.4375 1.484375q-0.421875 0.71875 -1.265625 1.15625q-0.84375 0.421875 -1.75 0.421875q-0.921875 0 -1.75 -0.421875q-0.828125 -0.421875 -1.265625 -1.140625q-0.4375 -0.71875 -0.4375 -1.515625q0 -0.796875 0.4375 -1.5625q0.4375 -0.78125 1.265625 -1.21875q0.84375 -0.4375 1.75 -0.4375q0.90625 0 1.75 0.453125q0.84375 0.4375 1.265625 1.203125q0.4375 0.765625 0.4375 1.578125zm-1.34375 0q0 -0.640625 -0.453125 -1.171875q-0.640625 -0.734375 -1.65625 -0.734375q-0.90625 0 -1.515625 0.578125q-0.609375 0.578125 -0.609375 1.34375q0 0.625 0.609375 1.171875q0.625 0.53125 1.515625 0.53125q0.890625 0 1.5 -0.53125q0.609375 -0.546875 0.609375 -1.1875zm8.935684 -5.59375l0 7.109375l0.21875 0q0.484375 0 0.6875 0.1875q0.21875 0.171875 0.21875 0.484375q0 0.28125 -0.21875 0.46875q-0.203125 0.1875 -0.6875 0.1875l-1.546875 0l0 -0.328125q-0.46875 0.265625 -0.96875 0.40625q-0.484375 0.140625 -1.03125 0.140625q-1.5 0 -2.421875 -0.859375q-0.90625 -0.875 -0.90625 -2.171875q0 -1.359375 0.953125 -2.3125q0.96875 -0.953125 2.359375 -0.953125q0.515625 0 1.015625 0.15625q0.5 0.15625 1.0 0.46875l0 -1.65625l-0.234375 0q-0.484375 0 -0.6875 -0.1875q-0.203125 -0.1875 -0.203125 -0.46875q0 -0.296875 0.203125 -0.484375q0.203125 -0.1875 0.6875 -0.1875l1.5625 0zm-1.328125 5.65625q0 -0.828125 -0.59375 -1.390625q-0.578125 -0.578125 -1.40625 -0.578125q-0.84375 0 -1.421875 0.578125q-0.578125 0.5625 -0.578125 1.375q0 0.734375 0.515625 1.203125q0.53125 0.46875 1.484375 0.46875q0.9375 0 1.46875 -0.46875q0.53125 -0.46875 0.53125 -1.1875zm9.607559 0.5l-5.46875 0q0.203125 0.53125 0.734375 0.84375q0.53125 0.3125 1.4375 0.3125q0.75 0 1.96875 -0.3125q0.515625 -0.125 0.703125 -0.125q0.265625 0 0.453125 0.1875q0.1875 0.1875 0.1875 0.46875q0 0.265625 -0.203125 0.4375q-0.265625 0.25 -1.28125 0.46875q-1.0 0.21875 -1.921875 0.21875q-1.609375 0 -2.578125 -0.90625q-0.953125 -0.90625 -0.953125 -2.234375q0 -1.40625 1.03125 -2.28125q1.046875 -0.875 2.40625 -0.875q0.8125 0 1.484375 0.28125q0.6875 0.28125 1.015625 0.609375q0.46875 0.484375 0.78125 1.203125q0.203125 0.484375 0.203125 1.140625l0 0.5625zm-1.46875 -1.328125q-0.3125 -0.578125 -0.8125 -0.859375q-0.484375 -0.28125 -1.171875 -0.28125q-0.671875 0 -1.171875 0.28125q-0.5 0.28125 -0.8125 0.859375l3.96875 0zm6.795059 -4.828125l0 7.109375l1.59375 0q0.484375 0 0.6875 0.1875q0.203125 0.171875 0.203125 0.484375q0 0.28125 -0.203125 0.46875q-0.203125 0.1875 -0.6875 0.1875l-4.53125 0q-0.484375 0 -0.6875 -0.1875q-0.203125 -0.1875 -0.203125 -0.484375q0 -0.296875 0.203125 -0.46875q0.203125 -0.1875 0.6875 -0.1875l1.59375 0l0 -5.78125l-1.0625 0q-0.484375 0 -0.703125 -0.1875q-0.203125 -0.1875 -0.203125 -0.484375q0 -0.28125 0.203125 -0.46875q0.21875 -0.1875 0.703125 -0.1875l2.40625 0z" fill-rule="nonzero"/><path fill="#d96248" d="m90.996574 63.63743c-0.21179199 -0.089229584 -0.57917786 -1.1040077 -1.0043411 -1.5255623c-0.42515564 -0.42155075 -0.7340164 -0.7229347 -1.5466309 -1.0037575c-0.8126068 -0.28082275 -1.8124008 0.102581024 -3.3290405 -0.68118286c-1.5166397 -0.7837639 -4.343582 -2.9601974 -5.7708054 -4.021393c-1.4272232 -1.0611954 -1.7532501 -1.3834877 -2.7925415 -2.3457756c-1.0392914 -0.9622879 -2.3829575 -2.2943459 -3.4432068 -3.4279556c-1.0602493 -1.133606 -1.9984741 -2.2662277 -2.9182892 -3.3736954c-0.91981506 -1.1074677 -1.8343201 -2.282196 -2.6006088 -3.2711182c-0.7662811 -0.9889221 -2.0430756 -2.5779228 -1.9970932 -2.6624184c0.04598236 -0.084495544 1.1171951 1.1735954 2.272995 2.1554527c1.1558075 0.9818573 3.3282166 2.7091866 4.6618195 3.735695c1.3336029 1.0265083 2.5255966 1.8999901 3.339798 2.4233475c0.8141937 0.5233574 1.4321213 0.7319069 1.5453873 0.71678925c0.11327362 -0.015117645 -0.19924164 -0.039138794 -0.8657608 -0.80749893c-0.6665268 -0.76836395 -2.2031631 -2.6255417 -3.1333923 -3.8026695c-0.93022156 -1.1771278 -1.7406311 -2.2842445 -2.4479675 -3.2600975c-0.7073364 -0.97584915 -2.085617 -2.7719193 -1.7960587 -2.5950203c0.28955078 0.17690277 2.378128 2.5597687 3.5333786 3.6564293c1.1552505 1.0966606 2.390129 2.0849457 3.3981247 2.9235306c1.007988 0.8385849 1.7876511 1.4530754 2.649826 2.1079788c0.8621826 0.6548996 1.7796555 1.295742 2.5232544 1.8214302c0.74360657 0.5256882 0.9316101 0.6139984 1.9383621 1.332695c1.006752 0.7186966 3.1283493 2.248848 4.10215 2.9794846c0.973793 0.7306328 1.2436295 0.8270683 1.7406311 1.4043274c0.49699402 0.57725906 0.90644073 1.3190575 1.2413559 2.0592308c0.33491516 0.74017334 0.60730743 1.6365471 0.7681427 2.3818092c0.1608429 0.74525833 0.20848083 1.5764236 0.19689941 2.0897484c-0.011581421 0.51332474 -0.054603577 1.079422 -0.26638794 0.9901962z" fill-rule="evenodd"/><path stroke="#d96248" stroke-width="1.0" stroke-linejoin="round" stroke-linecap="butt" d="m90.996574 63.63743c-0.21179199 -0.089229584 -0.57917786 -1.1040077 -1.0043411 -1.5255623c-0.42515564 -0.42155075 -0.7340164 -0.7229347 -1.5466309 -1.0037575c-0.8126068 -0.28082275 -1.8124008 0.102581024 -3.3290405 -0.68118286c-1.5166397 -0.7837639 -4.343582 -2.9601974 -5.7708054 -4.021393c-1.4272232 -1.0611954 -1.7532501 -1.3834877 -2.7925415 -2.3457756c-1.0392914 -0.9622879 -2.3829575 -2.2943459 -3.4432068 -3.4279556c-1.0602493 -1.133606 -1.9984741 -2.2662277 -2.9182892 -3.3736954c-0.91981506 -1.1074677 -1.8343201 -2.282196 -2.6006088 -3.2711182c-0.7662811 -0.9889221 -2.0430756 -2.5779228 -1.9970932 -2.6624184c0.04598236 -0.084495544 1.1171951 1.1735954 2.272995 2.1554527c1.1558075 0.9818573 3.3282166 2.7091866 4.6618195 3.735695c1.3336029 1.0265083 2.5255966 1.8999901 3.339798 2.4233475c0.8141937 0.5233574 1.4321213 0.7319069 1.5453873 0.71678925c0.11327362 -0.015117645 -0.19924164 -0.039138794 -0.8657608 -0.80749893c-0.6665268 -0.76836395 -2.2031631 -2.6255417 -3.1333923 -3.8026695c-0.93022156 -1.1771278 -1.7406311 -2.2842445 -2.4479675 -3.2600975c-0.7073364 -0.97584915 -2.085617 -2.7719193 -1.7960587 -2.5950203c0.28955078 0.17690277 2.378128 2.5597687 3.5333786 3.6564293c1.1552505 1.0966606 2.390129 2.0849457 3.3981247 2.9235306c1.007988 0.8385849 1.7876511 1.4530754 2.649826 2.1079788c0.8621826 0.6548996 1.7796555 1.295742 2.5232544 1.8214302c0.74360657 0.5256882 0.9316101 0.6139984 1.9383621 1.332695c1.006752 0.7186966 3.1283493 2.248848 4.10215 2.9794846c0.973793 0.7306328 1.2436295 0.8270683 1.7406311 1.4043274c0.49699402 0.57725906 0.90644073 1.3190575 1.2413559 2.0592308c0.33491516 0.74017334 0.60730743 1.6365471 0.7681427 2.3818092c0.1608429 0.74525833 0.20848083 1.5764236 0.19689941 2.0897484c-0.011581421 0.51332474 -0.054603577 1.079422 -0.26638794 0.9901962z" fill-rule="evenodd"/><path fill="#d96248" d="m62.926308 54.29817c-0.06838989 0.16122055 1.0667992 1.6122475 1.6413574 2.3131409c0.57455444 0.7008934 1.1629715 1.3034439 1.8059845 1.8922195c0.64302063 0.58877563 1.3817978 1.1567116 2.0521088 1.6404343c0.6703186 0.4837227 1.2483902 0.8739052 1.9697952 1.2619019c0.721405 0.38799667 1.6339798 0.77373123 2.3586197 1.0660706c0.7246475 0.29233932 1.2741776 0.5152321 1.9892349 0.6879654c0.715065 0.1727333 1.5413971 0.304348 2.3011322 0.34843063c0.7597275 0.044086456 1.5881271 -0.029953003 2.2572784 -0.083927155c0.6691437 -0.05397415 1.2848587 -0.15895844 1.7575912 -0.23991776c0.4727249 -0.080963135 0.70822906 -0.124622345 1.0787888 -0.24585342c0.3705597 -0.12123108 0.76229095 -0.28916168 1.1445694 -0.48153305c0.38227844 -0.19237518 0.8070984 -0.5044937 1.1491165 -0.6727066c0.34201813 -0.16820908 0.5609741 -0.23136902 0.90299225 -0.3365631c0.34201813 -0.10519409 0.8457031 -0.17824173 1.1491165 -0.29460144c0.30340576 -0.116355896 0.9435959 -0.17817307 0.6713486 -0.40353775c-0.2722473 -0.22536469 -2.261345 -0.46217346 -2.3048477 -0.9486542c-0.043502808 -0.4864769 1.5185013 -1.4655075 2.0438385 -1.9702148c0.5253296 -0.5047035 0.7937851 -0.75380707 1.1081619 -1.0580139c0.3143692 -0.30420685 0.57118225 -0.22550583 0.77806854 -0.767231c0.20689392 -0.54172516 0.38449097 -1.6554108 0.46328735 -2.4831161c0.078804016 -0.8277054 0.10637665 -1.604969 0.009513855 -2.4831161c-0.09686279 -0.8781471 -0.29196167 -1.8302612 -0.5906906 -2.7857666c-0.2987213 -0.9555092 -0.7370529 -2.0203056 -1.2016449 -2.9472694c-0.4645996 -0.9269676 -1.001442 -1.8036308 -1.5859299 -2.614521c-0.5844803 -0.8108902 -1.331604 -1.6337204 -1.9209824 -2.2508278c-0.58937836 -0.6171036 -1.0382538 -0.9785347 -1.6152954 -1.4518013c-0.5770416 -0.47327042 -1.6622467 -1.3386993 -1.8469391 -1.3877983c-0.18469238 -0.049102783 0.45149994 0.59555817 0.73877716 1.0931969c0.28727722 0.4976387 0.66721344 1.1793175 0.9848938 1.892643c0.31768036 0.7133293 0.6741104 1.5436478 0.921196 2.3873177c0.24708557 0.8436737 0.4595642 1.8167 0.56131744 2.6747131c0.101760864 0.85801315 0.11161804 1.6557617 0.049224854 2.4733658c-0.06239319 0.81760406 -0.21998596 1.7577057 -0.42357635 2.4322472c-0.20358276 0.6745453 -0.41488647 0.9771271 -0.79792786 1.6150017c-0.38303375 0.6378746 -0.9150543 1.5281029 -1.5002975 2.2122536c-0.5852432 0.6841507 -1.3895874 1.4224167 -2.0111618 1.892643c-0.6215744 0.4702301 -1.0923767 0.6879654 -1.7182922 0.9287338c-0.6259155 0.24076462 -1.2155075 0.3973198 -2.0372162 0.5158653c-0.8217163 0.11854553 -1.9183655 0.23991776 -2.8930588 0.19541168c-0.9746933 -0.044509888 -2.1268387 -0.2855568 -2.955101 -0.46245956c-0.8282623 -0.17689896 -1.2756958 -0.29756546 -2.0144653 -0.59894943c-0.73877716 -0.30138016 -1.6732101 -0.7834778 -2.41819 -1.2093391c-0.74497986 -0.42586517 -1.9833069 -1.5070534 -2.0516968 -1.3458366z" fill-rule="evenodd"/><path stroke="#d96248" stroke-width="1.0" stroke-linejoin="round" stroke-linecap="butt" d="m62.926308 54.29817c-0.06838989 0.16122055 1.0667992 1.6122475 1.6413574 2.3131409c0.57455444 0.7008934 1.1629715 1.3034439 1.8059845 1.8922195c0.64302063 0.58877563 1.3817978 1.1567116 2.0521088 1.6404343c0.6703186 0.4837227 1.2483902 0.8739052 1.9697952 1.2619019c0.721405 0.38799667 1.6339798 0.77373123 2.3586197 1.0660706c0.7246475 0.29233932 1.2741776 0.5152321 1.9892349 0.6879654c0.715065 0.1727333 1.5413971 0.304348 2.3011322 0.34843063c0.7597275 0.044086456 1.5881271 -0.029953003 2.2572784 -0.083927155c0.6691437 -0.05397415 1.2848587 -0.15895844 1.7575912 -0.23991776c0.4727249 -0.080963135 0.70822906 -0.124622345 1.0787888 -0.24585342c0.3705597 -0.12123108 0.76229095 -0.28916168 1.1445694 -0.48153305c0.38227844 -0.19237518 0.8070984 -0.5044937 1.1491165 -0.6727066c0.34201813 -0.16820908 0.5609741 -0.23136902 0.90299225 -0.3365631c0.34201813 -0.10519409 0.8457031 -0.17824173 1.1491165 -0.29460144c0.30340576 -0.116355896 0.9435959 -0.17817307 0.6713486 -0.40353775c-0.2722473 -0.22536469 -2.261345 -0.46217346 -2.3048477 -0.9486542c-0.043502808 -0.4864769 1.5185013 -1.4655075 2.0438385 -1.9702148c0.5253296 -0.5047035 0.7937851 -0.75380707 1.1081619 -1.0580139c0.3143692 -0.30420685 0.57118225 -0.22550583 0.77806854 -0.767231c0.20689392 -0.54172516 0.38449097 -1.6554108 0.46328735 -2.4831161c0.078804016 -0.8277054 0.10637665 -1.604969 0.009513855 -2.4831161c-0.09686279 -0.8781471 -0.29196167 -1.8302612 -0.5906906 -2.7857666c-0.2987213 -0.9555092 -0.7370529 -2.0203056 -1.2016449 -2.9472694c-0.4645996 -0.9269676 -1.001442 -1.8036308 -1.5859299 -2.614521c-0.5844803 -0.8108902 -1.331604 -1.6337204 -1.9209824 -2.2508278c-0.58937836 -0.6171036 -1.0382538 -0.9785347 -1.6152954 -1.4518013c-0.5770416 -0.47327042 -1.6622467 -1.3386993 -1.8469391 -1.3877983c-0.18469238 -0.049102783 0.45149994 0.59555817 0.73877716 1.0931969c0.28727722 0.4976387 0.66721344 1.1793175 0.9848938 1.892643c0.31768036 0.7133293 0.6741104 1.5436478 0.921196 2.3873177c0.24708557 0.8436737 0.4595642 1.8167 0.56131744 2.6747131c0.101760864 0.85801315 0.11161804 1.6557617 0.049224854 2.4733658c-0.06239319 0.81760406 -0.21998596 1.7577057 -0.42357635 2.4322472c-0.20358276 0.6745453 -0.41488647 0.9771271 -0.79792786 1.6150017c-0.38303375 0.6378746 -0.9150543 1.5281029 -1.5002975 2.2122536c-0.5852432 0.6841507 -1.3895874 1.4224167 -2.0111618 1.892643c-0.6215744 0.4702301 -1.0923767 0.6879654 -1.7182922 0.9287338c-0.6259155 0.24076462 -1.2155075 0.3973198 -2.0372162 0.5158653c-0.8217163 0.11854553 -1.9183655 0.23991776 -2.8930588 0.19541168c-0.9746933 -0.044509888 -2.1268387 -0.2855568 -2.955101 -0.46245956c-0.8282623 -0.17689896 -1.2756958 -0.29756546 -2.0144653 -0.59894943c-0.73877716 -0.30138016 -1.6732101 -0.7834778 -2.41819 -1.2093391c-0.74497986 -0.42586517 -1.9833069 -1.5070534 -2.0516968 -1.3458366z" fill-rule="evenodd"/></g></svg>